<svg id="Layer_1" data-name="Layer 1" xmlns="http://www.w3.org/2000/svg" width="548.48" height="55.33" viewBox="0 0 548.48 55.33">
  <g>
    <path d="M547.43,825.6c-1.82,7.14-3.76,14.25-5.42,21.43-.91,4-3.06,5.39-7.07,5.2-3.53-.16-5.5-1.47-6.3-5-1.61-7.12-3.46-14.17-5.21-21.26l-1.27,0c-.65,10.88-1.3,21.76-2,32.9h-9.1a14.67,14.67,0,0,1-.54-3.36c.93-14.28,2-28.55,2.88-42.83.17-2.74,1.26-3.66,4-3.81,10.49-.62,10.51-.7,13.06,9.7.79,3.22,1.42,6.49,2.14,9.74a32.46,32.46,0,0,0,3.14,9.32c.89-3.68,1.81-7.35,2.67-11s1.48-7.18,2.46-10.69c.65-2.32,1.38-6.12,2.73-6.44,3.77-.88,7.89-.41,11.86-.15.65,0,1.67,1.69,1.72,2.64,1,15.43,1.79,30.86,2.63,46.29,0,.13-.17.28-.42.67-.61.07-1.4.22-2.19.25-6.85.23-7,.13-7.31-6.62l-1.41-26.75Z" transform="translate(-238.76 -805.14)"/>
    <path d="M369.66,859h-11a20,20,0,0,1-.59-3.39c.06-14,.25-27.95.19-41.92,0-3.45,1.09-4.79,4.57-4.61,5.15.27,10.3.2,15.46.33,6.47.18,11.3,3,13.28,9.34s.76,12.17-4.08,17c-.69.68-1.43,1.32-1.94,1.79,2.37,5,4.65,9.77,6.86,14.56,1,2.15,3,4.42-.3,6.43-2.66,1.62-8,.91-9.32-1.67-1.7-3.4-2.64-7.18-4.37-10.55a12.87,12.87,0,0,0-4.43-4.94c-2.53-1.56-4.44-.8-4.4,2.69C369.71,848.8,369.66,853.59,369.66,859Zm.31-27.36c7.64.85,10.85-1.14,11-6.58.11-5.77-3-8-11-7.54Z" transform="translate(-238.76 -805.14)"/>
    <path d="M446.68,822.68c.71.26.87.39,1,.37,11.33-1.54,15.31.26,17.9,8.13,3.74,11.33.82,23.21-8.17,26.4-5.66,2-12.59.62-18.93.36-.83,0-2.22-2.43-2.23-3.74q-.24-22.68,0-45.36c0-1.25,1.63-3.38,2.73-3.54,2.74-.4,6-.36,6.71,3.39a73.83,73.83,0,0,1,.6,8.43C446.45,819.06,446.58,821,446.68,822.68Zm-.44,19.41.29,0c0,1.5-.32,3.09.08,4.47a26.36,26.36,0,0,0,2.41,4.69c1.84-1.14,5-2,5.28-3.47a48.8,48.8,0,0,0,.54-13.23c-.09-1.18-2.69-2.91-4.21-3-1.22-.07-3.24,1.76-3.69,3.14C446.2,837,446.42,839.62,446.24,842.09Z" transform="translate(-238.76 -805.14)"/>
    <path d="M644.33,835.18c5.81-5.39,6.55-16.34,18.09-11.68-2,3.92-3.62,7.82-5.83,11.38-1.39,2.23-1.07,3.43.27,5.62a85.94,85.94,0,0,1,6.57,13.92c.37,1-1.31,3.9-2.16,4-2.52.15-5.85.12-7.46-1.37-2-1.86-2.48-5.33-4-7.9a39.66,39.66,0,0,0-4.19-5.19l-1.55.74v14.09H633.2c-.11-1.68-.33-3.45-.33-5.22,0-14.32,0-28.64,0-43,0-2.28-1-5.45,3.1-5.42,3.36,0,6.71.63,7.06,4.71.5,6,.46,12,.7,17.95C643.83,829.84,644.06,831.86,644.33,835.18Z" transform="translate(-238.76 -805.14)"/>
    <path d="M584.92,836.06c.62-3.59-1-5.1-4-5.09a24,24,0,0,0-6.87.93c-3.09,1-4.32-.59-5.16-3-1-2.8.22-4.46,2.93-5.22a32.73,32.73,0,0,1,3.87-1c18.35-2.84,20.72,2.69,20.73,16.28,0,4.61,1.07,9.21,1.18,13.82a8.59,8.59,0,0,1-1.88,5.65c-.74.78-3.59.42-4.9-.38-2.26-1.4-3.89-1.38-6.31-.21-4.46,2.15-9.31,2.59-13.69-.33s-4.06-7.78-3.23-12.21c1-5.33,5.3-7.34,10.06-8.36C580,836.4,582.5,836.33,584.92,836.06Zm2.21,11.4c-2-2-3.49-3.91-3.93-3.71a34.67,34.67,0,0,0-5.4,3.8c1.13,1.27,2.4,3.66,3.38,3.55C582.93,850.89,584.5,849.18,587.13,847.46Z" transform="translate(-238.76 -805.14)"/>
    <path d="M487.71,859.17c-10.38,0-16.19-6.49-16.17-18.06,0-12.3,5.75-19.33,15.85-19.46,10.68-.14,16.17,6.45,16.12,19.34C503.47,853.26,498.33,859.17,487.71,859.17Zm4.78-18.67-.25,0c0-1.48.5-3.22-.11-4.4a42.88,42.88,0,0,0-4.35-6c-1.55,1.87-4.11,3.59-4.44,5.66a37.05,37.05,0,0,0,.41,11.78c.23,1.43,2.4,3.48,3.73,3.51s3.46-1.79,4-3.27C492.39,845.57,492.22,843,492.49,840.5Z" transform="translate(-238.76 -805.14)"/>
    <path d="M413,859.17c-9.68,1.44-15.67-6.78-15.48-19,.18-10.8,6-18.4,14.7-18.47,11.38-.09,17.18,6.74,17.15,20.22C429.31,853.08,423.54,859.17,413,859.17ZM418.75,841c-.48-2.69-.48-5.16-1.43-7.19-.72-1.54-2.64-3.46-4.05-3.48s-3.73,2.17-3.83,3.51a89.88,89.88,0,0,0,.32,14.67c.09,1,2,2.62,3,2.59a5.13,5.13,0,0,0,3.92-2.28C417.83,846.26,418.16,843.4,418.75,841Z" transform="translate(-238.76 -805.14)"/>
    <path d="M677.46,844c.7,5.58,3.28,7.35,7.28,7.22,1.8,0,3.65-1.09,5.36-.84s4,1.25,4.39,2.48-.67,3.94-1.88,4.64c-12.53,7.24-25,.52-25.79-13.8a57.1,57.1,0,0,1,.44-9c.59-5.76,3.39-10.51,8.9-12.14s11.3-1.82,15.87,2.87,5.18,10.32,4,16.25c-.19,1-2.66,2.08-4.14,2.17C687.31,844.21,682.7,844,677.46,844Zm8.9-7.88c0-3.87-1-6.39-4.67-6.11s-4.5,2.64-3.84,6.11Z" transform="translate(-238.76 -805.14)"/>
    <path d="M739,843.83c.07,5.62,2,7.69,6.38,7.51,1.64-.07,3.34-1.1,4.86-.84,1.77.31,4.11,1.16,4.83,2.51.54,1-.64,3.94-1.87,4.71-10.79,6.78-24.39.26-25.56-12.34a37,37,0,0,1,.85-12.82c2.41-9,10.83-13,19.67-10.08,7,2.34,11.09,11.41,8.4,19.1-.36,1-2.38,2.07-3.69,2.15C748.27,844,743.63,843.83,739,843.83Zm8-7.65,1.13-1.76c-1.91-1.47-3.79-4.11-5.74-4.16-2.87-.07-4.19,2.54-3.29,5.92Z" transform="translate(-238.76 -805.14)"/>
    <path d="M723.27,822.53c1.54,7,1.49,6.88-4.77,8.17-1.19.24-2.72,2.2-2.85,3.49a97.87,97.87,0,0,0,0,11c0,3.09.73,5.36,4.61,5.78,1.17.13,2.74,2.75,2.84,4.31.08,1.09-1.95,3.24-3.18,3.35-9.42.78-14.78,2.26-15-11.37-.07-3.5-.23-7,0-10.49.25-4-.26-7.06-5.61-6.56v-7.4l4.67-.85c3.4-10.6,3.4-10.6,11.27-9.41.22,3,.45,6.06.71,9.41Z" transform="translate(-238.76 -805.14)"/>
    <path d="M615.11,827.46c3.39-4.61,7.79-6.06,13.37-4.72-.88,4.89-.52,10.07-7.79,10.63-1.54.12-3.79,4-4,6.29-.55,6.24-.19,12.56-.19,19.17H605.57c0-3.66.21-7.28,0-10.86-.46-6.42-1.39-12.82-1.7-19.25-.09-1.87.77-4.46,2.12-5.5,1-.79,3.68,0,5.34.76C612.7,824.61,613.71,826.13,615.11,827.46Z" transform="translate(-238.76 -805.14)"/>
    <path d="M764.82,858.88c0-6.08.17-12-.07-18-.14-3.78-1.17-7.53-1.26-11.31,0-2.16.43-4.8,1.73-6.32.66-.75,3.78.27,5.6,1,1.27.49,2.22,1.83,3.65,3.09,3.29-4.36,7.35-6.29,12.58-4.34.75,6.58-.5,8.06-6.15,10.06-2,.7-4.33,3.29-4.64,5.3a66.18,66.18,0,0,0-.43,14.89c.37,5-1.51,6.63-6.19,5.92C768.35,859,767,859,764.82,858.88Z" transform="translate(-238.76 -805.14)"/>
    <path d="M316.58,834.55c-3.08-3.41-6.22-6.78-9.24-10.27-1.4-1.61-3.13-3.29-3.65-5.22a6.08,6.08,0,0,1,1.43-5.1c.77-.75,3.76-.5,4.69.41q8.73,8.52,16.85,17.65c.75.84.67,3.59-.12,4.46-5.15,5.65-10.45,11.17-16.06,16.34-1.25,1.16-3.93.75-6,1.07.08-2.23-.71-5.11.39-6.55C308.3,842.9,312.41,839,316.58,834.55Z" transform="translate(-238.76 -805.14)"/>
    <path d="M238.76,835c7.68-7.79,13.73-14.18,20.14-20.2,1-1,3.62-.23,5.48-.28.06,1.92.92,4.45,0,5.64-3.79,5-8.11,9.61-12.2,14.31,4,4.27,7.71,8.29,11.51,12.18,2.37,2.41,3.17,5.17.31,7.18-1.15.8-4.42,0-5.79-1.17C251.67,847,245.42,841.07,238.76,835Z" transform="translate(-238.76 -805.14)"/>
    <path d="M273,851c2-5.19,3.55-9.58,5.35-13.86,3-7.21,6.06-14.42,9.47-21.45.6-1.23,3.77-2.61,4.45-2.12,1.42,1,3.15,3.71,2.69,4.91-4.43,11.47-9.2,22.81-14.15,34.07-.52,1.2-3.09,2.51-4.24,2.17C275.05,854.28,274,852.23,273,851Z" transform="translate(-238.76 -805.14)"/>
  </g>
</svg>
