<svg id="Layer_1" data-name="Layer 1" xmlns="http://www.w3.org/2000/svg" width="890.91" height="87.75" viewBox="0 0 890.91 87.75">
  <g>
    <path d="M319,362.76c-.49,4.14-1.17,8.28-1.42,12.44q-1.06,18.21-1.81,36.43c-.18,4.51-2.24,5.77-6.61,5.65-9.81-.28-9.78-.06-9.09-9.94,1.51-21.77,3.12-43.53,4.39-65.32.27-4.61,2-6.14,6.41-5.85,4.14.27,8.32.15,12.49,0,3.48-.1,5.4,1,6.18,4.8,2.45,12.05,5.29,24,8.08,36a15.38,15.38,0,0,0,3.23,6.64c2.2-9.79,4.37-19.6,6.63-29.38a138.9,138.9,0,0,1,3.82-14.45,6.17,6.17,0,0,1,4.32-3.41c5-.44,10-.09,15-.19,3.6-.07,5.08,1.72,5.3,5.13,1.49,23.45,3,46.89,4.61,70.33.31,4.47-1.32,5.7-5.68,5.6-10.41-.23-10.36,0-10.87-10.33q-1-20-2.12-39.94c-.09-1.56-.36-3.11-.55-4.66l-1.32-.17c-2,8-4,15.93-6.1,23.88-1.3,5-3,9.87-4.09,14.89-.73,3.24-2.63,4.42-5.58,4.59a50.41,50.41,0,0,1-5.49.16c-6.49-.3-7.83-1.45-9.43-7.9q-4-16.2-8.06-32.41c-.23-.9-.61-1.76-.92-2.64Z" transform="translate(139.77 -329.96)"/>
    <path d="M96.13,382c4.87,10.21,9.36,19.41,13.61,28.71,1.16,2.55-2.1,5.88-5.87,6.42-8.43,1.2-12.13-1.05-15-9.21-1.43-4.06-2.78-8.16-4.24-12.21a12.08,12.08,0,0,0-8.66-8.1c-4.21-1.22-5.67.18-5.7,4.07-.06,6.83-.14,13.66,0,20.48.08,3.55-1.08,5.16-4.86,5.08-16.28-.38-14,2.38-14-13.45,0-20.48.42-41,.4-61.44,0-4.36,1.4-5.95,5.72-5.79,9.47.35,19,.24,28.42.64,10.42.44,17.51,6.07,20.62,15.84,2.71,8.52-.61,20.69-7.16,26.18Zm-25.9-20.63c0,2.49.14,5,0,7.46-.29,4,1.35,5.54,5.29,4.63,2.57-.6,5.39-.7,7.67-1.86,2-1,4.34-2.94,5-5,3-9.2-1.4-15.72-11-16.92-6.8-.85-6.9-.77-6.91,6.19C70.22,357.71,70.22,359.53,70.23,361.35Z" transform="translate(139.77 -329.96)"/>
    <path d="M178.51,372.53c0-12.35.13-24.69-.08-37-.07-4.2,1.46-5.58,5.54-5.45,8.5.29,10.55,2.11,10.84,10.65.17,5,.18,10,.31,15,.08,3.34,1.46,4.29,4.84,3.22,14-4.46,24.38,1.84,27.41,16.17,2,9.51,2.7,18.89-2,27.77s-11.71,14.88-22.55,14.28c-6.43-.35-12.86-1-19.28-1.55-4.35-.39-5.1-3.21-5.05-7C178.61,396.54,178.51,384.53,178.51,372.53Zm16.37,16.78.41,0c0,1.66,0,3.33,0,5s.09,3.34.27,5c.52,5,3.83,6.95,8.19,4.46,2-1.16,4.58-3.34,4.8-5.3a143.46,143.46,0,0,0,.77-20.73c-.11-3.93-3.17-5.6-7-5.51a6.27,6.27,0,0,0-6.54,5.67C195.16,381.66,195.15,385.5,194.88,389.31Z" transform="translate(139.77 -329.96)"/>
    <path d="M520.16,378.92a31.66,31.66,0,0,1,1.67-4.68c1.48-2.79,3.49-5.32,4.75-8.19,3.12-7.15,8.73-8.91,15.87-8.19,3.27.33,4.84,1.39,3.15,4.7-2.86,5.62-5.56,11.34-8.87,16.68-1.63,2.62-1.24,4,.19,6.51,4.51,8.07,8.44,16.47,12.44,24.81a3.42,3.42,0,0,1-.72,3c-4.1,4.27-13.42,6.44-17.16-1.5-1.63-3.45-3-7-4.51-10.52-.59-1.36-.92-3-1.93-4a54.28,54.28,0,0,0-6.15-4.39c-.76,2.18-2,4.33-2.18,6.56-.34,4.48-.16,9-.1,13.5,0,2.64-.9,4-3.78,3.93-16.2-.19-13.72,2-13.8-12.62q-.19-33.26,0-66.53c0-2.92-1.81-7.12,3.52-7.88,6.34-.89,11.44,1.41,12.64,6.23a44,44,0,0,1,1,9.4c.27,8.67.33,17.34.56,26a43.39,43.39,0,0,0,.71,5.17Z" transform="translate(139.77 -329.96)"/>
    <path d="M417.59,357.06c3,.31,6,.39,8.93.95,7.51,1.45,12,7.27,12.55,16.43.32,5.31-.07,10.67.34,16a98.82,98.82,0,0,0,2.33,16.2c1,4.09-.25,7.45-3.06,9.21-1.88,1.17-6.08.81-7.94-.59-4.55-3.44-8-1.41-12.17.38-6.4,2.72-13.29,3-19.55-.41-8-4.43-7.73-12.23-6.64-19.81,1.05-7.27,6.28-11.13,12.83-13.08,3.61-1.07,7.53-1.05,11.25-1.83,1.71-.36,3.25-1.48,4.87-2.25-1.32-2.06-2.48-5.71-4-5.87a48.75,48.75,0,0,0-14.19.82c-5,1-6.74.42-8.46-4.75-1.45-4.33-.19-7.26,4.26-8.33,6.1-1.47,12.34-2.44,18.51-3.62C417.5,356.68,417.55,356.87,417.59,357.06Zm.08,34.92c-5.28.07-8.68,2.77-8.53,7,.12,3.74,1.86,5.87,5.94,5.66,4.6-.23,6.77-2.66,6.81-8C421.91,393.8,421.18,391.65,417.67,392Z" transform="translate(139.77 -329.96)"/>
    <path d="M262.23,417.18c-16.22,0-25.61-9.5-25.87-27.62a57,57,0,0,1,3.75-19.89c3.28-9,13.6-13.88,24.3-12.91,14,1.28,21.86,8.65,23.32,22.67a65.33,65.33,0,0,1-.15,17.89C285.25,410.42,276.11,417.18,262.23,417.18Zm8.35-29.94-.82-.1c0-3,.93-6.42-.23-8.87-1.48-3.13-4.32-7.24-7.14-7.73-3.83-.66-6.93,3.32-7,7.48a138.18,138.18,0,0,0,.83,21.34c.24,1.95,3.56,4.72,5.65,4.89s5.6-2,6.35-3.95C269.72,396.24,269.86,391.63,270.58,387.24Z" transform="translate(139.77 -329.96)"/>
    <path d="M141.1,417.18c-14.78,0-22.26-6.11-24.65-20.83-2-12-1.24-23.08,7.57-33.11,10.4-11.86,36.78-6.34,41,9.05,2.59,9.49,3.66,19,.63,28.5C161.77,412.81,154.85,417.18,141.1,417.18Zm-8.4-30.11c.9,4.41,1.33,8.75,2.78,12.73.71,1.93,3.29,4.4,5.05,4.42,2.17,0,5.51-1.73,6.36-3.61a31.79,31.79,0,0,0,.2-26.59c-.82-1.88-4.12-3.65-6.29-3.66-1.79,0-4.48,2.3-5.21,4.19C134.08,378.49,133.61,382.83,132.7,387.07Z" transform="translate(139.77 -329.96)"/>
    <path d="M679.05,416.85c-17,.33-24.93-7.17-26.07-24.49-.61-9.4-.3-18.66,5.82-26.65,5.62-7.35,13.28-9.71,22-8.79,8.2.86,15.79,4,18.09,12.53,1.73,6.4,1.32,13.41,1.39,20.16,0,.89-2.72,2.52-4.25,2.61-6.64.37-13.3.26-20,.39-4.91.09-6.3,2.67-3.87,7s7.74,6.05,13.61,4.62c1.61-.39,3.19-.94,4.78-1.42,4.12-1.23,6.54.18,7.91,4.37s-.54,6.31-3.9,7.87a14.12,14.12,0,0,1-4.65,1.72C686.37,417,682.7,416.85,679.05,416.85Zm7.11-36.41c-1.12-3.22-1.59-5.31-2.56-7.14-1.46-2.77-4.2-4.56-7-3-2.26,1.31-3.86,4.06-5.18,6.48-.3.55,1.61,3.3,2.71,3.45C677.7,380.73,681.34,380.44,686.16,380.44Z" transform="translate(139.77 -329.96)"/>
    <path d="M587.28,392.88c-4,0-8-.24-12,.06-3.62.28-4.37,2.42-2.71,5.61,2.48,4.79,6.56,6.43,11.62,5.88a39.27,39.27,0,0,0,7.78-1.68c4.39-1.42,6.63.74,8,4.46,1.47,4.06-.71,6.15-4.18,7.67-8.65,3.78-17.86,3.07-26.55,1.74-6.74-1-11.47-7.24-13.31-13.77-3.07-10.89-3.21-22.18,1.27-32.79C562,358.82,571.76,355,586.07,357.7c8.58,1.66,15.64,10.75,16.27,20.95C603.2,392.6,603.2,392.6,587.28,392.88Zm-8.66-12.13c2.51-1.37,7.28,1.91,7.56-3.77.17-3.51-3.44-6.93-6.92-7a7.16,7.16,0,0,0-7.55,6.86C571.57,382.49,576.11,379.62,578.62,380.75Z" transform="translate(139.77 -329.96)"/>
    <path d="M647.38,357.69c0,3.37-.13,6,0,8.61.21,3.42-1.18,4.88-4.65,4.72-11.15-.52-9.33,1.06-9.33,9.6,0,5.64.45,11.29.57,16.94.08,3.93,2,5.86,5.86,5.74,5.5-.17,5.92,3.83,6.37,7.69.5,4.29-3,5-5.82,5.31a81.89,81.89,0,0,1-14.43.49c-5-.31-9.14-5.8-9.44-12.5-.38-9-.46-18-.3-27,.08-4.24-.8-6.81-5.67-6.38-2.89.25-4.34-1.17-4.14-4.18a30.79,30.79,0,0,0,0-5c-.3-3,1-4.4,4-4,4.16.47,5.83-1,5.93-5.5.23-9.89,4.39-12.93,14.25-10.88,1.1.23,2.49,2,2.65,3.25a48.82,48.82,0,0,1,.13,9c-.14,3,1.13,4.24,4.1,4.14S643.68,357.69,647.38,357.69Z" transform="translate(139.77 -329.96)"/>
    <path d="M470.17,366.18c6.18-8.12,11.27-9.58,22.31-7.53-1.38,4.43-2.42,8.93-4.29,13.05-.63,1.4-3.31,2.39-5.16,2.6-8.07.94-10.78,3.71-10.87,11.91-.09,8.82-.23,17.64-.15,26.45,0,3.41-1.19,4.57-4.67,4.59-11.61.1-11.7.24-12.44-11.43-.43-6.79-.28-13.64-.84-20.42a134.46,134.46,0,0,0-2.53-16.57c-.81-3.82-.2-6.93,2.68-9.5s6.05-1.35,8.68.47A82.47,82.47,0,0,1,470.17,366.18Z" transform="translate(139.77 -329.96)"/>
    <path d="M730.18,366.47c1.21-1.67,2.2-3,3.17-4.37,4.07-5.71,10-4.09,15.51-3.84a2.71,2.71,0,0,1,1.82,1.36c2.14,4.15-3.64,14.35-8.32,14.8-7.4.7-10,3.22-10.25,10.64-.33,9-.46,17.95-.49,26.93,0,3.72-1.21,5.27-5.23,5.27-11.94,0-11.95.16-12.2-11.66-.17-8.14,0-16.31-.56-24.44A48.4,48.4,0,0,0,711,368.61c-1.31-3.77-.35-6.45,2.31-8.9s5.8-2.28,8.62-.2C724.39,361.36,726.67,363.5,730.18,366.47Z" transform="translate(139.77 -329.96)"/>
    <path d="M-39,403.71c1.81-2.85,2.92-5.33,4.67-7.22C-29.21,391-24,385.6-18.56,380.54c2.45-2.25,2.14-3.57.15-5.65-4.7-4.93-9.37-9.9-13.86-15a38.32,38.32,0,0,1-5.37-7.71,5.7,5.7,0,0,1,2.79-8.06c2.05-.91,6-.67,7.46.75,9.76,9.5,19.14,19.39,28.43,29.36.88.94,1,4,.18,4.89C-8.33,389-18,398.87-28,408.4c-1.37,1.31-4.82,1.73-6.6,1S-37.47,405.77-39,403.71Z" transform="translate(139.77 -329.96)"/>
    <path d="M-97.82,349.58c-1.88,2.68-3.21,4.95-4.91,6.9-5.34,6.14-10.75,12.23-16.28,18.2-2.42,2.61-1.88,3.76.79,6.18,6.37,5.78,12.13,12.25,18,18.59,3.18,3.43,1,6.5-1.34,9.23s-5.19,2.05-7.42-.12q-15.32-14.94-30.32-30.21c-.74-.76-.55-3.69.29-4.53,9.85-9.9,19.83-19.68,30-29.23,1.2-1.13,4.28-1.61,5.67-.86C-101.23,344.86-99.83,347.33-97.82,349.58Z" transform="translate(139.77 -329.96)"/>
    <path d="M-87.39,404.6c2.49-6.53,4.44-12.18,6.76-17.67,5.56-13.16,11.16-26.3,17-39.33,2.81-6.29,8.39-6.5,11.94-.53a6.48,6.48,0,0,1,.26,5c-6.46,16-13.09,31.94-19.73,47.87-1.09,2.6-2,5.54-3.85,7.46-1.56,1.62-4.74,3.11-6.63,2.58C-83.86,409.38-85.46,406.54-87.39,404.6Z" transform="translate(139.77 -329.96)"/>
  </g>
</svg>
