<svg id="Layer_1" data-name="Layer 1" xmlns="http://www.w3.org/2000/svg" width="1163.66" height="257.42" viewBox="0 0 1163.66 257.42">
  <g>
    <path d="M-1047.39,373c-19.2,42.92-73.19,42.15-92.72-.59-2.71,1.91-5.36,3.78-8,5.66a22.4,22.4,0,0,1-16,4.36c-9.89-1.15-16-9.28-14.13-19.12a75.31,75.31,0,0,1,18.35-37.09c.89-1,1.79-2,2.65-3a7.09,7.09,0,0,0,.55-1.41c-1.73-1-3.5-2.1-5.35-3.05-10.93-5.64-16.57-14.46-16.5-26.88.07-11.82-.11-23.65,0-35.48.25-25.93,13.56-43.5,38.8-50,11.85-3.07,24-4.91,36.13-6.87,3.42-.56,4.49-1.77,4.57-5,.11-4.89-.53-8.48-5.73-11.3-8-4.34-10.64-13.83-7.78-22.65s10-13.44,20.51-13.13a18.8,18.8,0,0,1,17.41,14c2.33,9.07-1.07,17.67-8.86,22.44-4.75,2.9-6.79,8-4.74,13.05.48,1.2,2.69,2.26,4.19,2.4,14.45,1.36,28.62,4,42.26,9,20.67,7.64,32.52,24.44,32.75,46.52.12,11.83-.17,23.66,0,35.48.2,13.79-5.41,23.7-18.35,29.14a25.55,25.55,0,0,0-3.69,2.43c3,3.86,6,7.42,8.74,11.09,6.62,8.79,10.42,18.74,12.74,29.49,3.51,16.25-12.22,23.17-22.89,18.94C-1037.63,379.38-1042.26,376-1047.39,373Zm6-152.94a10.83,10.83,0,0,0-1.35,2c-.66,2-1.29,4.12-1.8,6.21-2.87,11.78-2.91,11.92,8.6,16,5.29,1.88,7.73,5.11,7.63,10.77-.18,9.82-.91,19.75.23,29.44,1.37,11.72-3.92,17.78-14,21.26-.47.16-.92.39-1.38.58-21.71,8.95-44.28,11.53-67.47,8.76-15.13-1.8-29.56-6-42.78-13.91-3.63-2.16-5.64-5-5.64-9.26,0-12.49,0-25,0-37.47,0-4.84,2.19-8.23,6.9-9.84a81.85,81.85,0,0,0,8.88-3.27c1.22-.58,2.94-2.37,2.76-3.29-1.16-5.94-2.78-11.8-4.33-18a20.8,20.8,0,0,0-3.09,1.15c-12.08,7.37-19,17.95-19.3,32.28-.25,12.32.24,24.66-.16,37-.29,9.2,3.76,15.12,11.73,19a140.57,140.57,0,0,0,63.61,14.15,139.23,139.23,0,0,0,61-14.36c5.69-2.8,10.81-6.72,10.9-13.73.23-16,.88-32-.37-47.88C-1021.79,234.93-1029.89,226-1041.38,220.06Zm-51.77-11.18-36,5.49c-4.38.67-6.55,2.43-4.59,7.36a64.16,64.16,0,0,1,3.09,11.5c.69,3.49,2.46,4.56,5.89,4.13,6.59-.83,13.23-2,19.83-1.92,13.76.21,27.53,1,41.27,1.91,4,.27,6.21-.53,7-4.72a106.48,106.48,0,0,1,3.09-12c1.11-3.55,0-5.33-3.63-5.9C-1069.25,212.78-1081.32,210.8-1093.15,208.88Zm25.71,144.88c-18.18,5.35-35,4.53-52.41.06.39,2.6.35,4.3.92,5.77,3.54,9.24,7.27,18.42,10.84,27.66,2.62,6.77,8.2,8,14.49,8,6.12,0,11.48-1.26,14.14-7.79,2.8-6.89,6.12-13.58,8.78-20.52C-1069.24,363.18-1068.71,359.07-1067.44,353.76Zm-26.78.33c7.65-1.35,15.14-2.62,22.61-4,3-.56,4.65-2.27,4.11-5.6-.42-2.61-.66-5.24-1-7.86-.39-3-2.17-3.35-4.93-3.31-13.55.17-27.12.14-40.68,0-2.5,0-4.2.3-4.74,3-.43,2.11-1.05,4.18-1.44,6.3-.76,4.09.7,6.81,5,7.61Zm-20.26,34.73,1.25-.95a37.62,37.62,0,0,0-1.38-3.95c-7.45-15.39-12.41-31.2-8.66-48.6.21-1-.1-3-.56-3.13-3.3-.92-6.73-2-10.05-1.81-1,.06-2.39,4-2.59,6.22-1.35,15.76,3.35,29.89,12.55,42.52C-1121.29,382.73-1117.65,385.61-1114.48,388.82Zm-16.38-100.37c7.53,0,13.08-5.64,13.17-13.28.08-7.48-5.63-13.12-13.26-13.08a13.52,13.52,0,0,0-13.4,13.24A13.35,13.35,0,0,0-1130.86,288.45Zm86-12a13.39,13.39,0,0,0-13.07-13.07c-7-.05-13.52,6.37-13.61,13.32s6.23,13.5,13.28,13.58A13.49,13.49,0,0,0-1044.84,276.42Zm-29.39,111.47c1,0,1.33.12,1.55,0,14.3-8.72,26-39.07,20.86-54.93-.41-1.26-2.69-2.37-4.27-2.67s-3.19.67-4.82,1c-2.91.51-3.76,1.85-3,4.91a46.64,46.64,0,0,1,1.25,10.86c0,12.72-3.8,24.51-9.32,35.84C-1072.78,384.41-1073.41,386-1074.23,387.89Zm34.15-59.2c-.59,1.39-1.4,2.35-1.23,3.08,2.08,9.18.42,18.11-1.39,27.08-.27,1.38.67,3,1.23,5.21,5.76-4.8,10.62-8.78,15.37-12.89.74-.65,1.58-2.26,1.27-2.86C-1028.6,341-1032.9,334-1040.08,328.69Zm-107.4,0c-7.23,5.6-11.5,12.23-14.94,19.4-.41.86.79,3,1.81,3.93,3.19,2.89,6.61,5.53,10,8.16a52.4,52.4,0,0,0,4.66,2.87c.33-2,1-4,.92-5.92-.44-8.38-1.11-16.76-1.73-25.13A32,32,0,0,0-1147.48,328.7Zm61.92-161.4a8.38,8.38,0,0,0-8.25-8.78,8.57,8.57,0,0,0-8.28,8.35,8.46,8.46,0,0,0,8.14,8.4A8.06,8.06,0,0,0-1085.56,167.3Zm-79.38,185.94c-1.25,4.35-2.11,7.15-2.85,10-1.7,6.53,1.29,10.29,7.87,9,3.37-.67,6.4-3.09,10.85-5.37C-1154.91,361.83-1159.37,358-1164.94,353.24Zm127,13.31c3.19,2.17,5.15,4.4,7.48,4.88,3,.6,6.9.77,9.22-.72,1.59-1,1.64-5.24,1.48-8s-1.45-5.27-2.69-9.39Z" transform="translate(1200.7 -147.41)"/>
    <path d="M-555.74,244.56h40.84v88.8h-25.43V270.07l-.46-.14c-2.27,8.22-4.38,16.49-6.86,24.65-3.61,11.91-7.56,23.72-11.22,35.62-.81,2.66-2.12,3.74-5,3.61-4.49-.21-9-.21-13.49,0-3.16.15-4.66-.88-5.62-4.08-5.42-18.12-11.11-36.17-16.71-54.23-.42-1.37-.9-2.72-1.69-5.08v63h-25.75V244.61h41c5.11,18.28,10.28,36.78,15.27,54.66C-566,281.55-560.83,263-555.74,244.56Z" transform="translate(1200.7 -147.41)"/>
    <path d="M-957.09,245.25c17.19,0,33.94-1.26,50.41.33,19.41,1.87,30,19.2,25,37.81-1.75,6.58-4.43,9.85-14.45,17.47,3,5.28,5.93,10.61,8.94,15.92s6.08,10.62,9.67,16.89c-9.45,0-18,.13-26.53-.14-1.15,0-2.55-1.91-3.31-3.23-4.15-7.2-8.56-14.3-12-21.82-2.37-5.14-6.31-4.31-10-3.63-1,.2-1.88,4-2,6.12-.24,7.3-.09,14.61-.09,22.35h-25.75ZM-931,285.13c5.24,0,10.23.48,15.09-.12,5.48-.68,8.31-4.36,8.47-9.45.19-5.76-2-9.39-7.68-10.52-5.08-1-10.4-.8-15.88-1.14Z" transform="translate(1200.7 -147.41)"/>
    <path d="M-790.66,244.51h25.07v32c4.09-3,7.53-6.51,11.72-8.31,12.62-5.39,27.62,1.18,33.34,14.68a44.44,44.44,0,0,1-.37,36.39c-5.61,12.57-20.13,18.77-32.57,13.93-4.4-1.71-8-5.32-11.92-8v8h-25.27Zm47.4,56.1a70.46,70.46,0,0,0-1.2-7c-1.56-5.64-4.71-8.27-9.71-8.39-5.3-.14-9.44,2.27-10.47,8a42.41,42.41,0,0,0,.24,15.6c.94,4.74,5,7.47,10,7.42s8.31-3.1,9.73-7.84A67.1,67.1,0,0,0-743.26,300.61Z" transform="translate(1200.7 -147.41)"/>
    <path d="M-338.64,310.56c-6.93,7.06-2.1,15.37-4.41,22.81h-24.79V244.62h25.2v44l1.23.47c4.55-5.78,9.38-11.37,13.55-17.41,2.41-3.48,5.08-4.57,9.13-4.4,7.29.3,14.61.09,23.23.09l-24.1,29.17,24.65,37.05c-10,0-19.06.1-28.09-.13-1,0-2.25-1.77-3-3C-330.17,324.13-334.18,317.66-338.64,310.56Z" transform="translate(1200.7 -147.41)"/>
    <path d="M-437.68,333.45h-24c-.26-2.69-.49-5.1-.79-8.25-8.73,10.75-19.61,11.23-31.07,7.92-7.12-2.06-11.46-7-12.25-14.74-.82-8.07.9-15.41,8.59-19.1,5.39-2.59,11.61-3.56,17.55-4.9,4-.91,8.27-.9,12.25-1.93,1.52-.39,3.7-2.61,3.6-3.84a6.88,6.88,0,0,0-3.43-4.66c-4.28-2.18-9.49-.59-12.55,3-.74.88-2,2-2.89,2-6.92-.43-13.83-1.13-21-1.77,2-10.26,8.45-15.74,17.37-18.49a51.57,51.57,0,0,1,32.84.62c11,3.87,15.85,10.85,15.85,22.56C-437.68,305.51-437.68,319.14-437.68,333.45Zm-26.24-28.18c-4.63,1.06-9.49,1.58-13.79,3.4-1.9.81-3.77,4.33-3.62,6.47.12,1.54,3.47,3.83,5.59,4.09C-466.62,320.34-462,314.83-463.92,305.27Z" transform="translate(1200.7 -147.41)"/>
    <path d="M-800.54,301c0,23.13-17.94,36.12-41.55,33.75-17.84-1.8-28.83-11.24-31.52-25.6-4.93-26.29,12.13-45.27,41-42.38C-811.68,268.9-800.48,281.53-800.54,301Zm-25.5,0c-.93-3.71-1-7.77-2.92-10.57s-5.59-5.46-8.5-5.47-7.09,2.71-8.53,5.4a21.22,21.22,0,0,0,.25,21c1.43,2.52,5.22,4.37,8.28,5.1,3.65.87,6.89-1.43,8.34-4.95C-827.74,308.22-827.06,304.62-826,301.05Z" transform="translate(1200.7 -147.41)"/>
    <path d="M-636.13,300.77c0,23.54-18.27,36.18-41.61,34.05-14.71-1.33-26.61-7.7-30.72-22.8-7.46-27.47,10.13-48.23,40.24-45.2,17.47,1.77,27.64,10.57,31,25.05A82.23,82.23,0,0,1-636.13,300.77Zm-48.39-.34c1,3.81,1.12,8,3.08,10.94,1.64,2.5,5.39,5,8.21,5a11.19,11.19,0,0,0,8.28-4.87,22.34,22.34,0,0,0,.16-21.53c-3.61-7.15-13.07-7.15-16.77,0C-683.18,293-683.54,296.8-684.52,300.43Z" transform="translate(1200.7 -147.41)"/>
    <path d="M-223.77,306.29h-46c-.29,5.25,1.77,8.89,6.17,10.72,5.09,2.14,10.45,1.89,14.41-2.14,2.15-2.18,3.79-2.35,6.42-2,5.87.82,11.8,1.25,18.16,1.88-3.13,10-10.09,15.23-19,18.05a48.06,48.06,0,0,1-27.56.57c-15.76-4.28-25-17.14-24.23-34s11.17-29.13,27-32c11-2,21.69-1.06,31.14,5.36C-225.7,280.61-223,292.44-223.77,306.29ZM-248.56,293c-.58-6.58-4.7-10-11.07-9.6-6.07.37-9.61,3.87-9.54,9.6Z" transform="translate(1200.7 -147.41)"/>
    <path d="M-94.83,306.24h-45.64c-.26,5.3,1.77,8.95,6.18,10.77,5.07,2.09,10.35,1.92,14.39-2.13,2.09-2.1,3.77-2.4,6.47-2,5.73.84,11.53,1.2,19.11,1.94-3,4.32-4.92,8.38-8,11.21-13.36,12.37-40.68,12.17-53.84-.35-10.59-10.07-11.78-22.87-8.19-36,3.47-12.7,12.77-20.34,25.63-22.1a58.81,58.81,0,0,1,22.08,1.14C-103.81,272-92.53,283.76-94.83,306.24ZM-119,293c-.77-6.33-4.38-9.53-10.55-9.55s-9.77,3.25-10.65,9.55Z" transform="translate(1200.7 -147.41)"/>
    <path d="M-209.95,251.57h25.5v15.76h12.57v17.81h-12.38c0,9.29-.21,18.07.21,26.83.07,1.49,2.63,3.44,4.44,4.12s4.23.16,7.05.16l2.41,16.7c-9.73,1.81-18.89,2.54-28-.39-7.31-2.36-11.24-7.67-11.54-15.24-.33-8.48-.17-17-.22-25.47,0-2,0-3.94,0-6.46h-9.4V267.66l9.33-.54Z" transform="translate(1200.7 -147.41)"/>
    <path d="M-59.56,333.72c-8.13,0-15.61.1-23.08-.12a3.72,3.72,0,0,1-2.6-2.58c-.15-21-.12-41.92-.12-63.25h24.61v10.68l1,1.07c4-11.42,12-14.09,22.75-11.81V287.1c-2.73,0-5.49,0-8.24,0-9.42-.07-14.2,4.54-14.26,13.93C-59.61,311.67-59.56,322.31-59.56,333.72Z" transform="translate(1200.7 -147.41)"/>
    <path d="M-425.5,333.44V267.75h24.55V277.8c3.37-3.28,6.09-7.36,9.89-9.22s8.52-1.35,13.14-1.93c.2,2,.34,2.75.34,3.55,0,5.47,0,10.95,0,16.9h-8.52c-9,0-13.69,4.24-13.95,13.22-.26,9.32-.06,18.66-.09,28,0,1.62-.19,3.24-.31,5.15Z" transform="translate(1200.7 -147.41)"/>
    <path d="M-1183.6,266.81c0,6-.08,12,0,18,.06,3.63-1.35,4.55-4.92,3.92-10.54-1.86-12.13-3.54-12.17-14.3,0-6.49-.12-13,.08-19.47s9.1-12.22,15-9.63c1,.44,1.79,2.61,1.84,4C-1183.49,255.15-1183.6,261-1183.6,266.81Z" transform="translate(1200.7 -147.41)"/>
    <path d="M-986.74,267c0,4,.2,8,0,12-.4,6.13-9.68,12.16-15.16,9.81-1-.42-1.77-2.36-1.78-3.61-.13-12.14,0-24.28-.08-36.42,0-3.13,1.41-3.89,4.37-3.66,9.52.76,12.61,3.88,12.75,13.43,0,2.83,0,5.66,0,8.49Z" transform="translate(1200.7 -147.41)"/>
    <path d="M-1093.49,371.26c-3.81,0-7.64.13-11.44-.1-1-.05-1.84-1.27-2.76-2,1-.64,1.88-1.82,2.84-1.84q11.68-.23,23.39,0c.94,0,1.86,1.24,2.79,1.9-1,.66-1.88,1.85-2.87,1.9C-1085.51,371.39-1089.5,371.26-1093.49,371.26Z" transform="translate(1200.7 -147.41)"/>
  </g>
</svg>
