<svg width="66" height="66" viewBox="0 0 66 66" fill="none" xmlns="http://www.w3.org/2000/svg">
									<path d="M62.9682 22.0244C62.3234 22.0236 61.7053 21.7673 61.249 21.3116C60.7928 20.856 60.5357 20.2382 60.534 19.5934V12.9472C60.5348 10.9396 59.7395 9.01363 58.3224 7.59163C56.9052 6.16963 54.982 5.36769 52.9745 5.36166H43.075C42.7408 5.38612 42.4051 5.34141 42.089 5.23032C41.7729 5.11923 41.483 4.94415 41.2376 4.71602C40.9921 4.48789 40.7964 4.21161 40.6625 3.90442C40.5287 3.59724 40.4596 3.26575 40.4596 2.93066C40.4596 2.59558 40.5287 2.26409 40.6625 1.95691C40.7964 1.64972 40.9921 1.37344 41.2376 1.14531C41.483 0.917174 41.7729 0.742097 42.089 0.631009C42.4051 0.519922 42.7408 0.475209 43.075 0.499664H53.072C56.3732 0.506073 59.5366 1.8236 61.8665 4.16241C63.0298 5.30856 63.9509 6.67682 64.5751 8.18591C65.1992 9.695 65.5138 11.3141 65.5 12.9472V19.5934C65.504 19.9224 65.4405 20.2487 65.3133 20.5521C65.1862 20.8555 64.9982 21.1297 64.7609 21.3575C64.5236 21.5854 64.242 21.7621 63.9337 21.8768C63.6253 21.9916 63.2967 22.0418 62.9682 22.0244ZM2.93421 22.0244C2.28944 22.0236 1.67126 21.7673 1.21503 21.3116C0.758801 20.856 0.501681 20.2382 0.499962 19.5934V12.9472C0.487993 11.3144 0.803361 9.6958 1.42744 8.18697C2.05151 6.67814 2.97164 5.30968 4.13346 4.16241C5.286 3.00291 6.6562 2.08246 8.1654 1.45391C9.67461 0.825351 11.2931 0.501065 12.928 0.499664H22.925C23.2592 0.475209 23.5948 0.519922 23.9109 0.631009C24.2271 0.742097 24.5169 0.917174 24.7623 1.14531C25.0078 1.37344 25.2035 1.64972 25.3374 1.95691C25.4713 2.26409 25.5404 2.59558 25.5404 2.93066C25.5404 3.26575 25.4713 3.59724 25.3374 3.90442C25.2035 4.21161 25.0078 4.48789 24.7623 4.71602C24.5169 4.94415 24.2271 5.11923 23.9109 5.23032C23.5948 5.34141 23.2592 5.38612 22.925 5.36166H12.928C10.9218 5.38195 9.00353 6.18744 7.58432 7.60544C6.1651 9.02344 5.35796 10.9411 5.33596 12.9472V19.5934C5.3394 19.9111 5.27983 20.2264 5.16071 20.521C5.04159 20.8156 4.86528 21.0836 4.64196 21.3097C4.41863 21.5357 4.15273 21.7153 3.85961 21.838C3.56649 21.9606 3.25197 22.024 2.93421 22.0244ZM65.435 46.2434V53.0847C65.4354 54.7187 65.1116 56.3365 64.4823 57.8444C63.8531 59.3524 62.9308 60.7205 61.769 61.8694C59.44 64.1658 56.31 65.4675 53.0395 65.4997H12.8955C9.59058 65.4327 6.44412 64.0707 4.13346 61.7069C1.85899 59.4095 0.567572 56.3173 0.532462 53.0847V46.2434C0.532462 45.5978 0.788927 44.9786 1.24544 44.5221C1.70195 44.0656 2.32111 43.8092 2.96671 43.8092C3.61232 43.8092 4.23148 44.0656 4.68799 44.5221C5.1445 44.9786 5.40096 45.5978 5.40096 46.2434V53.0847C5.41904 54.6617 5.93331 56.193 6.87079 57.4612C7.80827 58.7295 9.12135 59.6703 10.6237 60.1502C12.4112 50.4262 23.315 43.2924 32.8537 43.2924C42.3925 43.2924 53.2637 50.4587 55.0512 60.1502C56.2744 59.8096 57.3906 59.1631 58.2947 58.2717C59.0017 57.5711 59.5637 56.7381 59.9485 55.8201C60.3333 54.9022 60.5333 53.9175 60.5372 52.9222V46.2434C60.5372 45.5982 60.7935 44.9795 61.2497 44.5233C61.7059 44.0671 62.3247 43.8108 62.9698 43.8108C63.615 43.8108 64.2338 44.0671 64.69 44.5233C65.1462 44.9795 65.4025 45.5982 65.4025 46.2434H65.435ZM45.61 25.7197C45.6162 28.2247 44.8781 30.675 43.4894 32.7598C42.1007 34.8447 40.1239 36.4699 37.81 37.4294C36.0804 38.147 34.2133 38.4722 32.343 38.3816C30.4727 38.291 28.6458 37.7868 26.9937 36.9053C25.3417 36.0238 23.9057 34.7869 22.7891 33.2838C21.6725 31.7807 20.903 30.0486 20.5362 28.2124C20.0502 25.7563 20.3044 23.2111 21.2666 20.8996C22.2288 18.5882 23.8557 16.6144 25.941 15.2287C28.376 13.613 31.2945 12.8883 34.2024 13.1773C37.1104 13.4663 39.8291 14.7513 41.8985 16.8147C44.2599 19.1782 45.5926 22.3786 45.6067 25.7197" fill="#575A7B"></path>
								</svg>