<svg width="18" height="19" viewBox="0 0 18 19" fill="none" xmlns="http://www.w3.org/2000/svg">
											<path d="M7.86742 2.17242L4.12493 3.57492C3.26243 3.89742 2.55743 4.91741 2.55743 5.83991V11.4124C2.55743 12.2974 3.14244 13.4599 3.85494 13.9924L7.07993 16.3999C8.13743 17.1949 9.87742 17.1949 10.9349 16.3999L14.1599 13.9924C14.8724 13.4599 15.4574 12.2974 15.4574 11.4124V5.83991C15.4574 4.91741 14.7524 3.89742 13.8899 3.57492L10.1474 2.17242C9.50993 1.93992 8.48992 1.93992 7.86742 2.17242Z" stroke="#101136" stroke-width="1.5" stroke-linecap="round" stroke-linejoin="round"></path>
											<path d="M8.99998 8.68982C8.96998 8.68982 8.93248 8.68982 8.90248 8.68982C8.19748 8.66732 7.63498 8.08231 7.63498 7.36981C7.63498 6.64231 8.22749 6.0498 8.95499 6.0498C9.68249 6.0498 10.275 6.64231 10.275 7.36981C10.2675 8.08981 9.70498 8.66732 8.99998 8.68982Z" stroke="#101136" stroke-width="1.5" stroke-linecap="round" stroke-linejoin="round"></path>
											<path d="M7.50753 10.7895C6.78753 11.2695 6.78753 12.057 7.50753 12.537C8.32503 13.0845 9.66753 13.0845 10.485 12.537C11.205 12.057 11.205 11.2695 10.485 10.7895C9.67503 10.242 8.33253 10.242 7.50753 10.7895Z" stroke="#101136" stroke-width="1.5" stroke-linecap="round" stroke-linejoin="round"></path>
										</svg>