<svg width="26" height="27" viewBox="0 0 26 27" fill="none" xmlns="http://www.w3.org/2000/svg">
								<path d="M11.3642 2.91585L5.95838 4.94167C4.71254 5.40751 3.69421 6.88083 3.69421 8.21333V16.2625C3.69421 17.5408 4.53923 19.22 5.56839 19.9892L10.2267 23.4667C11.7542 24.615 14.2675 24.615 15.795 23.4667L20.4534 19.9892C21.4825 19.22 22.3275 17.5408 22.3275 16.2625V8.21333C22.3275 6.88083 21.3092 5.40751 20.0634 4.94167L14.6575 2.91585C13.7367 2.58001 12.2634 2.58001 11.3642 2.91585Z" stroke="#101136" stroke-width="1.5" stroke-linecap="round" stroke-linejoin="round"></path>
								<path d="M13 12.3301C12.9567 12.3301 12.9025 12.3301 12.8592 12.3301C11.8408 12.2976 11.0283 11.4526 11.0283 10.4234C11.0283 9.37257 11.8842 8.51672 12.935 8.51672C13.9858 8.51672 14.8417 9.37257 14.8417 10.4234C14.8308 11.4634 14.0183 12.2976 13 12.3301Z" stroke="#101136" stroke-width="1.5" stroke-linecap="round" stroke-linejoin="round"></path>
								<path d="M10.8442 15.3634C9.80421 16.0568 9.80421 17.1943 10.8442 17.8876C12.025 18.6784 13.9642 18.6784 15.145 17.8876C16.185 17.1943 16.185 16.0568 15.145 15.3634C13.975 14.5726 12.0359 14.5726 10.8442 15.3634Z" stroke="#101136" stroke-width="1.5" stroke-linecap="round" stroke-linejoin="round"></path>
							</svg>