<svg width="16" height="17" viewBox="0 0 16 17" fill="none" xmlns="http://www.w3.org/2000/svg">
										<path d="M11.3333 14.1667H4.66659C2.66659 14.1667 1.33325 13.1667 1.33325 10.8333V6.16666C1.33325 3.83333 2.66659 2.83333 4.66659 2.83333H11.3333C13.3333 2.83333 14.6666 3.83333 14.6666 6.16666V10.8333C14.6666 13.1667 13.3333 14.1667 11.3333 14.1667Z" stroke="black" stroke-width="1.5" stroke-miterlimit="10" stroke-linejoin="round"></path>
										<path d="M8 10.5C9.10457 10.5 10 9.60457 10 8.5C10 7.39543 9.10457 6.5 8 6.5C6.89543 6.5 6 7.39543 6 8.5C6 9.60457 6.89543 10.5 8 10.5Z" stroke="black" stroke-width="1.5" stroke-miterlimit="10" stroke-linejoin="round"></path>
										<path d="M3.66675 6.83333V10.1667" stroke="black" stroke-width="1.5" stroke-miterlimit="10" stroke-linecap="round" stroke-linejoin="round"></path>
										<path d="M12.3333 6.83333V10.1667" stroke="black" stroke-width="1.5" stroke-miterlimit="10" stroke-linecap="round" stroke-linejoin="round"></path>
									</svg>