<svg id="Layer_1" data-name="Layer 1" xmlns="http://www.w3.org/2000/svg" width="575.09" height="581.02" viewBox="0 0 575.09 581.02">
  <path d="M708.61,1052.92c-5.12-7-5.79-12.06-3.78-19.93a137.85,137.85,0,0,0-4.18-83c-9.79-26.72-25.16-49.6-47.95-66.87-34.37-26-73-36-115.77-28.9-4,.67-6.68-.09-9.59-3.13-22.14-23.14-49.27-37-80.75-42.59-.82-.15-1.66-.17-2.48-.32a33.17,33.17,0,0,1-3.42-.81,38,38,0,0,1-6-1.13l-.62,0a89,89,0,0,0-11.32-.39c-6.43.2-12.88.8-19.3,1.45-8,1.7-15.26,3-22.27,5-42.36,12.48-72.68,39.23-92.23,78.52-1.33,2.69-3.14,5.33-3.66,8.18-1.29,7.14-5.78,9.4-12.36,11.25-43.41,12.24-75.4,38.86-93.69,79.93-24.81,55.74-17.06,108.06,20.68,155.9,2.33,3,2.92,5.35,2,9-15.35,57.9-1,108,42.09,148.93,29.6,28.13,66.09,40.37,107.07,38.25,6.14-.32,12.22-1.61,18.36-2,2.17-.13,5.12.5,6.54,1.94,23.12,23.54,50.63,38.65,83.33,44,.29,0,.54.37.8.56h46c11.74-3.61,23.91-6.2,35.14-11,38-16.26,64.4-44.21,79.25-82.76,2-5.1,4.65-7.53,9.84-8.92,42.41-11.41,74.49-36.45,93.5-75.93C750,1153.85,744.05,1101.47,708.61,1052.92Zm-54-111.26c14.2,22.42,19.12,47.29,15.23,73.7a15.27,15.27,0,0,1-.88,2.2c-11.88-6.91-23.37-13.57-34.85-20.26-26.75-15.59-53.6-31-80.2-46.87-9-5.38-17.12-5.33-26.18,0-44.3,25.82-88.78,51.33-133.2,76.93-1.25.72-2.59,1.3-4.44,2.21-.16-2-.37-3.39-.38-4.79,0-15.64.08-31.28-.08-46.92,0-3.75,1.07-6,4.47-8,37.43-21.41,74.72-43.05,112.12-64.51C558.66,875.22,622.19,890.55,654.57,941.66ZM515.91,1129.07c0,3.23-.94,5.11-3.8,6.73q-27.81,15.73-55.41,31.84a6.77,6.77,0,0,1-7.77,0q-27.85-16.14-55.92-32c-2.75-1.55-3.57-3.41-3.53-6.38.13-10.81,0-21.62,0-32.44h-.21c0-10.64-.17-21.29.15-31.93a8,8,0,0,1,3.32-5.74q28.13-16.67,56.62-32.72a7.39,7.39,0,0,1,6.17-.09c18.85,10.62,37.51,21.57,56.34,32.23,3,1.72,4,3.69,4,7.09Q515.7,1097.38,515.91,1129.07ZM313,952.45a108.7,108.7,0,0,1,92.84-106.56c29.66-4.45,56.83,2.93,81.26,20.28,1.34,1,2.53,2.1,4.13,3.44a27.55,27.55,0,0,1-2.78,2.18c-37.17,21.52-74.25,43.19-111.61,64.39-10,5.66-14.22,13.1-14.14,24.61.37,50.58.17,101.17.16,151.76,0,1.42-.2,2.85-.34,4.81a42.87,42.87,0,0,1-3.94-1.73c-14-8-28-16.17-42-24.12-2.62-1.48-3.76-3.17-3.75-6.27C312.92,1041,312.54,996.71,313,952.45Zm-109.29,99.32c-1-42.72,28.24-85.51,68.27-100.16.89-.32,1.86-.44,3.61-.85,0,10.34,0,20.28,0,30.21,0,34.45.08,68.9-.19,103.34-.08,9.9,3.82,16.53,12.42,21.45,44.37,25.38,88.58,51,132.84,76.6,1.41.81,2.74,1.74,4.84,3.09-6.3,3.66-12,7-17.69,10.27-9.09,5.23-18.26,10.32-27.26,15.7-3.07,1.83-5.54,2-8.73.16-37.33-21.59-74.91-42.74-112-64.65C223.72,1125.66,204.73,1093.82,203.72,1051.77Zm65.58,223.87c-24.64-23.17-36.05-51.71-35.17-85.31.11-4.06.91-8.11,1.49-13,2.3,1.26,3.72,2,5.11,2.8,36,20.8,72.24,41.35,108.06,62.55,10.85,6.43,20.18,6.62,31.14.18,43.06-25.29,86.47-50,129.75-74.91,1.69-1,3.43-1.86,5.73-3.11.18,2.1.41,3.51.41,4.91,0,15.81.14,31.62-.13,47.43,0,2.19-1.46,5.36-3.23,6.38-40.34,23.33-80.44,47.15-121.4,69.36C352.54,1313.81,301.24,1305.68,269.3,1275.64Zm322.36-29.76c-2,69.74-71.11,118.95-138.35,99.9a102.14,102.14,0,0,1-36.7-18.56c-.87-.69-1.66-1.48-2.9-2.6l34-19.64c27.54-15.89,55-31.91,82.65-47.61,8.36-4.75,11.77-11.56,11.75-20.87q-.11-76.63,0-153.26v-6.18a12.75,12.75,0,0,1,2.48.68c14.89,8.51,29.81,17,44.56,25.69a7,7,0,0,1,2.78,5.19C592,1154.37,593,1200.16,591.66,1245.88ZM672,1217.39a112.21,112.21,0,0,1-34.25,24.6,51.87,51.87,0,0,1-5.11,2,6.88,6.88,0,0,1-2-.17v-6.38c0-41.61-.18-83.21.12-124.82.08-11.06-4.15-18.31-13.77-23.83-44.34-25.43-88.45-51.26-132.63-77-1.39-.81-2.71-1.74-4.6-3,16-9.19,31.41-18.15,47-26.71,1.6-.87,4.84,0,6.75,1.13,30.82,17.55,61.64,35.09,92.23,53,12.75,7.48,25.92,14.71,37.24,24.07C710.68,1099.89,714.5,1172.3,672,1217.39Z" transform="translate(-164.89 -805.8)"/>
</svg>
