<svg id="Layer_1" data-name="Layer 1" xmlns="http://www.w3.org/2000/svg" width="488.37" height="249.47" viewBox="0 0 488.37 249.47">
  <path d="M-326.11,763.26c-6.77,2.91-13.39,6.25-20.34,8.64-13.15,4.52-26.27,9.54-39.81,12.48-27,5.88-54.34,10.8-82.11,5.08-15.21-3.14-29.3-8.72-38.93-22-8.58-11.81-9.22-25.15-6.21-38.59,6.76-30.21,25.62-53.22,46.2-75,31.65-33.47,68.22-60,110.48-78.73A386.6,386.6,0,0,1-290.51,553,416.61,416.61,0,0,1-223,542.9a128.33,128.33,0,0,1,67.24,12.89c19.12,9.46,30.74,28.28,29.18,47.74-1,12.42-7,23.11-13.37,33.41-16,25.76-35,49.28-54.72,72.26-8.09,9.43-15.25,19.66-22.82,29.53a6.25,6.25,0,0,0-1.06,1.68c-1.29,4-4.58,7.86-.85,12.1,3.34,3.8,7.75,3.74,12.37,3.24,11.75-1.28,23.59-1.88,35.26-3.64,13.93-2.1,27.86-4.6,41.55-7.9s27.11-7.64,40.55-11.84c14.53-4.54,28.95-9.43,43.4-14.21,5.18-1.71,10.3-3.62,15.49-5.28,1.13-.36,2.48,0,4.05,1C-34,717.66-41,721.72-48.36,725.23c-19.85,9.5-39.48,19.57-59.81,27.91-19.71,8.09-40.09,14.63-60.37,21.24-10.38,3.39-21.07,6.4-31.85,7.84-11.79,1.56-23.85,1.27-35.79,1.44-4.11.06-8.5-.18-12.3-1.56-13.27-4.81-16.91-15.81-11.64-29,10.22-25.51,28.8-44.79,46.61-64.71,21-23.44,41.78-47,57.06-74.74,5.85-10.64,2.77-22.67-8.15-27.35-16.4-7-33.2-13.16-49.83-19.66a46.62,46.62,0,0,0-4.66-1.73c-4.34-1.23-8.49-1.47-11.89,2.75,3.57,3.34,7,6.47,10.31,9.71.76.74,1.71,1.94,1.56,2.73s-1.59,1.53-2.57,1.72c-16.3,3.14-32.69,5.86-48.9,9.36-13.45,2.9-26.75,6.55-40,10.14-13.91,3.77-27.78,7.69-41.56,11.87-9.5,2.88-18.83,6.3-28.22,9.53-3.58,1.23-4.82,2.7-2.63,6.91,5.13,9.84,2.09,18.16-7.82,25.12-4.14,2.91-7.92,6.35-11.87,9.55l.28,2c6.52,1.37,13,3.38,19.56,4,24.35,2.28,47.22-2.63,68.36-15.18,6.26-3.72,6.34-3.6,3.52-10.65,10.89-1.4,20,10.8,15.83,22.87-2-2.06-4.3-3.51-5.35-5.57-1.56-3.06-3.34-3.48-5.93-1.79a126.94,126.94,0,0,1-44.8,18.42c-13.38,2.71-27,4.29-40.68,1.73-8.43-1.57-16.9-2.92-26.28-4.54,0,6-.39,12.06.11,18.09.56,6.74-1.71,11-7.52,14.86-12.15,8-24.26,16.33-35.32,25.77-9.92,8.47-9,20.14,1,27.71a38.62,38.62,0,0,0,11.51,5.62c19.3,6.14,38.94,5.77,58.76,2.83,18.25-2.7,36.58-4.87,54.87-7.35,2.74-.37,5.43-1.14,8.14-1.72Z" transform="translate(515.14 -542.53)"/>
</svg>
