<svg id="Layer_1" data-name="Layer 1" xmlns="http://www.w3.org/2000/svg" width="415.56" height="305.58" viewBox="0 0 415.56 305.58">
  <path d="M1200,814.55c1.79-1.36,3-2.2,4.13-3.13,9.27-7.51,19.84-11.63,31.79-11,10.12.55,18.14-3,24.83-10.3,1.57-1.72,3.1-3.69,5.06-4.78s4.93-2.26,6.58-1.5c2,.91,4.21,3.83,4.23,5.9.33,27.39-13.15,58.11-46.19,69.21a114.27,114.27,0,0,1-16.44,3.78c-3,.54-3.82,2.15-3.78,4.8.32,27.81-7.52,53.77-18.37,78.94-8,18.56-20.39,34.22-34,49-7.49,8.11-7.44,7.82,2.77,11.68,8.52,3.23,16.83,7,25.16,10.76,5.37,2.39,7,8.27,3,12.64a17.1,17.1,0,0,1-8.24,5.12,95,95,0,0,1-38.18,1.27c-6.66-1.21-13.16-3.33-19.81-4.61a7.94,7.94,0,0,0-5.61,1.6c-13.63,10.65-28.4,19.24-45.15,23.71a178.56,178.56,0,0,1-57.9,5.7,152.91,152.91,0,0,1-78.52-27.4c-32.95-22.83-56.31-52.83-67.6-91.62-5.69-19.53-8.48-39.76-5.55-59.74,7.12-48.56,31.13-85.21,79.22-102,17.7-6.2,36.47-7.39,55.25-5.33,5.29.58,10.59,2.21,15.8,1.91,4.81-.27,9.6-2.2,14.23-3.88,14.24-5.14,28.42-10.53,43.92-9.94a38.38,38.38,0,0,1,9.7,2,4.62,4.62,0,0,1,2.84,3c.12,1-1.35,2.35-2.39,3.23-2.16,1.79-4.75,3.12-6.72,5.09-8.31,8.3-8,19.88,1.86,26.24,19.1,12.36,34.54,28.61,50.21,44.69,10,10.29,20.87,19.54,34.27,25.3,4.66,2,5.46,1,7.75-3.48,5.49-10.77,3-17.53-6.82-25.2-17.5-13.68-23.78-33.36-23.17-55.38.29-10.37,2.54-20.11,7.9-29,1-1.73,3.5-3.77,5.16-3.66s3.7,2.4,4.94,4.17a14.77,14.77,0,0,1,2,5.61c2,10.05,8.85,15.62,17.71,19.31C1188.05,792.27,1197.24,800,1200,814.55Zm-88.44,213,1.32-1.81c-1.22-.51-2.7-.74-3.63-1.58-9.24-8.36-19.44-16-27.33-25.45a579.6,579.6,0,0,1-35.27-47.64c-25-37.19-56.55-65.55-100.44-78.26-15.48-4.48-31.15-6.92-47.3-4.48-7.59,1.14-9.71,3.21-9.43,10.66a167.15,167.15,0,0,0,8.9,46.85c11.52,34.43,31.72,62.2,62.12,82.39,10.23,6.79,21.08,11.46,33.6,10.13,10.93-1.16,12.79-5.72,7.64-15.35a56.8,56.8,0,0,1-5.6-15.76c-1.09-5.59,2.78-8.61,8.14-7,3.32,1,6.83,2,9.66,3.84,15.07,10,30.45,19.68,44.74,30.72,15,11.59,31.71,14.46,49.75,13.67A13.5,13.5,0,0,0,1111.6,1027.56Zm-21.39-149.5-.64,1a29.83,29.83,0,0,0-5.3,1.09c-3.62,1.44-7.6,3.23-6.67,8,.85,4.36,5,4,8.46,4.26,9.81.61,14.51,6.3,13.91,16-.27,4.41-.56,9.24.88,13.26,4.26,11.79,19.21,17.48,30.69,12.36,6.13-2.73,7.41-5.75,4.38-11.85-7-14-15.74-26.78-28.48-36.07C1102.4,882.48,1096,880.7,1090.21,878.06Zm-6.63,33.68,2.42-.09c1.2-2,3.17-3.82,3.44-5.91.4-3-1.93-5.33-4.92-4.43-2,.6-4.43,3-4.62,4.87S1082.24,909.88,1083.58,911.74Z" transform="translate(-861.1 -758.11)"/>
</svg>
