<svg id="Layer_1" data-name="Layer 1" xmlns="http://www.w3.org/2000/svg" width="422.09" height="422.93" viewBox="0 0 422.09 422.93">
  <g>
    <path d="M-661.09,339.9c0-49.17-.09-98.33,0-147.5.09-35.56,26.7-63,62.35-63.3,55-.49,110-.22,165-.22,43.83,0,87.67,0,131.5.14a62.92,62.92,0,0,1,63,63.45q0,147.75,0,295.49c0,36-27.31,63.46-63.31,63.54q-131.49.3-263,.19c-10.83,0-21.66.14-32.49-.09-36.57-.75-63.15-27.73-63.21-64.21q-.12-73.74,0-147.49Zm344.63-141.64c-15,0-28.43.1-41.89-.06a9.37,9.37,0,0,0-8.06,3.8q-31,37-62.15,73.77c-3.6,4.26-7.22,8.5-11.07,13-1.4-1.8-2.44-3.07-3.4-4.4q-30-41.19-60-82.44a8.05,8.05,0,0,0-7.4-3.81c-28.33.14-56.66.1-85,.11h-6.47c1.89,2.65,3,4.24,4.14,5.79q53.57,72.58,107.21,145.12c2.28,3.09,2.84,5,0,8.35q-51,60-101.66,120.22c-1,1.17-1.86,2.43-3.45,4.52,14,0,26.86-.29,39.65.14,5.08.17,8.23-1.58,11.36-5.31q37.88-45.21,76.06-90.16c.91-1.08,1.91-2.08,3.07-3.31,1.36,1.69,2.45,2.94,3.43,4.27q33.3,45,66.5,90.06c2.34,3.2,4.72,4.41,8.61,4.39,28-.15,56-.08,84-.1,1.06,0,2.13-.22,4-.43-3.66-5.16-6.87-9.76-10.17-14.29q-53-72.67-106.14-145.29c-1.87-2.55-2.17-4.2.07-6.83q34.8-40.93,69.35-82.09C-336.38,222-326.89,210.68-316.46,198.26Z" transform="translate(661.25 -128.8)"/>
    <path d="M-354.13,453.07c-8.51,0-15.67.26-22.78-.18-1.86-.11-4-2.05-5.29-3.73q-27.32-36.69-54.38-73.55-53.88-73-107.76-146c-.65-.88-1.14-1.88-2.2-3.66,8.86,0,16.94-.19,25,.16,1.53.07,3.29,2.06,4.39,3.56q35.59,48.57,71.06,97.26Q-402,387.32-358,447.68C-356.94,449.12-355.91,450.58-354.13,453.07Z" transform="translate(661.25 -128.8)"/>
  </g>
</svg>
