<svg id="Layer_1" data-name="Layer 1" xmlns="http://www.w3.org/2000/svg" width="423.89" height="423.73" viewBox="0 0 423.89 423.73">
  <g>
    <path d="M276.76,558.11c-11.77-.68-23.8-.08-35.26-2.33-21.59-4.24-35.46-18.32-41.94-39.08-6.58-21.07-2.65-40.61,13.17-56.16,15-14.68,31.22-28,47-41.84q55-48.26,110.07-96.43c7.14-6.26,9.14-13.94,6-21.95S366.19,288,356.67,288c-16.49,0-33,0-49.47-.07-11.73-.07-20.36-8.39-20.39-19.44,0-10.67,8.64-19,20.21-19,19.48,0,39-.59,58.43.69,26.45,1.74,48.77,26.59,50.15,53.07,1.19,23-9.69,39.23-26.37,53.61C340.31,399,292,441.87,243.15,484.15c-11.65,10.09-9.12,26.51,2,32.32A24.16,24.16,0,0,0,255.64,519c16.83.25,33.66,0,50.48.15a19.11,19.11,0,0,1,6.48,37.18,26,26,0,0,1-7.82,1.14c-9.32.13-18.65.05-28,.05Z" transform="translate(-93.58 -191.79)"/>
    <path d="M344.25,528.16q0-13.74,0-27.49c.05-33.52,25.2-58.6,58.76-58.61q28.25,0,56.48,0a57.69,57.69,0,0,1,57.93,58.08c0,19,.1,38,0,57-.15,31.82-24,56.92-55.91,57.94-20.64.66-41.32.55-62,0-30.84-.82-55.07-26.08-55.29-56.92C344.19,548.15,344.26,538.16,344.25,528.16Zm86.54-47.56c-9.49,0-19-.05-28.48,0-11.29.07-19.66,8.14-19.74,19.4q-.22,28.72,0,57.46a19.18,19.18,0,0,0,18.9,19.38q29.22.38,58.46,0c10.79-.15,18.77-8.58,18.83-19.28q.17-28.72,0-57.45c-.07-11.54-8-19.37-19.5-19.48C449.78,480.53,440.29,480.6,430.79,480.6Z" transform="translate(-93.58 -191.79)"/>
    <path d="M267,278.49c-.16,48.31-39.1,86.65-87.85,86.47-46.72-.17-85.77-39.85-85.54-86.94.23-48.21,39-86.4,87.52-86.23A86.19,86.19,0,0,1,267,278.49ZM180.65,326.4a48.15,48.15,0,0,0,47.87-48.56c-.08-26.46-22-48-48.7-47.78s-47.6,21.8-47.44,48.85A47.8,47.8,0,0,0,180.65,326.4Z" transform="translate(-93.58 -191.79)"/>
    <path d="M450.48,528.49a19.35,19.35,0,0,1-38.7.29,19.6,19.6,0,0,1,19.28-19.49A19.36,19.36,0,0,1,450.48,528.49Z" transform="translate(-93.58 -191.79)"/>
    <path d="M181.15,259a19.21,19.21,0,1,1-.74,38.42,19.21,19.21,0,1,1,.74-38.42Z" transform="translate(-93.58 -191.79)"/>
  </g>
</svg>
