<svg id="Layer_1" data-name="Layer 1" xmlns="http://www.w3.org/2000/svg" width="147.72" height="97.79" viewBox="0 0 147.72 97.79">
  <path d="M302.54,390c-3.14,5.58-5.49,10.33-8.36,14.74-6,9.18-11.76,18.57-18.52,27.16-7.32,9.32-17.52,11.79-28.75,8.2-10.74-3.43-15.7-12-17.32-22.44-3.08-19.93,1.23-38.45,12.15-55.28,14.6-22.51,37.58-24.61,56.28-5.44,2.09,2.14,4,4.41,5.06,5.43,4.57-3.79,9.13-7.6,13.72-11.36,10.86-8.91,22.95-9.5,34.55-1.57a32.6,32.6,0,0,1,6.84,5.79c16.11,19.46,21.35,41.79,16.29,66.36-2,9.48-7.32,16.71-17.52,19.1-10.55,2.46-19.95-.09-26.48-8.5-7.83-10.08-14.53-21-21.63-31.69C306.83,397.44,305.09,394.22,302.54,390Zm59.77,16.13c-.72-5.92-1.05-10.41-1.85-14.81-2-10.81-5.68-20.9-13.72-28.8s-17.13-8-25.19-.33a54.46,54.46,0,0,0-7.82,9.67,5.89,5.89,0,0,0,0,5.18q11.12,18.33,22.72,36.38a46.66,46.66,0,0,0,8,9.52,9.71,9.71,0,0,0,16-4.47C361.74,414.05,361.85,409.31,362.31,406.09Zm-117.94.43c.52,3.44.71,7,1.64,10.29,2.44,8.67,10.92,11.34,17.94,5.69a27.63,27.63,0,0,0,5.42-5.8c6.3-9.18,12.46-18.45,18.59-27.74,7.93-12,7.89-12.07-2.72-22.25-10.17-9.77-20.33-9-28.76,2.28C248.19,380.09,245.49,393,244.37,406.52Z" transform="translate(-228.62 -343.84)"/>
</svg>
