<svg id="Layer_1" data-name="Layer 1" xmlns="http://www.w3.org/2000/svg" width="282.47" height="289.76" viewBox="0 0 282.47 289.76">
  <path d="M1007.87,491.45c-2.13-.1-4.06-.27-6-.28-21.67,0-43.33-.11-65,.08-4.34,0-5.79-1.21-5.72-5.65.24-15,.21-30,0-45,0-4.06,1.16-5.55,5.36-5.54q61.76.13,123.5-.07c4.22,0,6.47,1.3,7.06,5.72,6.22,46.19-3.41,88.17-35.36,123-26.6,29-60.7,43-100,42.66C879,605.86,836.93,583.69,809,538.91,752.76,448.84,807.18,333,910.47,318.2c41.39-5.93,78.22,5,111,30.54,1.41,1.1,2.7,2.36,4.43,3.88-1.48,1.65-2.61,3-3.87,4.29-10.34,10.39-20.64,20.84-31.09,31.12-7.41,7.29-4.72,7.26-13.73,1.73-12.72-7.81-26.32-13.33-41.3-13.65-35.11-.75-63.07,13.16-79.55,44.59-17.39,33.14-14.44,65.58,9.12,95.44,31,39.34,90.72,38.86,121.75,12.38,10.78-9.2,17.33-20.95,20.65-34.61A12.64,12.64,0,0,0,1007.87,491.45Z" transform="translate(-786.42 -316.62)"/>
</svg>
