<svg width="16" height="17" viewBox="0 0 16 17" fill="none" xmlns="http://www.w3.org/2000/svg">
										<path d="M14.6466 12.72C14.6466 12.96 14.5933 13.2067 14.4799 13.4467C14.3666 13.6867 14.2199 13.9133 14.0266 14.1267C13.6999 14.4867 13.3399 14.7467 12.9333 14.9133C12.5333 15.08 12.0999 15.1667 11.6333 15.1667C10.9533 15.1667 10.2266 15.0067 9.45992 14.68C8.69325 14.3533 7.92658 13.9133 7.16658 13.36C6.39992 12.8 5.67325 12.18 4.97992 11.4933C4.29325 10.8 3.67325 10.0733 3.11992 9.31334C2.57325 8.55334 2.13325 7.79334 1.81325 7.04001C1.49325 6.28001 1.33325 5.55334 1.33325 4.86001C1.33325 4.40668 1.41325 3.97334 1.57325 3.57334C1.73325 3.16668 1.98659 2.79334 2.33992 2.46001C2.76659 2.04001 3.23325 1.83334 3.72659 1.83334C3.91325 1.83334 4.09992 1.87334 4.26659 1.95334C4.43992 2.03334 4.59325 2.15334 4.71325 2.32668L6.25992 4.50668C6.37992 4.67334 6.46658 4.82668 6.52658 4.97334C6.58658 5.11334 6.61992 5.25334 6.61992 5.38001C6.61992 5.54001 6.57325 5.70001 6.47992 5.85334C6.39325 6.00668 6.26658 6.16668 6.10658 6.32668L5.59992 6.85334C5.52658 6.92668 5.49325 7.01334 5.49325 7.12001C5.49325 7.17334 5.49992 7.22001 5.51325 7.27334C5.53325 7.32668 5.55325 7.36668 5.56659 7.40668C5.68659 7.62668 5.89325 7.91334 6.18658 8.26001C6.48658 8.60668 6.80658 8.96001 7.15325 9.31334C7.51325 9.66668 7.85992 9.99334 8.21325 10.2933C8.55992 10.5867 8.84658 10.7867 9.07325 10.9067C9.10658 10.92 9.14658 10.94 9.19325 10.96C9.24658 10.98 9.29992 10.9867 9.35992 10.9867C9.47325 10.9867 9.55992 10.9467 9.63325 10.8733L10.1399 10.3733C10.3066 10.2067 10.4666 10.08 10.6199 10C10.7733 9.90668 10.9266 9.86001 11.0933 9.86001C11.2199 9.86001 11.3533 9.88668 11.4999 9.94668C11.6466 10.0067 11.7999 10.0933 11.9666 10.2067L14.1733 11.7733C14.3466 11.8933 14.4666 12.0333 14.5399 12.2C14.6066 12.3667 14.6466 12.5333 14.6466 12.72Z" stroke="black" stroke-width="1.5" stroke-miterlimit="10"></path>
									</svg>