<svg id="Layer_1" data-name="Layer 1" xmlns="http://www.w3.org/2000/svg" width="172.21" height="176.18" viewBox="0 0 172.21 176.18">
  <defs>
    <style>
      .cls-1 {
        fill: #fff;
      }
    </style>
  </defs>
  <g>
    <path d="M222.37,399.79c.32-43.36,27.79-77.4,70.05-86.45,47.19-10.11,95.56,24.59,101.34,72.71,4.76,39.61-11.49,73.41-43.84,91.14-52.79,28.94-119-4.57-126.34-64C223,408.74,222.76,404.25,222.37,399.79ZM301.64,375l1.15.5v4.87q0,25.23,0,50.45c0,1.49-.39,3.25.25,4.42.75,1.37,2.45,3.1,3.7,3.07s2.8-1.83,3.6-3.21c.59-1,.22-2.6.22-3.93V373.76c9.07,9.17,16.92,17.09,24.76,25,2,2,4.41,3.39,6.19.53.8-1.29.2-4.56-1-5.78-9.9-10.33-20.09-20.39-30.18-30.56-1.93-2-4-3.34-6.39-.91-10.72,10.71-21.45,21.4-32,32.31-.9.94-.21,3.41-.26,5.17a28,28,0,0,0,5.66-.27c1-.22,1.68-1.53,2.5-2.36Z" transform="translate(-222.37 -311.58)"/>
    <path class="cls-1" d="M301.64,375l-21.74,22c-.82.83-1.54,2.14-2.5,2.36a28,28,0,0,1-5.66.27c.05-1.76-.64-4.23.26-5.17,10.52-10.91,21.25-21.6,32-32.31,2.43-2.43,4.46-1,6.39.91,10.09,10.17,20.28,20.23,30.18,30.56,1.17,1.22,1.77,4.49,1,5.78-1.78,2.86-4.23,1.46-6.19-.53-7.84-7.94-15.69-15.86-24.76-25v57.36c0,1.33.37,2.92-.22,3.93-.8,1.38-2.34,3.19-3.6,3.21s-2.95-1.7-3.7-3.07c-.64-1.17-.25-2.93-.25-4.42q0-25.23,0-50.45v-4.87Z" transform="translate(-222.37 -311.58)"/>
  </g>
</svg>
