<svg id="Layer_1" data-name="Layer 1" xmlns="http://www.w3.org/2000/svg" width="40.15" height="65.57" viewBox="0 0 40.15 65.57">
  <g>
    <path d="M307,416.18c4.28-4.57,7.63-8,10.81-11.59,2.57-2.89,4.77-2.76,7.55-.14s2.4,4.59-.15,7c-4.92,4.72-9.75,9.56-14.47,14.47-2.27,2.36-4.22,2.85-6.69.31-5-5.13-10.08-10.17-15.18-15.19-2.51-2.48-1.91-4.54.41-6.78s4.51-2.81,6.84-.27C299.59,407.79,303,411.64,307,416.18Z" transform="translate(-287.26 -362.38)"/>
    <path d="M307.32,374.54c-4.18,4.38-7.67,7.93-11,11.6-2.58,2.81-4.68,2.07-7.1-.33s-2.61-4.32-.14-6.72q7.48-7.3,14.8-14.8c2.28-2.34,4.35-2.66,6.77-.2q7.49,7.67,15.15,15.16c2.3,2.25,2.13,4.17-.15,6.32s-4.24,3.84-7.05.76C315.1,382.55,311.49,378.9,307.32,374.54Z" transform="translate(-287.26 -362.38)"/>
  </g>
</svg>
