<svg id="Layer_1" data-name="Layer 1" xmlns="http://www.w3.org/2000/svg" width="154.1" height="154.13" viewBox="0 0 154.1 154.13">
  <g>
    <path d="M336.76,268.14c0-7,3.63-12.21,10.52-14.72,5.93-2.16,12-4,17.9-6.16C375,243.69,381.72,237.06,385,227c1.84-5.69,3.88-11.31,5.84-17,2.37-6.82,7.59-10.71,14.56-10.85s12.29,3.48,14.85,10.34c2.2,5.9,4.17,11.9,6.22,17.86,3.5,10.14,10.44,16.75,20.57,20.15q8.5,2.84,16.95,5.85c6.68,2.4,10.76,8,10.77,14.66s-4.08,12.26-10.75,14.64c-6.25,2.23-12.56,4.32-18.79,6.6a29.82,29.82,0,0,0-18.38,18.44c-2.18,5.91-4.07,11.93-6.14,17.89-2.56,7.36-8.24,11.63-15.2,11.5s-12.23-4.21-14.74-11.37c-2-5.8-3.88-11.66-6-17.43-3.45-9.44-9.78-16.07-19.43-19.36-6.12-2.08-12.26-4.13-18.32-6.4C340.31,280.06,336.79,274.92,336.76,268.14Z" transform="translate(-336.76 -182.99)"/>
    <path d="M490.86,203.9c-.07,6.24-2.34,8.92-6.35,9.77-5.08,1.08-8.08,3.69-9.09,9-.73,3.88-3.38,6.58-7.63,6.63a7.36,7.36,0,0,1-7.77-6.43c-1-5.54-4.38-8-9.5-9.23-3.84-.89-5.92-3.51-5.94-7.56s2.26-6.8,6-7.54c5.6-1.11,8.51-4.19,9.6-9.68.78-3.91,3.91-6.51,7.57-5.72,2.73.59,6.3,3.15,7.09,5.61,1.77,5.48,4.59,8.48,10.19,10C487.63,199.48,489.57,202.69,490.86,203.9Z" transform="translate(-336.76 -182.99)"/>
  </g>
</svg>
