<svg id="Layer_1" data-name="Layer 1" xmlns="http://www.w3.org/2000/svg" width="368.56" height="368.52" viewBox="0 0 368.56 368.52">
  <defs>
    <style>
      .cls-1 {
        fill: #383655;
      }
    </style>
  </defs>
  <g>
    <g>
      <path class="cls-1" d="M314,494.44q0-34.47,0-68.94c0-10.58,5-15.56,15.6-15.55q69.2,0,138.39.12c10,0,14.82,4.66,14.87,14.64.13,25.64,0,51.29,0,76.93q0,25.49.05,51c0,2.5,0,5,0,7.5-.2,15.33-3,18.52-18.44,18.65-29.8.26-59.61.06-89.42.07-15.15,0-30.31.13-45.46,0-11.07-.06-15.53-4.49-15.57-15.47C313.94,540.41,314,517.43,314,494.44Zm84,60v.14q27,0,54,0c6.54,0,6.61-.07,6.61-6.78,0-35.81-.06-71.61,0-107.42,0-4.39-1.29-6.26-6-6.24q-54.19.28-108.41.17c-4.34,0-5.95,1.81-5.95,6q.06,54-.08,107.92c0,4.77,1.53,6.39,6.38,6.33C362.34,554.27,380.16,554.42,398,554.42Z" transform="translate(-117.86 -213.87)"/>
      <path class="cls-1" d="M341.55,582.39q-6,0-12,0c-12.95-.07-19-6.1-19.05-19,0-15.8,0-31.85,0-47.38q0-10.78,0-21.58V478.69q0-26.6,0-53.2c0-12.46,6.62-19,19.09-19h0c41.85,0,90.51,0,138.39.12,12,0,18.31,6.29,18.37,18.12.09,17.44.06,35.16,0,52.3q0,12.33,0,24.65,0,17.55,0,35.1l0,18c0,1.79,0,3.57,0,5.35-.23,17.42-4.73,22-21.91,22.11-20.57.18-41.48.14-61.7.1l-27.75,0q-8.19,0-16.37,0C353.05,582.37,347.3,582.39,341.55,582.39Zm-12-168.94c-8.68,0-12.06,3.38-12.08,12.05q0,26.6,0,53.18v15.76q0,10.8,0,21.6c0,15.52,0,31.56,0,47.34,0,9,3,11.93,12.09,12,9.68,0,19.52,0,29.05,0q9.19,0,18.4,0,12.88,0,25.76,0c20.2,0,41.09.08,61.62-.1,13.39-.12,14.79-1.54,15-15.2,0-1.74,0-3.49,0-5.23l0-18.07q0-17.55,0-35.11,0-12.33,0-24.66c0-17.13.05-34.84,0-52.26,0-8-3.23-11.14-11.38-11.15-47.88-.08-96.54-.11-138.38-.12Zm98.16,144.61H394.48v-.14l-11.13,0c-12.72,0-25.87-.06-38.78.12-2.17,0-5.33-.19-7.52-2.35s-2.42-5.13-2.41-7.49c.15-36.16.12-71.67.08-107.9,0-3.14.79-5.46,2.41-7.08s3.92-2.41,7-2.41h0c41.93,0,76.37,0,108.4-.17,2,0,5,.23,7.13,2.36s2.39,5.06,2.39,7.39c-.07,25.78-.06,52,0,77.35q0,15,0,30.06c0,8.64-1.61,10.27-10.11,10.28Zm-26.25-7h11.39q19.53,0,39.07,0c1,0,2.26,0,3.05-.06.06-.82.06-2.12.06-3.22q0-15,0-30.06c0-25.35,0-51.58,0-77.37,0-2-.33-2.42-.33-2.42h0a4.17,4.17,0,0,0-2.09-.31h-.07c-32,.17-66.49.22-108.44.17h0c-1.69,0-2.07.35-2.07.36s-.36.38-.36,2.12c0,36.24.07,71.77-.08,107.94,0,2,.34,2.48.34,2.49h0s.45.34,2.49.32c13-.18,26.15-.15,38.89-.12l14.62,0h3.5Z" transform="translate(-117.86 -213.87)"/>
    </g>
    <g>
      <path class="cls-1" d="M290.35,494.69c0,23,.09,46,0,68.95-.06,10.58-4.81,15.22-15.39,15.23-28.14,0-56.29-.12-84.43-.13-17.49,0-35,.15-52.47.14-12,0-16-3.63-16.38-15.62s0-24.31,0-36.46q-.11-50.2-.27-100.42c0-6.47,1.05-12.47,8-15.14a19.51,19.51,0,0,1,6.77-1.24q69.94-.12,139.9,0c9,0,14.28,5.26,14.31,14.28.07,23.48,0,47,0,70.45Zm-84.68,59.87h53c7.09,0,7.4-.3,7.4-7.28q0-53.47,0-107c0-4.57-2-6.17-6.36-6.16q-54,.12-108,0c-4.35,0-5.88,1.58-5.87,5.85q.12,54.22-.06,108.47c0,4.92,1.69,6.24,6.38,6.19C170,554.43,187.84,554.56,205.67,554.56Z" transform="translate(-117.86 -213.87)"/>
      <path class="cls-1" d="M139.61,582.38H138c-13.91,0-19.49-5.34-19.88-19-.23-7.86-.15-15.84-.07-23.54,0-4.27.09-8.69.08-13q-.06-32.2-.17-64.41,0-18-.1-36c0-4.33,0-14.48,10.29-18.42a23,23,0,0,1,8-1.47c45.39-.07,92.46-.08,139.91,0,11,0,17.77,6.82,17.81,17.77.05,16.81,0,33.89,0,50.42q0,10,0,20v3.5h-.07q0,8.26,0,16.53c0,16,0,32.63-.06,48.94-.07,12.4-6.43,18.7-18.89,18.71-15.86,0-32,0-47.57-.06q-18.43,0-36.86-.07-13,0-26,.07Q152.07,582.37,139.61,582.38ZM218,413.43c-27.68,0-55,0-81.81.07a16.06,16.06,0,0,0-5.53,1c-4.29,1.64-5.8,4.74-5.78,11.87q0,18,.1,36,.09,32.2.17,64.42c0,4.37,0,8.81-.08,13.1-.08,7.64-.16,15.54.06,23.27.29,9.93,2.7,12.22,12.9,12.22q13.23,0,26.44-.07c8.68,0,17.34-.07,26-.07q18.44,0,36.87.07c15.59,0,31.71.07,47.56.06,8.73,0,11.84-3.08,11.89-11.75.09-16.29.07-32.86.06-48.89q0-10,0-20v-3.5h.07q0-8.26,0-16.55c0-16.51,0-33.59,0-50.39,0-7.05-3.76-10.78-10.81-10.79ZM151.88,558.15c-2.33,0-5.17-.31-7.2-2.32s-2.38-5.24-2.37-7.39c.19-37.82.13-76,.06-108.44,0-2,.23-4.93,2.33-7s5.07-2.33,7.05-2.34c32,.11,66.33.12,108,0h0c3.28,0,5.7.81,7.37,2.48s2.46,4,2.45,7.18c0,24.81,0,50,0,74.43q0,16.28,0,32.53c0,9-1.83,10.77-10.9,10.78h-53L191,558c-12.7,0-25.83,0-38.72.11Zm-2.25-7.28a5.56,5.56,0,0,0,2.51.28c13-.16,26.1-.13,38.82-.11,4.9,0,9.8,0,14.71,0h53a35.11,35.11,0,0,0,3.77-.14,33.6,33.6,0,0,0,.13-3.64q0-16.26,0-32.52c0-24.4,0-49.63,0-74.45,0-1.76-.36-2.17-.4-2.22s-.49-.43-2.42-.43h0c-41.63.09-75.94.08-108,0a4.11,4.11,0,0,0-2.09.3h0a4.42,4.42,0,0,0-.27,2.05c.07,32.41.13,70.65-.06,108.5,0,1.93.31,2.39.32,2.39Z" transform="translate(-117.86 -213.87)"/>
    </g>
    <g>
      <path class="cls-1" d="M314,302q0-34,0-68c0-12.18,4.4-16.68,16.48-16.67,25.64,0,51.28.2,76.93.26,20,.05,40-.1,59.94.06,11.53.09,15.5,4.15,15.53,15.91.07,29.31-.08,58.62-.09,87.93,0,16,.12,32,.11,48,0,12.38-4.14,16.76-16.33,16.78q-69,.16-137.9.1c-9.64,0-14.63-5.12-14.66-14.93C314,348.31,314,325.16,314,302Zm85-60.12V242c-18.33,0-36.66.1-55-.07-4.39,0-6,1.62-5.84,5.88.21,8,.19,16,.18,24q0,41.48-.16,83c0,4,.27,7.24,5.69,7.23q54.48-.11,109,.14c4.94,0,5.77-2.32,5.76-6.47-.08-35.82-.13-71.64.06-107.45,0-5.22-1.81-6.46-6.69-6.4C434.31,242,416.65,241.89,399,241.89Z" transform="translate(-117.86 -213.87)"/>
      <path class="cls-1" d="M360,389.9H328.65c-11.5,0-18.12-6.71-18.15-18.42q0-24.33,0-48.68v-39.4q0-24.67,0-49.34c0-14.14,6-20.17,19.93-20.17h.05c14.48,0,29.2.08,43.43.14l33.5.12q11.64,0,23.27,0c12,0,24.46,0,36.7.07,13.46.1,19,5.73,19,19.4,0,18.24,0,36.78,0,54.71q0,16.62-.05,33.24,0,12.21.06,24.43,0,11.77.05,23.53c0,14.38-5.74,20.25-19.82,20.28C429.47,389.88,393,389.9,360,389.9Zm-29.58-169c-10,0-12.91,3-12.93,13.18q0,24.66,0,49.33v39.4q0,24.33,0,48.67c0,7.9,3.46,11.43,11.16,11.43,40.53,0,88.61,0,137.9-.1,10.19,0,12.83-2.75,12.83-13.28q0-11.75-.05-23.5,0-12.24-.06-24.47,0-16.62.05-33.25c0-17.92.08-36.45,0-54.67,0-9.79-2.51-12.35-12.06-12.42-12.2-.1-24.62-.08-36.63-.07q-11.65,0-23.29,0-16.77,0-33.52-.12c-14.23-.06-28.94-.13-43.4-.14ZM452.9,365.61h-.09c-33.37-.17-69-.21-108.92-.14h0c-3,0-5.17-.77-6.75-2.35-2.44-2.44-2.42-6-2.42-8.39.1-28.89.14-58.15.16-83v-1.71c0-7.28,0-14.8-.18-22.17-.06-2,.12-4.95,2.23-7.11s5.09-2.39,7.14-2.37c13.4.12,27,.1,40.21.08h11.24l3.5-.09,14.53,0c12.59,0,25.6.06,38.39-.12,2.68,0,5.68.22,7.83,2.35s2.43,5.36,2.41,7.57c-.19,35.38-.14,71-.06,107.42,0,2.61-.27,5.56-2.38,7.66C458.15,364.85,455.92,365.61,452.9,365.61Zm-74.56-7.18c26.43,0,51,.06,74.51.18a3.91,3.91,0,0,0,1.93-.28c0-.06.32-.53.31-2.69-.08-36.43-.13-72.06.06-107.47,0-2.09-.34-2.56-.34-2.56s-.47-.34-2.8-.32c-12.84.18-25.89.15-38.51.12l-11,0v.09H384.26c-13.2,0-26.85,0-40.28-.08-1.67,0-2.08.27-2.09.29h0a4,4,0,0,0-.22,2c.2,7.47.19,15,.18,22.37v1.71c0,24.81-.06,54.07-.16,83,0,2.51.2,3.25.37,3.42a3.43,3.43,0,0,0,1.8.3h0Q361.65,358.42,378.34,358.43Z" transform="translate(-117.86 -213.87)"/>
    </g>
    <g>
      <path class="cls-1" d="M205.47,386.42q-34.23,0-68.45,0c-10.49,0-15.54-4.73-15.57-15.14-.07-27.31.14-54.62.15-81.93,0-17.15-.15-34.3-.23-51.46,0-2,0-4,.1-6,.73-10.12,5.08-14.46,15.22-14.47,29.14,0,58.28.18,87.42.2,16.32,0,32.64-.21,49-.24,12.93,0,17.36,4.47,17.36,17.46q0,67.46,0,134.91c0,11.92-4.7,16.67-16.51,16.68Zm.36-144.53c-18.15,0-36.3.09-54.44-.07-4.1,0-5.56,1.31-5.55,5.46q.16,54.45,0,108.9c0,4.18,1.33,5.94,5.77,5.92q53.94-.18,107.89,0c4.64,0,6.6-1.66,6.59-6.44q-.15-53.7,0-107.4c0-4.74-1.55-6.48-6.35-6.43C241.8,242,223.82,241.89,205.83,241.89Z" transform="translate(-117.86 -213.87)"/>
      <path class="cls-1" d="M247.58,389.93H182.65q-22.82,0-45.64,0c-12.43,0-19-6.46-19.06-18.63,0-16,0-32.23.07-47.94q.06-17,.08-34c0-11.29-.06-22.77-.13-33.88q-.06-8.77-.1-17.56v-.71c0-1.8,0-3.66.11-5.55.87-12.08,6.81-17.71,18.71-17.72,16.32,0,32.92,0,49,.1q19.23.06,38.45.1c9,0,18.15-.06,27-.12,7.31-.05,14.63-.11,21.94-.12,7.65,0,12.61,1.48,16,4.84s4.9,8.34,4.9,16.12q0,67.46,0,134.91c0,13.94-6.17,20.17-20,20.18Zm-42.11-7h68.45c9.85,0,13-3.21,13-13.18q0-67.46,0-134.91c0-5.69-.9-9.24-2.84-11.17s-5.38-2.79-10.91-2.79h-.1c-7.31,0-14.61.07-21.91.12-8.87.06-18,.13-27.06.12q-19.25,0-38.48-.1c-16-.06-32.62-.12-48.93-.1-8.17,0-11.13,2.84-11.73,11.22-.12,1.62-.11,3.26-.1,5v.73q0,8.77.1,17.55c.07,11.11.13,22.61.13,33.92s0,22.68-.08,34c0,15.7-.11,31.94-.07,47.9,0,8.37,3.41,11.63,12.07,11.65q22.81,0,45.63,0ZM151.56,365.6c-2,0-4.8-.25-6.87-2.32s-2.34-5.06-2.33-7.11c.09-39.25.08-74.86,0-108.88,0-1.94.22-4.76,2.24-6.76s4.87-2.23,6.84-2.21c13.3.12,26.83.1,39.92.08h14.49l14.77,0c12.83,0,26.1,0,39.14-.09,2.14,0,5.24.2,7.44,2.39s2.46,5.37,2.45,7.56c-.13,32.52-.13,67.64,0,107.37,0,3.31-.8,5.74-2.49,7.43-2.27,2.27-5.41,2.52-7.6,2.52-39.15-.11-74.44-.1-107.87,0Zm-1.91-7.26a4.54,4.54,0,0,0,2,.26c33.44-.11,68.74-.12,107.91,0h0c2,0,2.51-.39,2.59-.47s.45-.51.44-2.46c-.1-39.75-.1-74.88,0-107.42,0-2.15-.38-2.56-.38-2.57s-.44-.38-2.43-.35c-13.09.13-26.38.11-39.23.09-4.92,0-9.85,0-14.76,0H191.35c-13.1,0-26.66,0-40-.08a5.42,5.42,0,0,0-1.83.19,5.54,5.54,0,0,0-.19,1.76c.1,34,.11,69.66,0,108.91,0,1.71.27,2.14.29,2.16Z" transform="translate(-117.86 -213.87)"/>
    </g>
  </g>
</svg>
