<svg id="Layer_1" data-name="Layer 1" xmlns="http://www.w3.org/2000/svg" width="90.91" height="93.44" viewBox="0 0 90.91 93.44">
  <defs>
    <style>
      .cls-1 {
        fill: #161331;
      }
    </style>
  </defs>
  <path class="cls-1" d="M258.92,318.07v21h-21v-21h21m0-10h-21a10,10,0,0,0-10,10v21a10,10,0,0,0,10,10h21a10,10,0,0,0,10-10v-21a10,10,0,0,0-10-10Z" transform="translate(-227.89 -308.07)"/>
  <path class="cls-1" d="M298.29,318.07a10.52,10.52,0,0,1,10.51,10.52h0a10.52,10.52,0,0,1-10.51,10.51h0a10.52,10.52,0,0,1-10.52-10.51h0a10.52,10.52,0,0,1,10.52-10.52h0m0-10a20.52,20.52,0,1,0,20.51,20.52,20.54,20.54,0,0,0-20.51-20.52Z" transform="translate(-227.89 -308.07)"/>
  <path class="cls-1" d="M248.4,370.48a10.52,10.52,0,1,1,0,21h0a10.52,10.52,0,0,1,0-21h0m0-10A20.52,20.52,0,1,0,268.92,381a20.53,20.53,0,0,0-20.52-20.51Z" transform="translate(-227.89 -308.07)"/>
  <path class="cls-1" d="M308.8,370.48v21h-21v-21h21m0-10h-21a10,10,0,0,0-10,10v21a10,10,0,0,0,10,10h21a10,10,0,0,0,10-10v-21a10,10,0,0,0-10-10Z" transform="translate(-227.89 -308.07)"/>
</svg>
