<svg id="Layer_1" data-name="Layer 1" xmlns="http://www.w3.org/2000/svg" width="61.82" height="62.92" viewBox="0 0 61.82 62.92">
  <g>
    <path d="M323.48,430c-1.83,0-3.66,0-5.48,0-5.77-.14-8.28-2.53-8.43-8.14-.09-3.82-.13-7.65,0-11.47.2-5.28,2.43-7.73,7.55-8a112.77,112.77,0,0,1,12.47,0c5.15.28,7.43,2.64,7.7,7.94.21,4,.19,8,0,12-.24,5.13-2.75,7.51-7.85,7.73C327.48,430,325.48,429.94,323.48,430Zm6.86-20.64H316.67v13.61h13.67Z" transform="translate(-275.64 -367.05)"/>
    <path d="M289.55,367.05c13.14,0,13.9.75,13.9,13.7,0,13.3-.74,14-14.09,14-12.76,0-13.71-.94-13.72-13.48,0-1.33,0-2.66,0-4,0-8.14,2.18-10.24,10.4-10.26Zm-6.92,20.59h13.66V374.13H282.63Z" transform="translate(-275.64 -367.05)"/>
    <path d="M303.43,416a13.88,13.88,0,0,1-27.76.32c-.16-7.34,6.58-14.1,14-14A14.27,14.27,0,0,1,303.43,416Zm-13.24,7.13a7.18,7.18,0,0,0,7-6.95,7.36,7.36,0,0,0-7.34-7.2,7.46,7.46,0,0,0-7,7.58A7.16,7.16,0,0,0,290.19,423.14Z" transform="translate(-275.64 -367.05)"/>
    <path d="M323.32,367.07a14,14,0,0,1,14,13.48c.2,7.28-6.73,14.2-14.06,14.06S309.5,388,309.57,380.74A14,14,0,0,1,323.32,367.07Zm7.21,13.77a6.85,6.85,0,0,0-6.9-7,6.71,6.71,0,0,0-7.23,6.56c-.13,3.9,3.33,7.57,7.08,7.52A7.66,7.66,0,0,0,330.53,380.84Z" transform="translate(-275.64 -367.05)"/>
  </g>
</svg>
