<svg width="16" height="17" viewBox="0 0 16 17" fill="none" xmlns="http://www.w3.org/2000/svg">
									<path d="M13.3333 5.99998V12.5C13.3333 14.5 12.14 15.1666 10.6666 15.1666H5.33329C3.85996 15.1666 2.66663 14.5 2.66663 12.5V5.99998C2.66663 3.83331 3.85996 3.33331 5.33329 3.33331C5.33329 3.74665 5.49994 4.11998 5.77327 4.39331C6.04661 4.66664 6.41996 4.83331 6.83329 4.83331H9.16663C9.99329 4.83331 10.6666 4.15998 10.6666 3.33331C12.14 3.33331 13.3333 3.83331 13.3333 5.99998Z" stroke="black" stroke-width="1.5" stroke-linecap="round" stroke-linejoin="round"></path>
									<path d="M10.6667 3.33331C10.6667 4.15998 9.99337 4.83331 9.16671 4.83331H6.83337C6.42004 4.83331 6.04669 4.66664 5.77336 4.39331C5.50002 4.11998 5.33337 3.74665 5.33337 3.33331C5.33337 2.50665 6.00671 1.83331 6.83337 1.83331H9.16671C9.58004 1.83331 9.95339 1.99998 10.2267 2.27332C10.5001 2.54665 10.6667 2.91998 10.6667 3.33331Z" stroke="black" stroke-width="1.5" stroke-linecap="round" stroke-linejoin="round"></path>
									<path d="M5.33337 9.16669H8.00004" stroke="black" stroke-width="1.5" stroke-linecap="round" stroke-linejoin="round"></path>
									<path d="M5.33337 11.8333H10.6667" stroke="black" stroke-width="1.5" stroke-linecap="round" stroke-linejoin="round"></path>
								</svg>