<svg width="16" height="17" viewBox="0 0 16 17" fill="none" xmlns="http://www.w3.org/2000/svg">
										<g clip-path="url(#clip0_1_737)">
										<path d="M10.7005 10.8714L14.6639 14.8337M0.973633 4.64286L2.88563 5.156M1.78506 9.24286L3.18506 7.844M4.32906 1.28857L4.84106 3.19943M8.92906 2.1L7.52906 3.49886M8.29706 14.8257L5.47992 6.38915C5.44613 6.28837 5.44112 6.18017 5.46546 6.0767C5.48979 5.97324 5.54249 5.87861 5.61765 5.80345C5.69281 5.72829 5.78744 5.67558 5.8909 5.65125C5.99437 5.62692 6.10257 5.63193 6.20335 5.66572L14.6399 8.48057C14.7543 8.51895 14.8536 8.59256 14.9236 8.69086C14.9936 8.78915 15.0307 8.90708 15.0296 9.02774C15.0284 9.1484 14.9891 9.26561 14.9173 9.36256C14.8454 9.45951 14.7447 9.53123 14.6296 9.56743L10.9211 10.7331C10.8332 10.7605 10.7532 10.8086 10.688 10.8735C10.6227 10.9384 10.5741 11.018 10.5462 11.1057L9.38277 14.8154C9.34685 14.931 9.27518 15.0321 9.17809 15.1043C9.081 15.1765 8.96351 15.216 8.84252 15.2171C8.72154 15.2183 8.60332 15.181 8.50488 15.1107C8.40645 15.0403 8.33288 14.9405 8.29478 14.8257H8.29706Z" stroke="black" stroke-width="1.5" stroke-linecap="round" stroke-linejoin="round"></path>
										</g>
										<defs>
										<clipPath id="clip0_1_737">
										<rect width="16" height="16" fill="white" transform="translate(0 0.5)"></rect>
										</clipPath>
										</defs>
									</svg>