<svg width="16" height="17" viewBox="0 0 16 17" fill="none" xmlns="http://www.w3.org/2000/svg">
										<path d="M7.69601 2C7.61844 2 7.5418 2.01563 7.47134 2.04582C7.40089 2.07601 7.3383 2.12004 7.28788 2.17489L7.23418 2.21087C5.61778 1.76914 3.78442 2.11093 2.50526 3.23723C1.37002 4.2356 0.936112 5.61674 1.20247 6.90893L1.18636 6.92292L0.46569 7.55753C0.318858 7.68358 0.201676 7.83657 0.121527 8.00685C0.041378 8.17713 0 8.36101 0 8.54691C0 8.7328 0.041378 8.91668 0.121527 9.08696C0.201676 9.25724 0.318858 9.41023 0.46569 9.53629C0.833006 9.86109 1.3378 9.993 1.81574 9.93204C1.88447 10.1649 2.02302 10.3858 2.23031 10.5686C2.51063 10.8155 2.87043 10.9504 3.23774 10.9744C3.26459 11.2972 3.41818 11.614 3.69957 11.8608C3.97882 12.1077 4.33861 12.2426 4.70593 12.2666C4.73278 12.5894 4.88637 12.9062 5.16776 13.153C5.44788 13.3939 5.80864 13.5377 6.18931 13.56C6.56998 13.5824 6.94732 13.4821 7.25781 13.276L7.61223 13.5878C8.23517 14.1374 9.24797 14.1374 9.87198 13.5878C10.1512 13.3409 10.3059 13.0271 10.3338 12.7053C10.699 12.6803 11.0556 12.5454 11.3348 12.2996C11.614 12.0537 11.7687 11.7389 11.7966 11.4171C12.1564 11.3901 12.5076 11.2552 12.7847 11.0124C13.0006 10.8215 13.1424 10.5886 13.2068 10.3438C13.6794 10.3968 14.1724 10.2638 14.5343 9.94603C14.6811 9.81998 14.7983 9.66699 14.8785 9.49671C14.9586 9.32643 15 9.14255 15 8.95665C15 8.77076 14.9586 8.58687 14.8785 8.41659C14.7983 8.24632 14.6811 8.09333 14.5343 7.96727L13.8963 7.40562L14.0177 6.98588C14.2996 6.01348 14.1572 4.9768 13.6214 4.10169C12.832 2.8005 11.3036 2.003 9.65825 2.003H8.56382L8.4156 2H7.69601ZM12.3916 7.45359L12.9136 7.93329C12.9462 7.96278 12.9826 7.9883 13.0221 8.00924L13.7535 8.65284C13.7988 8.69124 13.8349 8.738 13.8597 8.79014C13.8844 8.84229 13.8972 8.89865 13.8972 8.95565C13.8972 9.01265 13.8844 9.06902 13.8597 9.12116C13.8349 9.1733 13.7988 9.22007 13.7535 9.25846C13.6601 9.33924 13.5373 9.38415 13.4098 9.38415C13.2823 9.38415 13.1595 9.33924 13.0661 9.25846L11.8417 8.18214C11.7356 8.0909 11.5964 8.04023 11.4519 8.04023C11.3074 8.04023 11.1682 8.0909 11.062 8.18214L11.0491 8.19213C10.9984 8.23609 10.9579 8.2893 10.9302 8.34844C10.9026 8.40759 10.8883 8.47141 10.8883 8.53591C10.8883 8.60042 10.9026 8.66424 10.9302 8.72339C10.9579 8.78253 10.9984 8.83574 11.0491 8.8797L12.0039 9.71918C12.0487 9.75781 12.0845 9.80466 12.109 9.85677C12.1334 9.90887 12.1461 9.96512 12.1461 10.022C12.1461 10.0788 12.1334 10.1351 12.109 10.1872C12.0845 10.2393 12.0487 10.2862 12.0039 10.3248C11.919 10.3987 11.8092 10.4431 11.6931 10.4504C11.5771 10.4576 11.4619 10.4274 11.367 10.3648C11.2589 10.2937 11.1278 10.2595 10.9958 10.2679C10.8637 10.2762 10.7388 10.3267 10.6421 10.4107C10.5485 10.4918 10.4917 10.603 10.4833 10.7217C10.475 10.8404 10.5156 10.9576 10.5969 11.0493C10.6689 11.1305 10.7046 11.2342 10.6966 11.3392C10.6886 11.4441 10.6375 11.5421 10.554 11.613C10.4679 11.6879 10.3563 11.7325 10.2386 11.7389C10.1209 11.7452 10.0045 11.7131 9.90957 11.648C9.80218 11.5747 9.6708 11.5383 9.53783 11.5451C9.40486 11.5518 9.27851 11.6012 9.18031 11.6849C9.08521 11.7659 9.02725 11.8778 9.01845 11.9974C9.00965 12.1171 9.05069 12.2353 9.13305 12.3275C9.28341 12.4974 9.26945 12.7443 9.09116 12.9012C8.996 12.9827 8.87142 13.0279 8.74211 13.0279C8.6128 13.0279 8.48821 12.9827 8.39305 12.9012L8.04721 12.5974L8.13743 12.5184C8.28426 12.3924 8.40145 12.2394 8.4816 12.0691C8.56174 11.8988 8.60312 11.7149 8.60312 11.529C8.60312 11.3431 8.56174 11.1593 8.4816 10.989C8.40145 10.8187 8.28426 10.6657 8.13743 10.5397C7.86302 10.2988 7.5065 10.1553 7.13 10.1339C7.1006 9.79509 6.93583 9.47882 6.66817 9.24747C6.3942 9.0065 6.03808 8.86257 5.66181 8.84072C5.63241 8.5019 5.46764 8.18563 5.19998 7.95428C5.02086 7.79887 4.80668 7.68268 4.5731 7.61421C4.33952 7.54574 4.09244 7.52671 3.84993 7.55853C3.77588 7.31574 3.63263 7.09612 3.43536 6.92292C3.27721 6.78491 3.09109 6.6776 2.88788 6.60725C2.68467 6.5369 2.46843 6.50492 2.25179 6.51318C2.19448 6.03646 2.25809 5.55388 2.43753 5.10418C2.61697 4.65448 2.90722 4.2502 3.285 3.9238C3.65504 3.60258 4.09169 3.35508 4.56817 3.19647C5.04466 3.03785 5.55094 2.97146 6.05598 3.00137L4.87992 3.79088C4.69944 3.9101 4.54722 4.06257 4.43271 4.23881C4.31819 4.41505 4.24382 4.61131 4.21421 4.81541C4.1846 5.01952 4.20039 5.2271 4.26059 5.42529C4.32079 5.62348 4.42411 5.80804 4.56416 5.96752C4.84665 6.28951 5.25006 6.49959 5.69274 6.55526C6.13542 6.61092 6.58429 6.508 6.94849 6.26733L8.3952 5.29794H9.94179L12.3916 7.45359ZM5.50823 4.60037L7.89578 2.99938H8.41668L8.55093 3.00237H9.65717C10.9374 3.00237 12.0974 3.62199 12.6859 4.59338C13.065 5.21599 13.1778 5.93254 13.0103 6.61811L10.6335 4.44147C10.5331 4.34989 10.3981 4.29858 10.2576 4.29856H8.22013C8.1076 4.29853 7.99789 4.33139 7.90652 4.3925L6.32126 5.45684C6.18006 5.54814 6.00721 5.58688 5.83681 5.56542C5.66642 5.54396 5.51086 5.46386 5.40082 5.34091C5.35232 5.28709 5.31643 5.22443 5.29544 5.15696C5.27445 5.08948 5.26884 5.01868 5.27895 4.94907C5.28905 4.87946 5.31467 4.81257 5.35415 4.7527C5.39363 4.69283 5.44611 4.64129 5.50823 4.60137M6.67032 11.2262C6.76384 11.1456 6.88671 11.1009 7.01422 11.1011C7.14173 11.1012 7.26444 11.1463 7.35769 11.2272C7.40296 11.2656 7.43912 11.3124 7.46386 11.3645C7.48861 11.4167 7.50139 11.473 7.50139 11.53C7.50139 11.587 7.48861 11.6434 7.46386 11.6956C7.43912 11.7477 7.40296 11.7945 7.35769 11.8329L6.63595 12.4675C6.54256 12.5482 6.41977 12.5931 6.29226 12.5931C6.16475 12.5931 6.04197 12.5482 5.94857 12.4675C5.90331 12.4291 5.86714 12.3823 5.8424 12.3302C5.81766 12.278 5.80488 12.2216 5.80488 12.1646C5.80488 12.1077 5.81766 12.0513 5.8424 11.9991C5.86714 11.947 5.90331 11.9002 5.94857 11.8618L6.67032 11.2262ZM5.89058 10.5387L5.16776 11.1753C5.07431 11.2563 4.9513 11.3014 4.82354 11.3014C4.69577 11.3014 4.57276 11.2563 4.47931 11.1753C4.43506 11.1377 4.39952 11.092 4.37488 11.0412C4.35024 10.9904 4.33701 10.9354 4.336 10.8796C4.335 10.8238 4.34624 10.7685 4.36903 10.7169C4.39183 10.6653 4.4257 10.6186 4.46857 10.5796L4.47931 10.5696L5.19998 9.93504L5.21072 9.92505C5.30488 9.84817 5.42639 9.80662 5.55165 9.80847C5.6769 9.81031 5.79693 9.85543 5.88843 9.93504C5.93349 9.97328 5.96952 10.0198 5.99424 10.0717C6.01896 10.1236 6.03182 10.1797 6.03203 10.2364C6.03223 10.2932 6.01976 10.3493 5.99541 10.4014C5.97106 10.4534 5.93536 10.5001 5.89058 10.5387ZM4.41917 9.24847L3.69957 9.88207L3.68776 9.89207C3.59367 9.96866 3.47237 10.01 3.34737 10.0082C3.22237 10.0064 3.10256 9.96141 3.01112 9.88207C2.96585 9.84368 2.92969 9.79691 2.90495 9.74477C2.88021 9.69263 2.86743 9.63626 2.86743 9.57926C2.86743 9.52227 2.88021 9.4659 2.90495 9.41375C2.92969 9.36161 2.96585 9.31485 3.01112 9.27645L3.73072 8.64285C3.82423 8.56149 3.94746 8.51623 4.07548 8.51623C4.2035 8.51623 4.32673 8.56149 4.42024 8.64285C4.46449 8.68046 4.50003 8.72608 4.52467 8.77692C4.54931 8.82776 4.56254 8.88275 4.56355 8.93851C4.56455 8.99427 4.55331 9.04964 4.53052 9.10122C4.50772 9.1528 4.47385 9.1995 4.43098 9.23848L4.41917 9.24847ZM2.65562 8.21512L1.93495 8.84972C1.84156 8.9305 1.71878 8.9754 1.59127 8.9754C1.46376 8.9754 1.34097 8.9305 1.24758 8.84972C1.20231 8.81132 1.16615 8.76456 1.14141 8.71242C1.11666 8.66028 1.10388 8.60391 1.10388 8.54691C1.10388 8.48991 1.11666 8.43354 1.14141 8.3814C1.16615 8.32926 1.20231 8.2825 1.24758 8.2441L1.96717 7.60949C2.06062 7.52843 2.18363 7.48335 2.3114 7.48335C2.43916 7.48335 2.56217 7.52843 2.65562 7.60949C2.70089 7.64789 2.73705 7.69466 2.76179 7.7468C2.78654 7.79894 2.79932 7.85531 2.79932 7.9123C2.79932 7.9693 2.78654 8.02567 2.76179 8.07781C2.73705 8.12995 2.70089 8.17672 2.65562 8.21512Z" fill="black"></path>
									</svg>