<svg id="Layer_1" data-name="Layer 1" xmlns="http://www.w3.org/2000/svg" width="179.28" height="179.28" viewBox="0 0 179.28 179.28">
  <defs>
    <style>
      .cls-1 {
        fill: #e7e7ea;
      }
    </style>
  </defs>
  <circle class="cls-1" cx="89.64" cy="89.64" r="89.64"/>
  <path d="M-294.18,34.53l-19.46,19.56a90.22,90.22,0,0,1-7.13,7c-1.25,1-3.22,1.09-4.86,1.59.52-1.71.53-3.9,1.64-5,8.59-8.81,17.4-17.41,26.93-26.86-4.47-4.25-8.69-8.19-12.81-12.21-4.29-4.19-8.61-8.36-12.68-12.76-1.67-1.8-5.6-3.26-2.55-6.6.4-.43,4.13,1.48,5.68,3,7.32,7,14.42,14.31,21.61,21.48,1.16,1.15,2.38,2.24,4,3.75l19.45-19.56a90.22,90.22,0,0,1,7.13-7c1.24-1,3.21-1.1,4.85-1.6-.51,1.7-.52,3.9-1.62,5-8.58,8.82-17.38,17.43-27.27,27.26,4.34,3.86,8.49,7.37,12.43,11.12,4.7,4.48,9.27,9.1,13.76,13.79,1.65,1.72,5.08,3.29,2.2,6.27-.45.46-3.91-1.25-5.34-2.63-7.44-7.16-14.66-14.54-22-21.83C-291.36,37.11-292.58,36-294.18,34.53Z" transform="translate(383.64 58.67)"/>
</svg>
