<svg width="16" height="17" viewBox="0 0 16 17" fill="none" xmlns="http://www.w3.org/2000/svg">
									<path d="M6.10671 7.74665C6.04004 7.73998 5.96004 7.73998 5.88671 7.74665C4.30004 7.69331 3.04004 6.39331 3.04004 4.79331C3.04004 3.15998 4.36004 1.83331 6.00004 1.83331C7.63337 1.83331 8.96004 3.15998 8.96004 4.79331C8.95337 6.39331 7.69337 7.69331 6.10671 7.74665Z" stroke="black" stroke-width="1.5" stroke-linecap="round" stroke-linejoin="round"></path>
									<path d="M10.9401 3.16669C12.2334 3.16669 13.2734 4.21335 13.2734 5.50002C13.2734 6.76002 12.2734 7.78669 11.0267 7.83335C10.9734 7.82669 10.9134 7.82669 10.8534 7.83335" stroke="black" stroke-width="1.5" stroke-linecap="round" stroke-linejoin="round"></path>
									<path d="M2.77335 10.2067C1.16002 11.2867 1.16002 13.0467 2.77335 14.12C4.60669 15.3467 7.61335 15.3467 9.44669 14.12C11.06 13.04 11.06 11.28 9.44669 10.2067C7.62002 8.98669 4.61335 8.98669 2.77335 10.2067Z" stroke="black" stroke-width="1.5" stroke-linecap="round" stroke-linejoin="round"></path>
									<path d="M12.2267 13.8333C12.7067 13.7333 13.16 13.54 13.5334 13.2533C14.5734 12.4733 14.5734 11.1866 13.5334 10.4066C13.1667 10.1266 12.72 9.93998 12.2467 9.83331" stroke="black" stroke-width="1.5" stroke-linecap="round" stroke-linejoin="round"></path>
								</svg>