<svg width="16" height="17" viewBox="0 0 16 17" fill="none" xmlns="http://www.w3.org/2000/svg">
									<path d="M7.33337 1.83334H6.00004C2.66671 1.83334 1.33337 3.16668 1.33337 6.50001V10.5C1.33337 13.8333 2.66671 15.1667 6.00004 15.1667H10C13.3334 15.1667 14.6667 13.8333 14.6667 10.5V9.16668" stroke="black" stroke-width="1.5" stroke-linecap="round" stroke-linejoin="round"></path>
									<path d="M10.693 2.51311L5.43967 7.76644C5.23967 7.96644 5.03968 8.35977 4.99968 8.64644L4.71301 10.6531C4.60634 11.3798 5.11968 11.8864 5.84634 11.7864L7.85301 11.4998C8.13301 11.4598 8.52634 11.2598 8.73301 11.0598L13.9863 5.80644C14.893 4.89977 15.3197 3.84644 13.9863 2.51311C12.653 1.17977 11.5997 1.60644 10.693 2.51311Z" stroke="black" stroke-width="1.5" stroke-miterlimit="10" stroke-linecap="round" stroke-linejoin="round"></path>
									<path d="M9.94006 3.26666C10.3867 4.86 11.6334 6.10666 13.2334 6.56" stroke="black" stroke-width="1.5" stroke-miterlimit="10" stroke-linecap="round" stroke-linejoin="round"></path>
								</svg>