<svg width="18" height="19" viewBox="0 0 18 19" fill="none" xmlns="http://www.w3.org/2000/svg">
										<path d="M5.33325 1.96794V3.96794" stroke="black" stroke-width="1.5" stroke-miterlimit="10" stroke-linecap="round" stroke-linejoin="round"></path>
										<path d="M10.6667 1.96794V3.96794" stroke="black" stroke-width="1.5" stroke-miterlimit="10" stroke-linecap="round" stroke-linejoin="round"></path>
										<path d="M2.33325 6.69458H13.6666" stroke="black" stroke-width="1.5" stroke-miterlimit="10" stroke-linecap="round" stroke-linejoin="round"></path>
										<path d="M14 6.30127V11.9679C14 13.9679 13 15.3013 10.6667 15.3013H5.33333C3 15.3013 2 13.9679 2 11.9679V6.30127C2 4.30127 3 2.96794 5.33333 2.96794H10.6667C13 2.96794 14 4.30127 14 6.30127Z" stroke="black" stroke-width="1.5" stroke-miterlimit="10" stroke-linejoin="round"></path>
										<path d="M10.4632 9.76795H10.4692" stroke="black" stroke-width="1.5" stroke-linecap="round" stroke-linejoin="round"></path>
										<path d="M10.4632 11.7679H10.4692" stroke="black" stroke-width="1.5" stroke-linecap="round" stroke-linejoin="round"></path>
										<path d="M7.99691 9.76795H8.0029" stroke="black" stroke-width="1.5" stroke-linecap="round" stroke-linejoin="round"></path>
										<path d="M7.99691 11.7679H8.0029" stroke="black" stroke-width="1.5" stroke-linecap="round" stroke-linejoin="round"></path>
										<path d="M5.52962 9.76795H5.53561" stroke="black" stroke-width="1.5" stroke-linecap="round" stroke-linejoin="round"></path>
										<path d="M5.52962 11.7679H5.53561" stroke="black" stroke-width="1.5" stroke-linecap="round" stroke-linejoin="round"></path>
										<path d="M12.6154 18.3654C13.5282 18.3654 14.4206 18.0947 15.1796 17.5876C15.9386 17.0804 16.5301 16.3596 16.8794 15.5162C17.2288 14.6729 17.3202 13.7449 17.1421 12.8496C16.964 11.9543 16.5244 11.1319 15.879 10.4864C15.2335 9.84096 14.4111 9.40138 13.5158 9.2233C12.6205 9.04521 11.6925 9.13661 10.8492 9.48594C10.0058 9.83527 9.28498 10.4268 8.77783 11.1858C8.27069 11.9448 8 12.8372 8 13.75C8.00132 14.9737 8.48801 16.1468 9.35328 17.0121C10.2185 17.8774 11.3917 18.3641 12.6154 18.3654ZM13.3657 17.7885C14.1264 17.7885 13.7137 16.8808 14.3462 17.3034C14.9787 17.726 15.4012 15.9318 15.6923 16.6346C15.9834 17.3374 16.536 13.7543 16.3876 14.5003C16.2392 15.2464 15.8729 15.9317 15.335 16.4696C14.7971 17.0075 14.1118 17.3738 13.3657 17.5223C12.6197 17.6707 15.4336 17.6036 14.7308 17.3125C14.028 17.0214 15.9226 17.2671 15.5 16.6346C15.0774 16.0021 15.6923 16.8184 15.6923 16.0577C15.6934 15.038 15.3559 16.1476 16.0769 15.4265C16.798 14.7054 12.346 17.7896 13.3657 17.7885Z" fill="black"></path>
										<path d="M13.0007 15.2883H12.2315C12.1295 15.2883 12.0316 15.2478 11.9595 15.1757C11.8874 15.1035 11.8469 15.0057 11.8469 14.9037C11.8469 14.8017 11.8063 14.7039 11.7342 14.6317C11.6621 14.5596 11.5643 14.5191 11.4623 14.5191C11.3602 14.5191 11.2624 14.5596 11.1903 14.6317C11.1182 14.7039 11.0776 14.8017 11.0776 14.9037C11.0776 15.2097 11.1992 15.5032 11.4156 15.7196C11.632 15.936 11.9255 16.0576 12.2315 16.0576V16.4422C12.2315 16.5442 12.272 16.642 12.3441 16.7141C12.4163 16.7863 12.5141 16.8268 12.6161 16.8268C12.7181 16.8268 12.8159 16.7863 12.8881 16.7141C12.9602 16.642 13.0007 16.5442 13.0007 16.4422V16.0576C13.3067 16.0576 13.6002 15.936 13.8166 15.7196C14.033 15.5032 14.1546 15.2097 14.1546 14.9037V14.5191C14.1546 14.2131 14.033 13.9196 13.8166 13.7032C13.6002 13.4868 13.3067 13.3653 13.0007 13.3653H12.2315C12.1295 13.3653 12.0316 13.3247 11.9595 13.2526C11.8874 13.1805 11.8469 13.0826 11.8469 12.9806V12.596C11.8469 12.494 11.8874 12.3962 11.9595 12.3241C12.0316 12.2519 12.1295 12.2114 12.2315 12.2114H13.0007C13.1027 12.2114 13.2005 12.2519 13.2727 12.3241C13.3448 12.3962 13.3853 12.494 13.3853 12.596C13.3853 12.698 13.4259 12.7959 13.498 12.868C13.5701 12.9401 13.6679 12.9806 13.7699 12.9806C13.872 12.9806 13.9698 12.9401 14.0419 12.868C14.114 12.7959 14.1546 12.698 14.1546 12.596C14.1546 12.29 14.033 11.9965 13.8166 11.7801C13.6002 11.5637 13.3067 11.4422 13.0007 11.4422V11.0576C13.0007 10.9556 12.9602 10.8577 12.8881 10.7856C12.8159 10.7135 12.7181 10.6729 12.6161 10.6729C12.5141 10.6729 12.4163 10.7135 12.3441 10.7856C12.272 10.8577 12.2315 10.9556 12.2315 11.0576V11.4422C11.9255 11.4422 11.632 11.5637 11.4156 11.7801C11.1992 11.9965 11.0776 12.29 11.0776 12.596V12.9806C11.0776 13.2867 11.1992 13.5801 11.4156 13.7965C11.632 14.0129 11.9255 14.1345 12.2315 14.1345H13.0007C13.1027 14.1345 13.2005 14.175 13.2727 14.2471C13.3448 14.3193 13.3853 14.4171 13.3853 14.5191V14.9037C13.3853 15.0057 13.3448 15.1035 13.2727 15.1757C13.2005 15.2478 13.1027 15.2883 13.0007 15.2883Z" fill="white"></path>
									</svg>