<svg width="20" height="19" viewBox="0 0 20 19" fill="none" xmlns="http://www.w3.org/2000/svg">
										<path d="M16.9228 10.6539C16.9218 9.73615 16.5568 8.85628 15.9078 8.20734C15.2589 7.55839 14.379 7.19337 13.4613 7.19235H6.5382C5.62014 7.19235 4.73969 7.55705 4.09052 8.20621C3.44136 8.85538 3.07666 9.73583 3.07666 10.6539C3.07666 11.5719 3.44136 12.4524 4.09052 13.1016C4.73969 13.7507 5.62014 14.1154 6.5382 14.1154H9.61512V17.577C9.61514 17.653 9.6377 17.7274 9.67997 17.7906C9.72223 17.8538 9.78229 17.9031 9.85256 17.9322C9.92283 17.9613 10.0002 17.9689 10.0747 17.9541C10.1493 17.9393 10.2179 17.9027 10.2717 17.8489L11.4328 16.6877L12.3459 18.5181C12.3685 18.5633 12.3997 18.6037 12.4379 18.6368C12.476 18.6699 12.5203 18.6952 12.5683 18.7112C12.6162 18.7272 12.6668 18.7336 12.7172 18.7301C12.7676 18.7265 12.8168 18.713 12.862 18.6904L14.4005 17.9212C14.4457 17.8986 14.4861 17.8674 14.5192 17.8292C14.5523 17.7911 14.5776 17.7468 14.5936 17.6988C14.6096 17.6509 14.616 17.6003 14.6125 17.5499C14.6089 17.4995 14.5954 17.4502 14.5728 17.405L13.699 15.6539H15.3844C15.4604 15.6539 15.5348 15.6313 15.598 15.589C15.6612 15.5468 15.7105 15.4867 15.7396 15.4165C15.7687 15.3462 15.7763 15.2689 15.7615 15.1943C15.7467 15.1197 15.71 15.0511 15.6563 14.9974L14.5851 13.9262C15.2667 13.6916 15.8582 13.2504 16.2772 12.6638C16.6962 12.0773 16.9219 11.3747 16.9228 10.6539ZM13.0767 14.8847C13.0109 14.8843 12.9462 14.9008 12.8887 14.9326C12.8311 14.9643 12.7827 15.0103 12.748 15.0661C12.7132 15.1219 12.6934 15.1857 12.6904 15.2514C12.6873 15.3171 12.7011 15.3824 12.7305 15.4412L13.7124 17.405L12.862 17.83L11.8844 15.8666C11.8571 15.812 11.8172 15.7647 11.7681 15.7286C11.7189 15.6925 11.6619 15.6686 11.6017 15.6589C11.5807 15.6554 11.5595 15.6537 11.5382 15.6539C11.4362 15.6539 11.3384 15.6944 11.2663 15.7666L10.3844 16.6485V10.8131L14.4559 14.8847H13.0767ZM13.957 13.2977L10.2717 9.61274C10.2179 9.55896 10.1493 9.52235 10.0747 9.50751C10.0002 9.49268 9.92283 9.50029 9.85256 9.5294C9.78229 9.5585 9.72223 9.60779 9.67997 9.67102C9.6377 9.73426 9.61514 9.8086 9.61512 9.88466V13.3462H6.5382C5.82415 13.3462 5.13936 13.0625 4.63445 12.5576C4.12954 12.0527 3.84589 11.3679 3.84589 10.6539C3.84589 9.93985 4.12954 9.25505 4.63445 8.75014C5.13936 8.24524 5.82415 7.96158 6.5382 7.96158H13.4613C14.13 7.96471 14.7737 8.21662 15.2669 8.66825C15.7601 9.11988 16.0676 9.73891 16.1294 10.4048C16.1913 11.0707 16.0031 11.7358 15.6016 12.2705C15.2 12.8053 14.6138 13.1715 13.957 13.2977Z" fill="black" stroke="black" stroke-width="0.2"></path>
										<path d="M0.384615 11.0384H1.92308C2.02508 11.0384 2.12291 10.9978 2.19504 10.9257C2.26717 10.8536 2.30769 10.7558 2.30769 10.6537C2.30769 10.5517 2.26717 10.4539 2.19504 10.3818C2.12291 10.3097 2.02508 10.2691 1.92308 10.2691H0.384615C0.282609 10.2691 0.184781 10.3097 0.112651 10.3818C0.0405219 10.4539 0 10.5517 0 10.6537C0 10.7558 0.0405219 10.8536 0.112651 10.9257C0.184781 10.9978 0.282609 11.0384 0.384615 11.0384Z" fill="black"></path>
										<path d="M2.07011 11.8711L0.624341 12.3973C0.575959 12.4138 0.531365 12.4399 0.493167 12.4739C0.454969 12.5079 0.423934 12.5491 0.401877 12.5953C0.37982 12.6414 0.367185 12.6915 0.364709 12.7426C0.362233 12.7936 0.369968 12.8447 0.387459 12.8927C0.404951 12.9408 0.431849 12.9849 0.46658 13.0224C0.501311 13.0599 0.543177 13.0902 0.58973 13.1113C0.636284 13.1325 0.686588 13.1441 0.737703 13.1456C0.788817 13.1471 0.839714 13.1384 0.887417 13.12L2.3328 12.5934C2.38219 12.5777 2.42789 12.5522 2.46716 12.5184C2.50643 12.4845 2.53846 12.4431 2.56132 12.3966C2.58419 12.3501 2.59742 12.2995 2.60022 12.2477C2.60302 12.196 2.59533 12.1442 2.57762 12.0955C2.55991 12.0468 2.53253 12.0021 2.49714 11.9643C2.46175 11.9264 2.41907 11.8961 2.37167 11.8752C2.32427 11.8542 2.27312 11.843 2.2213 11.8423C2.16948 11.8417 2.11805 11.8514 2.07011 11.8711Z" fill="black"></path>
										<path d="M2.3328 8.71425L0.887418 8.18772C0.839714 8.1693 0.788817 8.16057 0.737703 8.16206C0.686589 8.16354 0.636284 8.17521 0.589731 8.19637C0.543177 8.21752 0.501311 8.24775 0.46658 8.28528C0.431849 8.32282 0.404951 8.3669 0.387459 8.41495C0.369968 8.463 0.362233 8.51406 0.364709 8.56513C0.367185 8.61621 0.37982 8.66628 0.401877 8.71241C0.423934 8.75855 0.45497 8.79982 0.493167 8.83382C0.531365 8.86781 0.575959 8.89385 0.624341 8.91041L2.07011 9.43656C2.11219 9.45222 2.15675 9.46017 2.20165 9.46002C2.29191 9.45976 2.3792 9.42776 2.44825 9.36963C2.5173 9.31149 2.5637 9.23092 2.57933 9.14203C2.59497 9.05313 2.57884 8.96157 2.53377 8.88336C2.4887 8.80516 2.41756 8.7453 2.3328 8.71425Z" fill="black"></path>
										<path d="M20.0001 10.6537C20.0001 10.5517 19.9596 10.4539 19.8874 10.3818C19.8153 10.3097 19.7175 10.2691 19.6155 10.2691H18.077C17.975 10.2691 17.8772 10.3097 17.805 10.3818C17.7329 10.4539 17.6924 10.5517 17.6924 10.6537C17.6924 10.7558 17.7329 10.8536 17.805 10.9257C17.8772 10.9978 17.975 11.0384 18.077 11.0384H19.6155C19.7175 11.0384 19.8153 10.9978 19.8874 10.9257C19.9596 10.8536 20.0001 10.7558 20.0001 10.6537Z" fill="black"></path>
										<path d="M17.7985 9.46155C17.8434 9.46169 17.888 9.45374 17.9301 9.43809L19.3758 8.91193C19.4242 8.89538 19.4688 8.86934 19.507 8.83534C19.5452 8.80134 19.5763 8.76007 19.5983 8.71394C19.6204 8.6678 19.633 8.61773 19.6355 8.56666C19.638 8.51558 19.6302 8.46452 19.6127 8.41647C19.5952 8.36842 19.5683 8.32434 19.5336 8.28681C19.4989 8.24928 19.457 8.21905 19.4105 8.19789C19.3639 8.17673 19.3136 8.16507 19.2625 8.16358C19.2114 8.1621 19.1605 8.17082 19.1128 8.18924L17.6674 8.71578C17.5826 8.74682 17.5115 8.80668 17.4664 8.88489C17.4213 8.96309 17.4052 9.05466 17.4209 9.14355C17.4365 9.23245 17.4829 9.31302 17.5519 9.37115C17.621 9.42929 17.7083 9.46129 17.7985 9.46155Z" fill="black"></path>
										<path d="M17.6674 12.5934L19.1128 13.12C19.1605 13.1384 19.2114 13.1471 19.2625 13.1456C19.3136 13.1441 19.3639 13.1325 19.4105 13.1113C19.457 13.0902 19.4989 13.0599 19.5336 13.0224C19.5683 12.9849 19.5952 12.9408 19.6127 12.8927C19.6302 12.8447 19.638 12.7936 19.6355 12.7426C19.633 12.6915 19.6204 12.6414 19.5983 12.5953C19.5763 12.5491 19.5452 12.5079 19.507 12.4739C19.4688 12.4399 19.4242 12.4138 19.3759 12.3973L17.9301 11.8711C17.8821 11.8514 17.8307 11.8417 17.7789 11.8423C17.7271 11.843 17.6759 11.8542 17.6285 11.8752C17.5811 11.8961 17.5384 11.9264 17.5031 11.9643C17.4677 12.0021 17.4403 12.0468 17.4226 12.0955C17.4049 12.1442 17.3972 12.196 17.4 12.2477C17.4028 12.2995 17.416 12.3501 17.4389 12.3966C17.4617 12.4431 17.4938 12.4845 17.533 12.5184C17.5723 12.5522 17.618 12.5777 17.6674 12.5934Z" fill="black"></path>
										<path d="M5.76895 9.49991C6.68179 9.49991 7.57412 9.22922 8.33312 8.72207C9.09212 8.21493 9.68368 7.4941 10.033 6.65075C10.3823 5.8074 10.4737 4.8794 10.2956 3.9841C10.1176 3.08881 9.67799 2.26642 9.03252 1.62095C8.38704 0.975478 7.56466 0.535906 6.66937 0.35782C5.77407 0.179734 4.84607 0.271134 4.00272 0.620462C3.15937 0.969789 2.43854 1.56135 1.9314 2.32035C1.42425 3.07935 1.15356 3.97168 1.15356 4.88452C1.15489 6.10819 1.64158 7.28136 2.50684 8.14663C3.37211 9.0119 4.54528 9.49858 5.76895 9.49991ZM6.5193 8.92298C7.27999 8.92298 6.86722 8.01528 7.49972 8.4379C8.13221 8.86053 8.55477 7.06634 8.84587 7.76913C9.13698 8.47193 9.6896 4.88879 9.5412 5.63487C9.3928 6.38095 9.02648 7.06627 8.48859 7.60416C7.9507 8.14206 7.26538 8.50837 6.5193 8.65677C5.77322 8.80518 8.58713 8.73814 7.88433 8.44703C7.18154 8.15593 9.07618 8.40163 8.65356 7.76913C8.23094 7.13664 8.84587 7.95291 8.84587 7.19221C8.84699 6.17249 8.50944 7.28207 9.23049 6.56102C9.95154 5.83997 5.49958 8.9241 6.5193 8.92298Z" fill="black"></path>
										<path d="M6.15403 6.42291H5.3848C5.2828 6.42291 5.18497 6.38239 5.11284 6.31026C5.04071 6.23813 5.00019 6.1403 5.00019 6.03829C5.00019 5.93629 4.95967 5.83846 4.88754 5.76633C4.81541 5.6942 4.71758 5.65368 4.61557 5.65368C4.51357 5.65368 4.41574 5.6942 4.34361 5.76633C4.27148 5.83846 4.23096 5.93629 4.23096 6.03829C4.23096 6.34431 4.35252 6.6378 4.56891 6.85419C4.7853 7.07058 5.07878 7.19214 5.3848 7.19214V7.57676C5.3848 7.67876 5.42532 7.77659 5.49745 7.84872C5.56958 7.92085 5.66741 7.96137 5.76942 7.96137C5.87142 7.96137 5.96925 7.92085 6.04138 7.84872C6.11351 7.77659 6.15403 7.67876 6.15403 7.57676V7.19214C6.46005 7.19214 6.75354 7.07058 6.96993 6.85419C7.18631 6.6378 7.30788 6.34431 7.30788 6.03829V5.65368C7.30788 5.34766 7.18631 5.05417 6.96993 4.83779C6.75354 4.6214 6.46005 4.49983 6.15403 4.49983H5.3848C5.2828 4.49983 5.18497 4.45931 5.11284 4.38718C5.04071 4.31505 5.00019 4.21722 5.00019 4.11522V3.7306C5.00019 3.6286 5.04071 3.53077 5.11284 3.45864C5.18497 3.38651 5.2828 3.34599 5.3848 3.34599H6.15403C6.25604 3.34599 6.35387 3.38651 6.426 3.45864C6.49813 3.53077 6.53865 3.6286 6.53865 3.7306C6.53865 3.83261 6.57917 3.93044 6.6513 4.00257C6.72343 4.0747 6.82126 4.11522 6.92326 4.11522C7.02527 4.11522 7.1231 4.0747 7.19523 4.00257C7.26736 3.93044 7.30788 3.83261 7.30788 3.7306C7.30788 3.42458 7.18631 3.1311 6.96993 2.91471C6.75354 2.69832 6.46005 2.57676 6.15403 2.57676V2.19214C6.15403 2.09013 6.11351 1.99231 6.04138 1.92018C5.96925 1.84805 5.87142 1.80753 5.76942 1.80753C5.66741 1.80753 5.56958 1.84805 5.49745 1.92018C5.42532 1.99231 5.3848 2.09013 5.3848 2.19214V2.57676C5.07878 2.57676 4.7853 2.69832 4.56891 2.91471C4.35252 3.1311 4.23096 3.42458 4.23096 3.7306V4.11522C4.23096 4.42124 4.35252 4.71472 4.56891 4.93111C4.7853 5.1475 5.07878 5.26906 5.3848 5.26906H6.15403C6.25604 5.26906 6.35387 5.30959 6.426 5.38171C6.49813 5.45384 6.53865 5.55167 6.53865 5.65368V6.03829C6.53865 6.1403 6.49813 6.23813 6.426 6.31026C6.35387 6.38239 6.25604 6.42291 6.15403 6.42291Z" fill="white"></path>
									</svg>