<svg width="20" height="19" viewBox="0 0 20 19" fill="none" xmlns="http://www.w3.org/2000/svg">
										<path d="M16.9231 10.6538C16.922 9.73607 16.557 8.85621 15.9081 8.20727C15.2591 7.55832 14.3793 7.1933 13.4615 7.19228H6.53844C5.62039 7.19228 4.73993 7.55698 4.09077 8.20614C3.4416 8.85531 3.0769 9.73576 3.0769 10.6538C3.0769 11.5719 3.4416 12.4523 4.09077 13.1015C4.73993 13.7507 5.62039 14.1154 6.53844 14.1154H9.61537V17.5769C9.61538 17.653 9.63795 17.7273 9.68021 17.7905C9.72247 17.8538 9.78254 17.9031 9.85281 17.9322C9.92308 17.9613 10.0004 17.9689 10.075 17.954C10.1496 17.9392 10.2181 17.9026 10.2719 17.8488L11.4331 16.6877L12.3461 18.518C12.3687 18.5633 12.3999 18.6036 12.4381 18.6367C12.4763 18.6699 12.5206 18.6952 12.5685 18.7112C12.6164 18.7272 12.6671 18.7336 12.7175 18.73C12.7679 18.7264 12.8171 18.713 12.8623 18.6904L14.4008 17.9211C14.446 17.8986 14.4863 17.8673 14.5194 17.8292C14.5526 17.791 14.5779 17.7467 14.5939 17.6988C14.6099 17.6508 14.6163 17.6002 14.6127 17.5498C14.6091 17.4994 14.5957 17.4502 14.5731 17.405L13.6992 15.6538H15.3846C15.4607 15.6538 15.535 15.6312 15.5982 15.589C15.6615 15.5467 15.7108 15.4866 15.7399 15.4164C15.769 15.3461 15.7766 15.2688 15.7617 15.1942C15.7469 15.1196 15.7103 15.0511 15.6565 14.9973L14.5854 13.9261C15.267 13.6916 15.8584 13.2503 16.2774 12.6638C16.6964 12.0772 16.9221 11.3746 16.9231 10.6538ZM13.0769 14.8846C13.0112 14.8842 12.9464 14.9007 12.8889 14.9325C12.8314 14.9643 12.7829 15.0102 12.7482 15.0661C12.7135 15.1219 12.6937 15.1857 12.6906 15.2513C12.6875 15.317 12.7014 15.3823 12.7307 15.4411L13.7127 17.405L12.8623 17.83L11.8846 15.8665C11.8573 15.812 11.8175 15.7647 11.7683 15.7286C11.7192 15.6924 11.6621 15.6685 11.6019 15.6588C11.5809 15.6553 11.5597 15.6537 11.5384 15.6538C11.4364 15.6538 11.3386 15.6944 11.2665 15.7665L10.3846 16.6484V10.813L14.4561 14.8846H13.0769ZM13.9573 13.2977L10.2719 9.61266C10.2181 9.55889 10.1496 9.52227 10.075 9.50744C10.0004 9.49261 9.92308 9.50022 9.85281 9.52933C9.78254 9.55843 9.72247 9.60772 9.68021 9.67095C9.63795 9.73418 9.61538 9.80853 9.61537 9.88459V13.3461H6.53844C5.8244 13.3461 5.1396 13.0625 4.63469 12.5576C4.12979 12.0527 3.84614 11.3679 3.84614 10.6538C3.84614 9.93977 4.12979 9.25497 4.63469 8.75007C5.1396 8.24516 5.8244 7.96151 6.53844 7.96151H13.4615C14.1303 7.96464 14.7739 8.21655 15.2671 8.66818C15.7603 9.11981 16.0678 9.73884 16.1297 10.4047C16.1915 11.0706 16.0034 11.7357 15.6018 12.2705C15.2002 12.8052 14.614 13.1714 13.9573 13.2977Z" fill="black" stroke="black" stroke-width="0.2"></path>
										<path d="M0.384615 11.0385H1.92308C2.02508 11.0385 2.12291 10.9979 2.19504 10.9258C2.26717 10.8537 2.30769 10.7559 2.30769 10.6539C2.30769 10.5518 2.26717 10.454 2.19504 10.3819C2.12291 10.3098 2.02508 10.2692 1.92308 10.2692H0.384615C0.282609 10.2692 0.184781 10.3098 0.112651 10.3819C0.0405219 10.454 0 10.5518 0 10.6539C0 10.7559 0.0405219 10.8537 0.112651 10.9258C0.184781 10.9979 0.282609 11.0385 0.384615 11.0385Z" fill="black"></path>
										<path d="M2.06987 11.8711L0.624096 12.3972C0.575715 12.4138 0.531121 12.4398 0.492923 12.4738C0.454725 12.5078 0.42369 12.5491 0.401633 12.5952C0.379576 12.6414 0.36694 12.6914 0.364465 12.7425C0.361989 12.7936 0.369723 12.8446 0.387215 12.8927C0.404707 12.9408 0.431605 12.9848 0.466336 13.0224C0.501067 13.0599 0.542933 13.0901 0.589486 13.1113C0.636039 13.1324 0.686344 13.1441 0.737459 13.1456C0.788573 13.1471 0.83947 13.1384 0.887173 13.1199L2.33256 12.5934C2.38194 12.5777 2.42764 12.5521 2.46691 12.5183C2.50618 12.4845 2.53821 12.4431 2.56108 12.3966C2.58395 12.3501 2.59718 12.2994 2.59998 12.2477C2.60278 12.1959 2.59509 12.1441 2.57738 12.0954C2.55966 12.0467 2.53229 12.0021 2.4969 11.9642C2.46151 11.9264 2.41883 11.8961 2.37143 11.8751C2.32403 11.8542 2.27288 11.843 2.22106 11.8423C2.16924 11.8416 2.11781 11.8514 2.06987 11.8711Z" fill="black"></path>
										<path d="M2.33256 8.7142L0.887173 8.18766C0.83947 8.16924 0.788573 8.16052 0.737459 8.16201C0.686344 8.16349 0.636039 8.17515 0.589486 8.19631C0.542933 8.21747 0.501067 8.2477 0.466336 8.28523C0.431605 8.32276 0.404707 8.36684 0.387215 8.4149C0.369723 8.46295 0.361989 8.514 0.364465 8.56508C0.36694 8.61616 0.379576 8.66622 0.401633 8.71236C0.42369 8.75849 0.454725 8.79977 0.492923 8.83376C0.531121 8.86776 0.575715 8.8938 0.624096 8.91035L2.06987 9.43651C2.11195 9.45216 2.1565 9.46011 2.2014 9.45997C2.29167 9.45971 2.37896 9.42771 2.44801 9.36957C2.51705 9.31144 2.56345 9.23087 2.57909 9.14197C2.59472 9.05308 2.57859 8.96151 2.53352 8.88331C2.48845 8.8051 2.41731 8.74524 2.33256 8.7142Z" fill="black"></path>
										<path d="M20.0003 10.6539C20.0003 10.5518 19.9598 10.454 19.8877 10.3819C19.8155 10.3098 19.7177 10.2692 19.6157 10.2692H18.0772C17.9752 10.2692 17.8774 10.3098 17.8053 10.3819C17.7331 10.454 17.6926 10.5518 17.6926 10.6539C17.6926 10.7559 17.7331 10.8537 17.8053 10.9258C17.8774 10.9979 17.9752 11.0385 18.0772 11.0385H19.6157C19.7177 11.0385 19.8155 10.9979 19.8877 10.9258C19.9598 10.8537 20.0003 10.7559 20.0003 10.6539Z" fill="black"></path>
										<path d="M17.7985 9.46147C17.8434 9.46161 17.888 9.45367 17.9301 9.43801L19.3758 8.91186C19.4242 8.8953 19.4688 8.86926 19.507 8.83526C19.5452 8.80127 19.5763 8.76 19.5983 8.71386C19.6204 8.66773 19.633 8.61766 19.6355 8.56658C19.638 8.51551 19.6302 8.46445 19.6127 8.4164C19.5952 8.36835 19.5683 8.32427 19.5336 8.28673C19.4989 8.2492 19.457 8.21897 19.4105 8.19781C19.3639 8.17665 19.3136 8.16499 19.2625 8.16351C19.2114 8.16202 19.1605 8.17074 19.1128 8.18916L17.6674 8.7157C17.5826 8.74674 17.5115 8.80661 17.4664 8.88481C17.4213 8.96302 17.4052 9.05458 17.4209 9.14348C17.4365 9.23237 17.4829 9.31294 17.5519 9.37108C17.621 9.42921 17.7083 9.46121 17.7985 9.46147Z" fill="black"></path>
										<path d="M17.6669 12.5934L19.1123 13.1199C19.16 13.1384 19.2109 13.1471 19.262 13.1456C19.3131 13.1441 19.3634 13.1324 19.41 13.1113C19.4565 13.0901 19.4984 13.0599 19.5331 13.0224C19.5679 12.9848 19.5948 12.9408 19.6123 12.8927C19.6297 12.8446 19.6375 12.7936 19.635 12.7425C19.6325 12.6914 19.6199 12.6414 19.5978 12.5952C19.5758 12.5491 19.5447 12.5078 19.5065 12.4738C19.4683 12.4398 19.4238 12.4138 19.3754 12.3972L17.9296 11.8711C17.8817 11.8514 17.8302 11.8416 17.7784 11.8423C17.7266 11.843 17.6754 11.8542 17.628 11.8751C17.5806 11.8961 17.538 11.9264 17.5026 11.9642C17.4672 12.0021 17.4398 12.0467 17.4221 12.0954C17.4044 12.1441 17.3967 12.1959 17.3995 12.2477C17.4023 12.2994 17.4155 12.3501 17.4384 12.3966C17.4613 12.4431 17.4933 12.4845 17.5326 12.5183C17.5718 12.5521 17.6175 12.5777 17.6669 12.5934Z" fill="black"></path>
										<path d="M5.76919 9.49989C6.68203 9.49989 7.57437 9.22921 8.33336 8.72206C9.09236 8.21492 9.68392 7.49409 10.0333 6.65074C10.3826 5.80739 10.474 4.87939 10.2959 3.98409C10.1178 3.08879 9.67824 2.26641 9.03276 1.62094C8.38729 0.975465 7.56491 0.535892 6.66961 0.357807C5.77431 0.179721 4.84631 0.271121 4.00296 0.620449C3.15961 0.969776 2.43879 1.56134 1.93164 2.32034C1.4245 3.07933 1.15381 3.97167 1.15381 4.88451C1.15513 6.10818 1.64182 7.28135 2.50709 8.14662C3.37235 9.01188 4.54552 9.49857 5.76919 9.49989ZM6.51954 8.92297C7.28024 8.92297 6.86747 8.01527 7.49996 8.43789C8.13246 8.86051 8.55501 7.06633 8.84612 7.76912C9.13722 8.47191 9.68985 4.88877 9.54144 5.63486C9.39304 6.38094 9.02673 7.06626 8.48883 7.60415C7.95094 8.14204 7.26562 8.50836 6.51954 8.65676C5.77346 8.80517 8.58737 8.73813 7.88458 8.44702C7.18179 8.15591 9.07643 8.40162 8.65381 7.76912C8.23119 7.13663 8.84612 7.9529 8.84612 7.1922C8.84724 6.17248 8.50968 7.28206 9.23073 6.56101C9.95178 5.83996 5.49982 8.92409 6.51954 8.92297Z" fill="black"></path>
										<path d="M4.65806 4.20078C4.89408 4.20078 5.08541 4.00945 5.08541 3.77343C5.08541 3.53741 4.89408 3.34608 4.65806 3.34608C4.42204 3.34608 4.23071 3.53741 4.23071 3.77343C4.23071 4.00945 4.42204 4.20078 4.65806 4.20078Z" fill="white" stroke="white" stroke-width="0.769231" stroke-linecap="round" stroke-linejoin="round"></path>
										<path d="M6.88048 6.42292C7.11649 6.42292 7.30783 6.23159 7.30783 5.99557C7.30783 5.75955 7.11649 5.56822 6.88048 5.56822C6.64446 5.56822 6.45312 5.75955 6.45312 5.99557C6.45312 6.23159 6.64446 6.42292 6.88048 6.42292Z" fill="white" stroke="white" stroke-width="0.769231" stroke-linecap="round" stroke-linejoin="round"></path>
										<path d="M7.30764 3.34608L4.23071 6.423" stroke="white" stroke-width="0.769231" stroke-linecap="round" stroke-linejoin="round"></path>
									</svg>