<svg width="16" height="17" viewBox="0 0 16 17" fill="none" xmlns="http://www.w3.org/2000/svg">
										<path d="M13.9104 6.924C13.6999 5.67003 13.1263 4.50533 12.2605 3.57411C11.3947 2.64289 10.2748 1.98605 9.03947 1.68492C7.80412 1.38379 6.50758 1.45159 5.31038 1.87992C4.11318 2.30826 3.0679 3.07833 2.30396 4.09477C1.54002 5.11121 1.09098 6.32939 1.01242 7.59848C0.933863 8.86757 1.22925 10.1318 1.862 11.2347C2.49475 12.3376 3.43709 13.2307 4.57232 13.8034C5.70755 14.3762 6.98583 14.6033 8.24889 14.4569M1.43321 5.83343H13.5667M1.43321 10.1668H8.58328" stroke="black" stroke-linecap="round" stroke-linejoin="round"></path>
										<path d="M7.1391 1.5C5.92239 3.44974 5.27734 5.70183 5.27734 8.00007C5.27734 10.2983 5.92239 12.5504 7.1391 14.5001M7.86133 1.5C9.0807 3.45389 9.7259 5.71135 9.72324 8.01451M14.0003 10.1668H12.1947C11.9074 10.1668 11.6318 10.2809 11.4287 10.4841C11.2255 10.6872 11.1114 10.9628 11.1114 11.2501C11.1114 11.5374 11.2255 11.813 11.4287 12.0161C11.6318 12.2193 11.9074 12.3334 12.1947 12.3334H12.9169C13.2043 12.3334 13.4798 12.4476 13.683 12.6507C13.8861 12.8539 14.0003 13.1295 14.0003 13.4168C14.0003 13.7041 13.8861 13.9797 13.683 14.1828C13.4798 14.386 13.2043 14.5001 12.9169 14.5001H11.1114M12.5558 14.5001V15.2224M12.5558 9.44452V10.1668" stroke="black" stroke-linecap="round" stroke-linejoin="round"></path>
									</svg>