<svg width="16" height="17" viewBox="0 0 16 17" fill="none" xmlns="http://www.w3.org/2000/svg">
										<path d="M7.9999 14.0133C10.3532 14.0133 12.5466 12.6266 14.0732 10.2266C14.6732 9.28665 14.6732 7.70665 14.0732 6.76665C12.5466 4.36665 10.3532 2.97998 7.9999 2.97998C5.64656 2.97998 3.45323 4.36665 1.92656 6.76665C1.32656 7.70665 1.32656 9.28665 1.92656 10.2266C3.45323 12.6266 5.64656 14.0133 7.9999 14.0133Z" stroke="black" stroke-width="1.5" stroke-linecap="round" stroke-linejoin="round"></path>
										<path d="M6.66675 9.7C6.66675 10.3 7.13341 10.7667 7.73341 10.7667H8.86675C9.33341 10.7667 9.80008 10.3667 9.80008 9.83333C9.80008 9.23333 9.53341 9.03333 9.20008 8.9L7.33341 8.23333C6.86675 8.16667 6.66675 7.96667 6.66675 7.43333C6.66675 6.9 7.06675 6.5 7.60008 6.5H8.80008C9.40008 6.5 9.86675 6.96667 9.86675 7.56667" stroke="black" stroke-linecap="round" stroke-linejoin="round"></path>
										<path d="M8.19995 5.83333V11.4333" stroke="black" stroke-linecap="round" stroke-linejoin="round"></path>
									</svg>