<svg width="16" height="17" viewBox="0 0 16 17" fill="none" xmlns="http://www.w3.org/2000/svg">
									<g clip-path="url(#clip0_1_608)">
									<path d="M14.942 13.07L9.99996 4.835V1.5H10.5C10.775 1.5 11 1.275 11 1C11 0.725 10.775 0.5 10.5 0.5H5.49996C5.22496 0.5 4.99996 0.725 4.99996 1C4.99996 1.275 5.22496 1.5 5.49996 1.5H5.99996V4.835L1.05796 13.07C-0.0740371 14.956 0.799963 16.5 2.99996 16.5H13C15.2 16.5 16.074 14.957 14.942 13.07ZM3.76596 10.5L6.99996 5.11V1.5H8.99996V5.11L12.234 10.5H3.76596Z" fill="black"></path>
									</g>
									<defs>
									<clipPath id="clip0_1_608">
									<rect width="16" height="16" fill="white" transform="translate(0 0.5)"></rect>
									</clipPath>
									</defs>
								</svg>