<svg id="Layer_1" data-name="Layer 1" xmlns="http://www.w3.org/2000/svg" width="677.77" height="680.43" viewBox="0 0 677.77 680.43">
  <defs>
    <style>
      .cls-1 {
        fill: #e7eaed;
      }
    </style>
  </defs>
  <g>
    <path d="M194.05,314.19c-1.8,0-3,0-4.11,0-8.07-.32-13.08-5.18-13.09-12.67,0-7.27,5.28-12.63,13.12-12.72,14.5-.17,29-.23,43.5,0,3.82.06,5.6-1.32,7-4.62,2.49-5.79,5.19-11.51,8.19-17.06,5.33-9.9,13.75-16.17,24.9-17a245.45,245.45,0,0,1,34.94,0c11.6.81,20,7.53,25.51,17.72,3.06,5.71,5.93,11.53,8.65,17.41,1.21,2.6,2.75,3.55,5.67,3.52q21.75-.21,43.49,0c6.45.07,11.09,3.66,12.76,9.28,1.47,4.94-.3,10.81-4.88,13.6a17.82,17.82,0,0,1-8.4,2.35c-3.33.1-4.15,1.24-4.33,4.38-2.28,39.07-4.39,78.16-7.31,117.18-.81,10.8-2.52,22.11-6.69,32-8.89,21-26.49,31.21-48.91,31.92s-44.64.69-66.94,0c-29.85-.92-51.28-21.56-54-51.85-2.22-24.86-3.54-49.81-5.16-74.73-1.16-17.95-2.15-35.91-3.24-53.86C194.66,317.56,194.33,316.11,194.05,314.19Zm26.13.1c0,3.28-.14,6.1,0,8.89,1.59,26.91,3.09,53.83,4.91,80.72,1,15.09,2.13,30.2,4,45.21,1.77,14.15,11.73,23.14,26,24.61a149.54,149.54,0,0,0,16.91,1c18.47-.19,37-.15,55.38-1.18,12.79-.72,22.07-9.76,24.62-22.44a158.89,158.89,0,0,0,2.78-20.72c2.17-32.21,4.1-64.44,6.1-96.66.39-6.41.68-12.83,1-19.42Zm95.41-25.77c-4-12.3-6.06-13.85-18.42-13.86q-6.48,0-13,0c-11.32,0-14.18,2.28-17.3,13.86Z" transform="translate(47.77 -34.49)"/>
    <path d="M331.83,392c0,11.16.16,22.33-.06,33.48-.13,6.81-4.27,11.34-10.67,12.57a11.93,11.93,0,0,1-13.36-7.22,17.8,17.8,0,0,1-1.4-6.75q-.15-32.24,0-64.47c0-5.93,2-10.91,7.89-13.26,4.83-1.94,10-1.62,13.29,2.51a19.9,19.9,0,0,1,4.19,10.66c.54,10.8.19,21.65.19,32.48Z" transform="translate(47.77 -34.49)"/>
    <path d="M250,391.67c0-10.83,0-21.66,0-32.49,0-8.27,5-13.7,12.49-13.74,7.78-.05,12.64,5,12.67,13.47q.1,33,0,66c0,7.86-5.29,13.41-12.38,13.47s-12.72-5.76-12.77-13.7C250,413.67,250,402.67,250,391.67Z" transform="translate(47.77 -34.49)"/>
  </g>
  <path class="cls-1" d="M291.12,52.49C468.34,52.49,612,196.15,612,373.37V376c0,177.22-143.66,320.88-320.88,320.88h0C113.9,696.91-29.77,553.25-29.77,376v-2.66c0-177.22,143.67-320.88,320.89-320.88h0m0-18A338.62,338.62,0,0,0-47.77,373.37V376A338.78,338.78,0,0,0,530.74,615.66,337.87,337.87,0,0,0,630,376v-2.66A338.62,338.62,0,0,0,291.12,34.49Z" transform="translate(47.77 -34.49)"/>
</svg>
