<svg width="38" height="38" viewBox="0 0 38 38" fill="none" xmlns="http://www.w3.org/2000/svg">
<g id="Group 38752">
<circle id="Ellipse 570" cx="19" cy="19" r="18.5" fill="white" stroke="#E6EAED"/>
<g id="Delete">
<path id="Delete_2" fill-rule="evenodd" clip-rule="evenodd" d="M24.3723 14.9458C24.6057 14.9458 24.8 15.1396 24.8 15.3862V15.6142C24.8 15.8548 24.6057 16.0546 24.3723 16.0546H14.4283C14.1943 16.0546 14 15.8548 14 15.6142V15.3862C14 15.1396 14.1943 14.9458 14.4283 14.9458H16.1777C16.5331 14.9458 16.8424 14.6932 16.9223 14.3368L17.0139 13.9276C17.1563 13.3702 17.6249 13 18.1612 13H20.6388C21.1693 13 21.6431 13.3702 21.7802 13.8982L21.8783 14.3362C21.9576 14.6932 22.2669 14.9458 22.6228 14.9458H24.3723ZM23.4838 23.2803C23.6664 21.5782 23.9862 17.5342 23.9862 17.4934C23.9978 17.3698 23.9576 17.2528 23.8776 17.1586C23.7919 17.0704 23.6833 17.0182 23.5637 17.0182H15.2414C15.1212 17.0182 15.0068 17.0704 14.9274 17.1586C14.8469 17.2528 14.8072 17.3698 14.8131 17.4934C14.8141 17.5009 14.8256 17.6434 14.8448 17.8815C14.93 18.9395 15.1674 21.886 15.3207 23.2803C15.4293 24.3075 16.1033 24.9531 17.0795 24.9765C17.8328 24.9939 18.6089 24.9999 19.4025 24.9999C20.15 24.9999 20.9092 24.9939 21.6859 24.9765C22.696 24.9591 23.3694 24.3249 23.4838 23.2803Z" fill="#575A7B"/>
</g>
</g>
</svg>
