<svg width="18" height="19" viewBox="0 0 18 19" fill="none" xmlns="http://www.w3.org/2000/svg">
                                                <path d="M3.9375 6.5C3.9375 5.95299 4.1548 5.42839 4.54159 5.04159C4.92839 4.6548 5.45299 4.4375 6 4.4375C6.54701 4.4375 7.07161 4.6548 7.45841 5.04159C7.8452 5.42839 8.0625 5.95299 8.0625 6.5C8.0625 7.04701 7.8452 7.57161 7.45841 7.95841C7.07161 8.3452 6.54701 8.5625 6 8.5625C5.45299 8.5625 4.92839 8.3452 4.54159 7.95841C4.1548 7.57161 3.9375 7.04701 3.9375 6.5ZM6 3.5C5.20435 3.5 4.44129 3.81607 3.87868 4.37868C3.31607 4.94129 3 5.70435 3 6.5C3 7.29565 3.31607 8.05871 3.87868 8.62132C4.44129 9.18393 5.20435 9.5 6 9.5C6.79565 9.5 7.55871 9.18393 8.12132 8.62132C8.68393 8.05871 9 7.29565 9 6.5C9 5.70435 8.68393 4.94129 8.12132 4.37868C7.55871 3.81607 6.79565 3.5 6 3.5ZM11.4375 7.25C11.4375 6.9019 11.5758 6.56806 11.8219 6.32192C12.0681 6.07578 12.4019 5.9375 12.75 5.9375C13.0981 5.9375 13.4319 6.07578 13.6781 6.32192C13.9242 6.56806 14.0625 6.9019 14.0625 7.25C14.0625 7.5981 13.9242 7.93194 13.6781 8.17808C13.4319 8.42422 13.0981 8.5625 12.75 8.5625C12.4019 8.5625 12.0681 8.42422 11.8219 8.17808C11.5758 7.93194 11.4375 7.5981 11.4375 7.25ZM12.75 5C12.1533 5 11.581 5.23705 11.159 5.65901C10.7371 6.08097 10.5 6.65326 10.5 7.25C10.5 7.84674 10.7371 8.41903 11.159 8.84099C11.581 9.26295 12.1533 9.5 12.75 9.5C13.3467 9.5 13.919 9.26295 14.341 8.84099C14.7629 8.41903 15 7.84674 15 7.25C15 6.65326 14.7629 6.08097 14.341 5.65901C13.919 5.23705 13.3467 5 12.75 5ZM2.53125 10.625C2.15829 10.625 1.8006 10.7732 1.53688 11.0369C1.27316 11.3006 1.125 11.6583 1.125 12.0312V12.5199L1.1265 12.5563C1.128 12.5863 1.13125 12.626 1.13625 12.6755C1.14712 12.7737 1.16775 12.9088 1.20825 13.0693C1.31586 13.4919 1.50713 13.8888 1.77075 14.2362C2.42963 15.1048 3.68475 15.875 6 15.875C7.25588 15.875 8.19975 15.6485 8.9055 15.3027C8.66376 15.0857 8.45796 14.8316 8.29575 14.5501C7.74825 14.7792 7.0065 14.9375 6 14.9375C3.90938 14.9375 2.96138 14.255 2.51813 13.67C2.33024 13.4227 2.1938 13.1403 2.11687 12.8394C2.08906 12.7311 2.07099 12.6205 2.06287 12.509L2.0625 12.497V12.0312C2.0625 11.7725 2.2725 11.5625 2.53125 11.5625H8.202C8.37835 11.2073 8.62095 10.8891 8.91675 10.625H2.53125ZM8.625 12.9688C8.625 12.3471 8.87193 11.751 9.31147 11.3115C9.75101 10.8719 10.3471 10.625 10.9688 10.625H11.5312C11.6556 10.625 11.7748 10.6744 11.8627 10.7623C11.9506 10.8502 12 10.9694 12 11.0938C12 11.2181 11.9506 11.3373 11.8627 11.4252C11.7748 11.5131 11.6556 11.5625 11.5312 11.5625H10.9688C10.5958 11.5625 10.2381 11.7107 9.97438 11.9744C9.71066 12.2381 9.5625 12.5958 9.5625 12.9688C9.5625 13.3417 9.71066 13.6994 9.97438 13.9631C10.2381 14.2268 10.5958 14.375 10.9688 14.375H11.5312C11.6556 14.375 11.7748 14.4244 11.8627 14.5123C11.9506 14.6002 12 14.7194 12 14.8438C12 14.9681 11.9506 15.0873 11.8627 15.1752C11.7748 15.2631 11.6556 15.3125 11.5312 15.3125H10.9688C10.3471 15.3125 9.75101 15.0656 9.31147 14.626C8.87193 14.1865 8.625 13.5904 8.625 12.9688ZM16.875 12.9688C16.875 12.3471 16.6281 11.751 16.1885 11.3115C15.749 10.8719 15.1529 10.625 14.5312 10.625H13.9688C13.8444 10.625 13.7252 10.6744 13.6373 10.7623C13.5494 10.8502 13.5 10.9694 13.5 11.0938C13.5 11.2181 13.5494 11.3373 13.6373 11.4252C13.7252 11.5131 13.8444 11.5625 13.9688 11.5625H14.5312C14.9042 11.5625 15.2619 11.7107 15.5256 11.9744C15.7893 12.2381 15.9375 12.5958 15.9375 12.9688C15.9375 13.3417 15.7893 13.6994 15.5256 13.9631C15.2619 14.2268 14.9042 14.375 14.5312 14.375H13.9688C13.8444 14.375 13.7252 14.4244 13.6373 14.5123C13.5494 14.6002 13.5 14.7194 13.5 14.8438C13.5 14.9681 13.5494 15.0873 13.6373 15.1752C13.7252 15.2631 13.8444 15.3125 13.9688 15.3125H14.5312C15.1529 15.3125 15.749 15.0656 16.1885 14.626C16.6281 14.1865 16.875 13.5904 16.875 12.9688ZM10.5 12.9688C10.5 12.71 10.71 12.5 10.9688 12.5H14.5312C14.6556 12.5 14.7748 12.5494 14.8627 12.6373C14.9506 12.7252 15 12.8444 15 12.9688C15 13.0931 14.9506 13.2123 14.8627 13.3002C14.7748 13.3881 14.6556 13.4375 14.5312 13.4375H10.9688C10.71 13.4375 10.5 13.2275 10.5 12.9688Z" fill="#101136" stroke="#101136" stroke-width="0.3"></path>
                                            </svg>