<svg width="38" height="38" viewBox="0 0 38 38" fill="none" xmlns="http://www.w3.org/2000/svg">
<g id="Group 38757">
<g id="Group 38752">
<circle id="Ellipse 570" cx="19" cy="19" r="18.5" fill="white" stroke="#E6EAED"/>
<g id="edit">
<path id="Vector" d="M18.4166 13.1667H17.25C14.3333 13.1667 13.1666 14.3333 13.1666 17.25V20.75C13.1666 23.6667 14.3333 24.8333 17.25 24.8333H20.75C23.6666 24.8333 24.8333 23.6667 24.8333 20.75V19.5833" stroke="#575A7B" stroke-width="1.5" stroke-linecap="round" stroke-linejoin="round"/>
<path id="Vector_2" d="M21.3566 13.7617L16.7599 18.3583C16.5849 18.5333 16.4099 18.8775 16.3749 19.1283L16.1241 20.8842C16.0308 21.52 16.4799 21.9633 17.1158 21.8758L18.8716 21.625C19.1166 21.59 19.4608 21.415 19.6416 21.24L24.2383 16.6433C25.0316 15.85 25.4049 14.9283 24.2383 13.7617C23.0716 12.595 22.1499 12.9683 21.3566 13.7617Z" stroke="#575A7B" stroke-width="1.5" stroke-miterlimit="10" stroke-linecap="round" stroke-linejoin="round"/>
<path id="Vector_3" d="M20.6975 14.4208C21.0883 15.8149 22.1792 16.9058 23.5792 17.3024" stroke="#575A7B" stroke-width="1.5" stroke-miterlimit="10" stroke-linecap="round" stroke-linejoin="round"/>
</g>
</g>
</g>
</svg>
