<svg width="5" height="20" viewBox="0 0 5 20" fill="none" xmlns="http://www.w3.org/2000/svg">
											<path d="M2.5 4.3125C3.43198 4.3125 4.1875 3.55698 4.1875 2.625C4.1875 1.69302 3.43198 0.9375 2.5 0.9375C1.56802 0.9375 0.8125 1.69302 0.8125 2.625C0.8125 3.55698 1.56802 4.3125 2.5 4.3125Z" fill="#101136"></path>
											<path d="M2.5 11.6875C3.43198 11.6875 4.1875 10.932 4.1875 10C4.1875 9.06802 3.43198 8.3125 2.5 8.3125C1.56802 8.3125 0.8125 9.06802 0.8125 10C0.8125 10.932 1.56802 11.6875 2.5 11.6875Z" fill="#101136"></path>
											<path d="M2.5 19.0625C3.43198 19.0625 4.1875 18.307 4.1875 17.375C4.1875 16.443 3.43198 15.6875 2.5 15.6875C1.56802 15.6875 0.8125 16.443 0.8125 17.375C0.8125 18.307 1.56802 19.0625 2.5 19.0625Z" fill="#101136"></path>
										</svg>