<svg id="Layer_1" data-name="Layer 1" xmlns="http://www.w3.org/2000/svg" width="16.03" height="64.91" viewBox="0 0 16.03 64.91">
  <g>
    <path d="M311.15,423.41a8,8,0,1,1-7.6-8.15A8,8,0,0,1,311.15,423.41Z" transform="translate(-295.12 -366.31)"/>
    <path d="M311.15,374.3a8,8,0,0,1-16,.58,8.32,8.32,0,0,1,8-8.57C307.2,366.26,311,370.05,311.15,374.3Z" transform="translate(-295.12 -366.31)"/>
    <path d="M295.12,398.75a8,8,0,0,1,16,.06c0,4.35-4.14,8.5-8.31,8.28A8.46,8.46,0,0,1,295.12,398.75Z" transform="translate(-295.12 -366.31)"/>
  </g>
</svg>
