<svg width="22" height="23" viewBox="0 0 22 23" fill="none" xmlns="http://www.w3.org/2000/svg">
									<g clip-path="url(#clip0_1_939)">
									<path d="M22 11.5C22 5.42491 17.0751 0.5 11 0.5C4.92491 0.5 0 5.42491 0 11.5C0 16.9904 4.02256 21.5412 9.28125 22.3664V14.6797H6.48828V11.5H9.28125V9.07656C9.28125 6.31969 10.9235 4.79688 13.4362 4.79688C14.6396 4.79688 15.8984 5.01172 15.8984 5.01172V7.71875H14.5114C13.1449 7.71875 12.7188 8.5667 12.7188 9.43664V11.5H15.7695L15.2818 14.6797H12.7188V22.3664C17.9774 21.5412 22 16.9905 22 11.5Z" fill="#1877F2"></path>
									<path d="M15.2818 14.6797L15.7695 11.5H12.7188V9.43664C12.7188 8.56661 13.1449 7.71875 14.5114 7.71875H15.8984V5.01172C15.8984 5.01172 14.6396 4.79688 13.4361 4.79688C10.9235 4.79688 9.28125 6.31969 9.28125 9.07656V11.5H6.48828V14.6797H9.28125V22.3664C9.84983 22.4555 10.4245 22.5002 11 22.5C11.5755 22.5002 12.1502 22.4555 12.7188 22.3664V14.6797H15.2818Z" fill="white"></path>
									</g>
									<defs>
									<clipPath id="clip0_1_939">
									<rect width="22" height="22" fill="white" transform="translate(0 0.5)"></rect>
									</clipPath>
									</defs>
								</svg>