<svg width="16" height="17" viewBox="0 0 16 17" fill="none" xmlns="http://www.w3.org/2000/svg">
									<path d="M12.6667 2.5H3.33337C2.39071 2.5 1.91937 2.5 1.62671 2.77467C1.33404 3.04933 1.33337 3.492 1.33337 4.37667V4.83667C1.33337 5.528 1.33337 5.874 1.50671 6.16067C1.68004 6.44733 1.99537 6.626 2.62804 6.982L4.57004 8.07533C4.99404 8.314 5.20671 8.43333 5.35871 8.56533C5.67471 8.83933 5.86937 9.162 5.95737 9.55867C6.00004 9.748 6.00004 9.97067 6.00004 10.4153V12.1953C6.00004 12.8013 6.00004 13.1047 6.16804 13.3407C6.33604 13.5773 6.63471 13.694 7.23071 13.9273C8.48337 14.4167 9.10937 14.6613 9.55471 14.3827C10 14.104 10 13.468 10 12.1947V10.4147C10 9.97067 10 9.748 10.0427 9.558C10.1264 9.16944 10.3373 8.81989 10.642 8.56467C10.7934 8.43333 11.006 8.314 11.43 8.07467L13.372 6.98133C14.004 6.626 14.3207 6.448 14.4934 6.16133C14.6667 5.87467 14.6667 5.528 14.6667 4.836V4.376C14.6667 3.492 14.6667 3.04933 14.3734 2.77467C14.0814 2.5 13.61 2.5 12.6667 2.5Z" stroke="black" stroke-width="1.5"></path>
								</svg>