<svg id="Layer_1" data-name="Layer 1" xmlns="http://www.w3.org/2000/svg" width="329.76" height="256.36" viewBox="0 0 329.76 256.36">
  <path d="M197,383c19.89,19.88,38.93,39,58.07,58,4.36,4.33,7.12,9.23,6.79,15.46-.4,7.5-4.19,12.93-11,15.91-7.51,3.27-14.46,1.7-20.22-3.9-10.51-10.22-20.8-20.67-31.17-31q-29.16-29.16-58.32-58.33c-9.7-9.72-9.75-20-.07-29.67q44-44.06,88-88c7.67-7.65,17.18-9,24.8-3.79,9.87,6.76,10.82,19.9,1.89,29-11.22,11.4-22.58,22.65-33.92,33.94-8.12,8.09-16.29,16.13-24,25.43H203c39.5,0,79-1.12,118.48.33,56.21,2.06,98.2,28.83,125.41,78.13,11.46,20.75,16.84,43.25,16.77,67,0,11.44-7.59,19.44-18.29,19.44-10.27,0-17.8-8-18.07-19.23-1.24-50-32.89-91.24-80.21-105-15.49-4.52-31.27-3.91-47.05-3.93q-49-.09-98,0C200.73,382.69,199.44,382.87,197,383Z" transform="translate(-133.85 -254.55)"/>
</svg>
