<svg id="Layer_1" data-name="Layer 1" xmlns="http://www.w3.org/2000/svg" width="536.88" height="338.15" viewBox="0 0 536.88 338.15">
  <g>
    <path d="M303.05,529.76q123.75,0,247.5,0c12.61,0,20.86,8,20.31,19.52a18.13,18.13,0,0,1-16.39,17.29,63.7,63.7,0,0,1-6.49.17H57.48a62.63,62.63,0,0,1-7-.17,18.4,18.4,0,0,1-.92-36.45,50.32,50.32,0,0,1,7.48-.35Z" transform="translate(-34.09 -228.61)"/>
    <path d="M302.85,265.66h-248c-11.87,0-19.77-6.38-20.6-16.62-.88-10.85,6.51-19.52,17.42-20.34,2.16-.16,4.34-.06,6.5-.06q245,0,490,.11a32.8,32.8,0,0,1,13.45,2.7c7.52,3.48,10.78,12.12,8.77,20.4a18.27,18.27,0,0,1-16.55,13.72c-2.32.14-4.66.07-7,.07h-244Z" transform="translate(-34.09 -228.61)"/>
    <path d="M302.94,379.37q124,0,248,0c12.13,0,20.14,7.6,19.94,18.79A18,18,0,0,1,554.58,416a60,60,0,0,1-6,.13q-246.74,0-493.47.17C37,416.35,30,399.94,36.44,388.74c3.3-5.74,8.3-9,15-9.33,3.66-.16,7.33,0,11,0Z" transform="translate(-34.09 -228.61)"/>
  </g>
</svg>
