<svg id="Layer_1" data-name="Layer 1" xmlns="http://www.w3.org/2000/svg" viewBox="0 0 17.57 69.13"><defs><style>.cls-1{fill:#aeafbe;}</style></defs><path class="cls-1" d="M-841.26-679.87a8.81,8.81,0,0,0-9.07,8.56,8.83,8.83,0,0,0,8.42,9,8.65,8.65,0,0,0,9.14-8.69A8.63,8.63,0,0,0-841.26-679.87Zm-.19,25.8a8.85,8.85,0,0,0-8.88,8.76,8.86,8.86,0,0,0,8.61,8.77,8.65,8.65,0,0,0,9-8.63A8.67,8.67,0,0,0-841.45-654.07Zm-.07,25.81a8.84,8.84,0,0,0-8.81,8.82,8.85,8.85,0,0,0,8.68,8.7,8.66,8.66,0,0,0,8.89-8.7A8.66,8.66,0,0,0-841.52-628.26Z" transform="translate(850.33 679.87)"/><path class="cls-1" d="M-841.26-679.87a8.63,8.63,0,0,1,8.49,8.83,8.65,8.65,0,0,1-9.14,8.69,8.83,8.83,0,0,1-8.42-9A8.81,8.81,0,0,1-841.26-679.87Z" transform="translate(850.33 679.87)"/><path class="cls-1" d="M-841.45-654.07a8.67,8.67,0,0,1,8.69,8.9,8.65,8.65,0,0,1-9,8.63,8.86,8.86,0,0,1-8.61-8.77A8.85,8.85,0,0,1-841.45-654.07Z" transform="translate(850.33 679.87)"/><path class="cls-1" d="M-841.52-628.26a8.66,8.66,0,0,1,8.76,8.82,8.66,8.66,0,0,1-8.89,8.7,8.85,8.85,0,0,1-8.68-8.7A8.84,8.84,0,0,1-841.52-628.26Z" transform="translate(850.33 679.87)"/></svg>