<svg width="16" height="17" viewBox="0 0 16 17" fill="none" xmlns="http://www.w3.org/2000/svg">
										<path d="M10.3866 8.50002C10.3866 9.82002 9.31995 10.8867 7.99995 10.8867C6.67995 10.8867 5.61328 9.82002 5.61328 8.50002C5.61328 7.18002 6.67995 6.11336 7.99995 6.11336C9.31995 6.11336 10.3866 7.18002 10.3866 8.50002Z" stroke="black" stroke-width="1.5" stroke-linecap="round" stroke-linejoin="round"></path>
										<path d="M7.9999 14.0133C10.3532 14.0133 12.5466 12.6266 14.0732 10.2266C14.6732 9.28665 14.6732 7.70665 14.0732 6.76665C12.5466 4.36665 10.3532 2.97998 7.9999 2.97998C5.64656 2.97998 3.45323 4.36665 1.92656 6.76665C1.32656 7.70665 1.32656 9.28665 1.92656 10.2266C3.45323 12.6266 5.64656 14.0133 7.9999 14.0133Z" stroke="black" stroke-width="1.5" stroke-linecap="round" stroke-linejoin="round"></path>
									</svg>