<svg width="18" height="19" viewBox="0 0 18 19" fill="none" xmlns="http://www.w3.org/2000/svg">
											<g clip-path="url(#clip0_2_7748)">
											<path fill-rule="evenodd" clip-rule="evenodd" d="M7.6425 4.85455C7.71134 4.72715 7.81367 4.62098 7.93845 4.54749C8.06322 4.474 8.2057 4.43598 8.3505 4.43755L9.9255 4.46155C10.0699 4.46471 10.2107 4.50716 10.3328 4.58433C10.4549 4.6615 10.5537 4.77047 10.6185 4.89955L11.2485 6.16555L12.3615 6.07105C12.504 6.05973 12.6469 6.08706 12.7752 6.15015C12.9035 6.21324 13.0124 6.30976 13.0905 6.42955L13.8855 7.66255C13.9709 7.79532 14.0144 7.9507 14.0104 8.10851C14.0064 8.26632 13.955 8.41928 13.863 8.54755L13.278 9.36655L13.9005 10.1885C14.094 10.4435 14.1135 10.7915 13.9485 11.0675L13.1985 12.3245C13.124 12.4478 13.0173 12.5485 12.89 12.6159C12.7626 12.6833 12.6194 12.7148 12.4755 12.707L11.298 12.635L10.5735 14.1185C10.5079 14.2504 10.407 14.3615 10.282 14.4394C10.157 14.5172 10.0128 14.5588 9.8655 14.5595H8.2425C8.09547 14.5586 7.9516 14.5168 7.82688 14.439C7.70215 14.3611 7.60146 14.2502 7.536 14.1185L6.855 12.725L5.595 12.839C5.44975 12.8512 5.30395 12.8233 5.17353 12.7582C5.04311 12.6931 4.93309 12.5934 4.8555 12.47L4.059 11.1875C3.97452 11.0514 3.93357 10.8928 3.94161 10.7328C3.94965 10.5728 4.0063 10.419 4.104 10.292L4.824 9.35455L4.245 8.54605C4.1532 8.41763 4.10212 8.26459 4.09837 8.10678C4.09463 7.94897 4.13839 7.79367 4.224 7.66105L5.019 6.42805C5.09692 6.3085 5.20559 6.21213 5.33359 6.14905C5.4616 6.08597 5.60422 6.05851 5.7465 6.06955L6.942 6.17155L7.6425 4.85455ZM8.53949 5.56555L7.8315 6.89755C7.75841 7.0332 7.64748 7.14469 7.5122 7.21846C7.37692 7.29222 7.22311 7.32508 7.0695 7.31305L5.8545 7.20955L5.2935 8.07955L5.8845 8.90455C5.98281 9.04178 6.03443 9.20698 6.03172 9.37577C6.02902 9.54457 5.97215 9.70803 5.8695 9.84205L5.1375 10.793L5.7015 11.702L6.9855 11.585C7.14459 11.5703 7.30441 11.6043 7.44373 11.6825C7.58304 11.7608 7.69527 11.8795 7.7655 12.023L8.454 13.4345H9.654L10.386 11.939C10.4552 11.8002 10.5634 11.6845 10.6975 11.6064C10.8316 11.5283 10.9856 11.4912 11.1405 11.4995L12.3375 11.5715L12.8655 10.6865L12.2295 9.84655C12.1283 9.71261 12.0726 9.54985 12.0704 9.38202C12.0683 9.21418 12.1198 9.05004 12.2175 8.91355L12.816 8.07955L12.255 7.20955L11.115 7.30555C10.9574 7.31898 10.7995 7.28466 10.6617 7.20708C10.5239 7.12949 10.4127 7.01223 10.3425 6.87055L9.702 5.58355L8.53949 5.56555Z" fill="#101136"></path>
											<path d="M15.423 11.6C14.968 13.0047 14.0649 14.2214 12.8522 15.0638C11.6395 15.9061 10.1841 16.3275 8.70893 16.2635C7.23378 16.1995 5.82031 15.6536 4.68513 14.7094C3.54994 13.7652 2.75566 12.4749 2.424 11.036L3.7005 10.784L1.2705 8.27005L-0.00149536 11.5205L1.344 11.2565C1.71951 12.9455 2.64081 14.4639 3.96554 15.5769C5.29027 16.6899 6.94469 17.3356 8.67313 17.4143C10.4016 17.493 12.1078 17.0003 13.5282 16.0123C14.9486 15.0242 16.0041 13.5959 16.5315 11.948L15.423 11.6ZM16.677 7.79005C16.3013 6.10112 15.3799 4.58293 14.055 3.47007C12.7302 2.35721 11.0757 1.71164 9.3473 1.63312C7.61888 1.55459 5.91269 2.04748 4.49241 3.03562C3.07212 4.02376 2.0168 5.45214 1.4895 7.10005L2.559 7.44805C3.01389 6.04335 3.91681 4.82655 5.1294 3.98411C6.342 3.14167 7.79737 2.72006 9.2725 2.7839C10.7476 2.84773 12.1612 3.39348 13.2964 4.33752C14.4317 5.28156 15.2262 6.57181 15.558 8.01055L14.2815 8.26405L16.7115 10.772L17.9985 7.52605L16.677 7.79005Z" fill="#101136"></path>
											<path fill-rule="evenodd" clip-rule="evenodd" d="M9 8.9375C8.85082 8.9375 8.70774 8.99676 8.60225 9.10225C8.49676 9.20774 8.4375 9.35082 8.4375 9.5C8.4375 9.64918 8.49676 9.79226 8.60225 9.89775C8.70774 10.0032 8.85082 10.0625 9 10.0625C9.14918 10.0625 9.29226 10.0032 9.39775 9.89775C9.50324 9.79226 9.5625 9.64918 9.5625 9.5C9.5625 9.35082 9.50324 9.20774 9.39775 9.10225C9.29226 8.99676 9.14918 8.9375 9 8.9375ZM7.3125 9.5C7.3125 9.05245 7.49029 8.62323 7.80676 8.30676C8.12323 7.99029 8.55245 7.8125 9 7.8125C9.44755 7.8125 9.87678 7.99029 10.1932 8.30676C10.5097 8.62323 10.6875 9.05245 10.6875 9.5C10.6875 9.94755 10.5097 10.3768 10.1932 10.6932C9.87678 11.0097 9.44755 11.1875 9 11.1875C8.55245 11.1875 8.12323 11.0097 7.80676 10.6932C7.49029 10.3768 7.3125 9.94755 7.3125 9.5Z" fill="#101136"></path>
											</g>
											<defs>
											<clipPath id="clip0_2_7748">
											<rect width="18" height="18" fill="white" transform="translate(0 0.5)"></rect>
											</clipPath>
											</defs>
										</svg>