<svg width="24" height="24" viewBox="0 0 24 24" fill="none" xmlns="http://www.w3.org/2000/svg">
								<rect x="0.75" y="0.75" width="22.5" height="22.5004" rx="3.01465" stroke="#101136" stroke-width="1.5"></rect>
								<path d="M7.76553 5.17587C7.67284 5.17587 7.58105 5.19412 7.49541 5.2296C7.40977 5.26507 7.33195 5.31706 7.26641 5.38261C7.20086 5.44816 7.14887 5.52597 7.11339 5.61161C7.07792 5.69725 7.05966 5.78904 7.05966 5.88174C7.05966 5.97443 7.07792 6.06622 7.11339 6.15186C7.14887 6.2375 7.20086 6.31532 7.26641 6.38086C7.33195 6.44641 7.40977 6.4984 7.49541 6.53388C7.58105 6.56935 7.67284 6.58761 7.76553 6.58761C7.95274 6.58761 8.13228 6.51324 8.26466 6.38086C8.39704 6.24849 8.4714 6.06895 8.4714 5.88174C8.4714 5.69453 8.39704 5.51499 8.26466 5.38261C8.13228 5.25023 7.95274 5.17587 7.76553 5.17587ZM5.64792 5.88174C5.64804 5.49354 5.75486 5.11284 5.95672 4.78125C6.15858 4.44966 6.4477 4.17994 6.79249 4.00156C7.13728 3.82318 7.52447 3.74301 7.91174 3.76982C8.29902 3.79662 8.67147 3.92936 8.9884 4.15354C9.30533 4.37771 9.55454 4.68469 9.70879 5.04093C9.86305 5.39717 9.91641 5.78895 9.86305 6.17347C9.80968 6.55798 9.65165 6.92043 9.40622 7.2212C9.16079 7.52197 8.8374 7.74948 8.4714 7.87888V11.5551C8.55297 11.4948 8.63768 11.439 8.72552 11.3875C9.61868 10.8492 10.7631 10.692 11.7354 10.5593L11.9038 10.5358C12.9965 10.3833 13.8821 10.2327 14.5174 9.8045C14.9927 9.48262 15.3993 8.94804 15.5038 7.86947C15.0352 7.69694 14.6426 7.36436 14.3954 6.93047C14.1482 6.49658 14.0623 5.98929 14.1529 5.49821C14.2435 5.00713 14.5047 4.56386 14.8904 4.24668C15.2761 3.9295 15.7614 3.75882 16.2607 3.7648C16.7601 3.77078 17.2412 3.95302 17.6192 4.27934C17.9972 4.60566 18.2477 5.05506 18.3265 5.54816C18.4053 6.04127 18.3073 6.54635 18.0498 6.9742C17.7923 7.40206 17.3919 7.72515 16.9193 7.88641C16.8007 9.37063 16.2247 10.3541 15.308 10.9734C14.3546 11.6181 13.1226 11.7922 12.0986 11.9334L12.0751 11.9372C10.974 12.0896 10.0921 12.212 9.45304 12.596C9.15657 12.7748 8.9241 13.0063 8.7594 13.332C8.58999 13.6651 8.4714 14.1376 8.4714 14.8228V16.1197C8.94263 16.2862 9.33982 16.614 9.59275 17.045C9.84569 17.4761 9.93808 17.9827 9.85361 18.4753C9.76913 18.9679 9.51322 19.4148 9.13112 19.7369C8.74902 20.0591 8.26532 20.2358 7.76553 20.2358C7.26575 20.2358 6.78205 20.0591 6.39995 19.7369C6.01784 19.4148 5.76194 18.9679 5.67746 18.4753C5.59298 17.9827 5.68538 17.4761 5.93831 17.045C6.19125 16.614 6.58843 16.2862 7.05966 16.1197V7.87888C6.64669 7.73288 6.28916 7.4624 6.03632 7.10472C5.78349 6.74704 5.64779 6.31976 5.64792 5.88174ZM16.236 5.17587C16.1433 5.17587 16.0515 5.19412 15.9659 5.2296C15.8802 5.26507 15.8024 5.31706 15.7369 5.38261C15.6713 5.44816 15.6193 5.52597 15.5839 5.61161C15.5484 5.69725 15.5301 5.78904 15.5301 5.88174C15.5301 5.97443 15.5484 6.06622 15.5839 6.15186C15.6193 6.2375 15.6713 6.31532 15.7369 6.38086C15.8024 6.44641 15.8802 6.4984 15.9659 6.53388C16.0515 6.56935 16.1433 6.58761 16.236 6.58761C16.4232 6.58761 16.6027 6.51324 16.7351 6.38086C16.8675 6.24849 16.9419 6.06895 16.9419 5.88174C16.9419 5.69453 16.8675 5.51499 16.7351 5.38261C16.6027 5.25023 16.4232 5.17587 16.236 5.17587ZM7.76553 17.411C7.57832 17.411 7.39878 17.4853 7.26641 17.6177C7.13403 17.7501 7.05966 17.9296 7.05966 18.1168C7.05966 18.3041 7.13403 18.4836 7.26641 18.616C7.39878 18.7483 7.57832 18.8227 7.76553 18.8227C7.95274 18.8227 8.13228 18.7483 8.26466 18.616C8.39704 18.4836 8.4714 18.3041 8.4714 18.1168C8.4714 17.9296 8.39704 17.7501 8.26466 17.6177C8.13228 17.4853 7.95274 17.411 7.76553 17.411Z" fill="#101136"></path>
							</svg>