<svg id="Layer_1" data-name="Layer 1" xmlns="http://www.w3.org/2000/svg" width="123.16" height="174.52" viewBox="0 0 123.16 174.52">
  <g>
    <path d="M44,148A43.33,43.33,0,0,1,.3,191.61C-23.37,191.53-42.94,172-43,148.38a43.58,43.58,0,0,1,43.6-44C24.29,104.14,44,123.92,44,148Zm-16,.32A27.35,27.35,0,0,0,.82,120.47,27.49,27.49,0,0,0-27,147.76,27.65,27.65,0,0,0,.32,175.63,27.54,27.54,0,0,0,28.05,148.27Z" transform="translate(62.33 -104.41)"/>
    <path d="M-.45,193.85c16.37.52,30.5,3.54,43.4,11.23,5.39,3.22,7.09,7.59,4.62,12s-7.25,4.9-13,1.81c-22.45-12-45.08-12-67.64-.29a30.78,30.78,0,0,0-7.46,5.76c-7.56,7.65-7.58,17.19.08,24.73,9.64,9.47,21.9,12.7,34.9,13.9,2.81.26,5.69.19,8.41.82,3.94.91,5.85,4,5.64,7.79-.22,4-2.5,7.32-6.77,7.37-21.54.24-41.54-4.46-56.06-21.72-11.76-14-10.3-31.55,2.73-44.46,11-10.87,24.8-15.72,39.76-17.82C-7.56,194.34-3.24,194.11-.45,193.85Z" transform="translate(62.33 -104.41)"/>
    <path d="M44.83,244.32c12.91,1.45,16.19,3.29,16,8.64s-3.64,7.23-16,8.18c0,2.17.07,4.41,0,6.66-.2,5.29-3.59,9-8.06,9-4.74,0-7.79-3.47-7.89-9,0-2.13,0-4.26,0-6.68-6.63-1.1-16.18,1.94-15.81-8.92.33-9.88,9.15-6.74,15.81-7.85,0-2.4-.05-4.82,0-7.24.14-5,2.92-8.14,7.35-8.35,4.62-.22,8.12,2.88,8.55,7.85C45,239.13,44.83,241.62,44.83,244.32Z" transform="translate(62.33 -104.41)"/>
  </g>
</svg>
