<svg width="16" height="17" viewBox="0 0 16 17" fill="none" xmlns="http://www.w3.org/2000/svg">
										<path d="M8.00008 8.50001C9.84103 8.50001 11.3334 7.00763 11.3334 5.16668C11.3334 3.32573 9.84103 1.83334 8.00008 1.83334C6.15913 1.83334 4.66675 3.32573 4.66675 5.16668C4.66675 7.00763 6.15913 8.50001 8.00008 8.50001Z" stroke="black" stroke-width="1.5" stroke-linejoin="round"></path>
										<path d="M2.27344 15.1667C2.27344 12.5867 4.8401 10.5 8.0001 10.5C8.6401 10.5 9.26011 10.5867 9.84011 10.7467" stroke="black" stroke-width="1.5" stroke-linecap="round" stroke-linejoin="round"></path>
										<path d="M14.6666 12.5C14.6666 13 14.5266 13.4733 14.2799 13.8733C14.1399 14.1133 13.9599 14.3267 13.7533 14.5C13.2866 14.92 12.6733 15.1667 11.9999 15.1667C11.0266 15.1667 10.1799 14.6467 9.71991 13.8733C9.47324 13.4733 9.33325 13 9.33325 12.5C9.33325 11.66 9.71992 10.9067 10.3333 10.42C10.7933 10.0533 11.3733 9.83334 11.9999 9.83334C13.4733 9.83334 14.6666 11.0267 14.6666 12.5Z" stroke="black" stroke-width="1.5" stroke-miterlimit="10" stroke-linejoin="round"></path>
										<path d="M10.96 12.5L11.62 13.16L13.04 11.8467" stroke="black" stroke-width="1.2" stroke-linecap="round" stroke-linejoin="round"></path>
									</svg>