<svg width="18" height="19" viewBox="0 0 18 19" fill="none" xmlns="http://www.w3.org/2000/svg">
											<path d="M3.75 7.25H14.25M5.25 11.75H12.75M3.29025 2.75H14.7097C14.8285 2.75009 14.9456 2.77839 15.0513 2.83257C15.157 2.88674 15.2483 2.96525 15.3177 3.06163C15.3871 3.158 15.4327 3.26948 15.4506 3.3869C15.4685 3.50432 15.4583 3.62431 15.4207 3.737L11.592 15.224C11.4925 15.5228 11.3014 15.7827 11.0459 15.9669C10.7904 16.151 10.4834 16.2501 10.1685 16.25H7.8315C7.51655 16.2501 7.20957 16.151 6.95407 15.9669C6.69857 15.7827 6.50752 15.5228 6.408 15.224L2.58 3.737C2.54248 3.62437 2.53224 3.50445 2.55011 3.38709C2.56799 3.26973 2.61346 3.15829 2.6828 3.06193C2.75214 2.96557 2.84336 2.88705 2.94896 2.83282C3.05457 2.77859 3.17153 2.75021 3.29025 2.75Z" stroke="#101136" stroke-width="1.5" stroke-linecap="round" stroke-linejoin="round"></path>
										</svg>