<svg width="16" height="17" viewBox="0 0 16 17" fill="none" xmlns="http://www.w3.org/2000/svg">
									<path d="M12 12.5C13.4728 12.5 14.6667 10.1122 14.6667 7.16668C14.6667 4.22116 13.4728 1.83334 12 1.83334C10.5273 1.83334 9.33337 4.22116 9.33337 7.16668C9.33337 10.1122 10.5273 12.5 12 12.5Z" stroke="black" stroke-width="1.5" stroke-linecap="round" stroke-linejoin="round"></path>
									<path d="M12 1.83334C9.93137 1.83334 5.64337 3.41868 3.18071 4.40268C2.05271 4.85334 1.33337 5.95201 1.33337 7.16668C1.33337 8.38134 2.05337 9.48001 3.18071 9.93068C5.64337 10.9147 9.93137 12.5 12 12.5M7.33337 15.1667L6.03804 14.4533C5.3465 14.0706 4.78555 13.4894 4.42762 12.7847C4.06968 12.08 3.9312 11.2842 4.03004 10.5" stroke="black" stroke-width="1.5" stroke-linecap="round" stroke-linejoin="round"></path>
								</svg>