<svg width="16" height="17" viewBox="0 0 16 17" fill="none" xmlns="http://www.w3.org/2000/svg">
									<path d="M7.66671 13.5C8.58671 13.5 9.33337 14.2466 9.33337 15.1666L10 15.1666C12.6667 15.1666 13.3334 14.5 13.3334 11.8333L13.3334 5.16665C13.3334 2.49998 12.6667 1.83331 10 1.83331L9.66671 1.83331C9.66671 2.75331 8.92004 3.49998 8.00004 3.49998C7.08004 3.49998 6.33337 2.75331 6.33337 1.83331L6.00004 1.83331C3.33337 1.83331 2.66671 2.49998 2.66671 5.16665L2.66671 11.8333C2.66671 14.5 3.33337 15.1666 6.00004 15.1666C6.00004 14.2466 6.74671 13.5 7.66671 13.5Z" stroke="black" stroke-width="1.5" stroke-linecap="round" stroke-linejoin="round"></path>
									<path d="M6 10.3333L10 6.33331" stroke="black" stroke-width="1.5" stroke-linecap="round" stroke-linejoin="round"></path>
									<path d="M9.9963 10.3333H10.0023" stroke="black" stroke-width="2" stroke-linecap="round" stroke-linejoin="round"></path>
									<path d="M5.9963 6.66665H6.00229" stroke="black" stroke-width="2" stroke-linecap="round" stroke-linejoin="round"></path>
								</svg>