<svg width="16" height="17" viewBox="0 0 16 17" fill="none" xmlns="http://www.w3.org/2000/svg">
										<path d="M2.03675 7.83334C2.16692 6.67383 2.63198 5.57733 3.37512 4.6778C4.11826 3.77826 5.1073 3.11464 6.22142 2.768C5.31467 4.31057 4.78837 6.04693 4.68608 7.83334H2.03675ZM7.32808 1.19734C3.59341 1.536 0.666748 4.67667 0.666748 8.5C0.666748 12.3233 3.59341 15.464 7.32808 15.8033L7.33342 15.81L7.61675 15.8233C7.74444 15.8295 7.87225 15.8328 8.00008 15.8333C8.12793 15.8333 8.25575 15.83 8.38342 15.8233L8.66675 15.81L8.67208 15.8033C12.4067 15.4627 15.3334 12.3233 15.3334 8.5C15.3334 4.67667 12.4067 1.536 8.67208 1.19734L8.66675 1.19067L8.38275 1.17667C8.12781 1.16335 7.87235 1.16335 7.61742 1.17667L7.33342 1.19L7.32808 1.19734ZM8.00142 2.5C9.16608 4.0471 9.85314 5.90089 9.97808 7.83334H6.02208C6.14722 5.90082 6.83451 4.04703 7.99942 2.5H8.00008M4.68542 9.16667C4.79208 11.0067 5.33875 12.73 6.22075 14.232C5.10676 13.8853 4.11786 13.2216 3.37485 12.3221C2.63183 11.4225 2.16687 10.3261 2.03675 9.16667H4.68542ZM7.99875 14.5C6.83385 12.953 6.14655 11.0992 6.02142 9.16667H9.97742C9.85228 11.0992 9.16498 12.953 8.00008 14.5H7.99875ZM9.77875 14.232C10.6853 12.6894 11.2113 10.953 11.3134 9.16667H13.9627C13.8326 10.3261 13.3677 11.4225 12.6247 12.3221C11.8816 13.2216 10.8927 13.8853 9.77875 14.232ZM11.3134 7.83334C11.2067 5.99334 10.6601 4.27 9.77808 2.768C10.8923 3.11453 11.8815 3.77811 12.6248 4.67765C13.368 5.57719 13.8332 6.67374 13.9634 7.83334H11.3134Z" fill="black"></path>
									</svg>