<svg id="Layer_1" data-name="Layer 1" xmlns="http://www.w3.org/2000/svg" width="69.24" height="69.26" viewBox="0 0 69.24 69.26">
  <defs>
    <style>
      .cls-1 {
        fill: #fff;
      }
    </style>
  </defs>
  <g>
    <path class="cls-1" d="M551.41,828.33c0-5-.31-10,.06-15,.82-11.19,7.55-18.54,18.62-19.24a258,258,0,0,1,31.46,0c10.27.61,17.08,6.63,18.05,16.8a185.77,185.77,0,0,1,.33,33.35c-1,11.24-6.22,16.84-17.42,17.92a173.27,173.27,0,0,1-34.83-.34c-10.16-1.09-15.3-7.77-16.16-18-.43-5.13-.07-10.32-.07-15.48Zm34.73-27.78c0,.2,0-.21,0,0-5,0-10,0-15,.38-7.49.57-12,4.51-12.42,11.93a288.24,288.24,0,0,0,0,31c.35,6.95,3.64,10.71,10.61,11.19a303.4,303.4,0,0,0,32.9.09c6-.24,10.2-4.15,10.44-10.21a314.57,314.57,0,0,0-.12-33.36c-.44-6.61-4.74-9.88-11.4-10.56C596.16,800.47,591.14,800.77,586.14,800.55Z" transform="translate(-551.29 -793.63)"/>
    <path class="cls-1" d="M589.41,831.87c0,3.06.47,5.65-.15,8a3.71,3.71,0,0,1-.46,1,3.48,3.48,0,0,1-6.15-.47,2.64,2.64,0,0,1-.12-.4c-.53-2.35-.13-4.9-.13-8.07-3,0-5.72.45-8.17-.16a3.61,3.61,0,0,1-1-.42,3.47,3.47,0,0,1,.44-6.18l.39-.11c2.37-.54,5-.14,8.3-.14,0-2.85-.43-5.53.15-8a2.44,2.44,0,0,1,.14-.46,3.48,3.48,0,0,1,6.39,0,4,4,0,0,1,.2.58c.59,2.3.15,4.88.15,7.89,3,0,5.51-.43,7.82.15a3.71,3.71,0,0,1,.47.16,3.49,3.49,0,0,1-.31,6.48l-.28.09C595,832.31,592.52,831.87,589.41,831.87Z" transform="translate(-551.29 -793.63)"/>
  </g>
</svg>
