<svg width="18" height="18" viewBox="0 0 18 18" fill="none" xmlns="http://www.w3.org/2000/svg">
									<path d="M1 4.83333C1 3.94928 1.35119 3.10143 1.97631 2.47631C2.60143 1.85119 3.44928 1.5 4.33333 1.5H13.6667C14.5507 1.5 15.3986 1.85119 16.0237 2.47631C16.6488 3.10143 17 3.94928 17 4.83333V14.1667C17 15.0507 16.6488 15.8986 16.0237 16.5237C15.3986 17.1488 14.5507 17.5 13.6667 17.5H4.33333C3.44928 17.5 2.60143 17.1488 1.97631 16.5237C1.35119 15.8986 1 15.0507 1 14.1667V4.83333ZM4.33333 2.83333C3.8029 2.83333 3.29419 3.04405 2.91912 3.41912C2.54405 3.79419 2.33333 4.3029 2.33333 4.83333V14.1667C2.33333 14.6971 2.54405 15.2058 2.91912 15.5809C3.29419 15.956 3.8029 16.1667 4.33333 16.1667H13.6667C14.1971 16.1667 14.7058 15.956 15.0809 15.5809C15.456 15.2058 15.6667 14.6971 15.6667 14.1667V4.83333C15.6667 4.3029 15.456 3.79419 15.0809 3.41912C14.7058 3.04405 14.1971 2.83333 13.6667 2.83333H4.33333ZM9.66667 12.8333C9.66667 12.6565 9.7369 12.487 9.86193 12.3619C9.98695 12.2369 10.1565 12.1667 10.3333 12.1667H13.3333C13.5101 12.1667 13.6797 12.2369 13.8047 12.3619C13.9298 12.487 14 12.6565 14 12.8333C14 13.0101 13.9298 13.1797 13.8047 13.3047C13.6797 13.4298 13.5101 13.5 13.3333 13.5H10.3333C10.1565 13.5 9.98695 13.4298 9.86193 13.3047C9.7369 13.1797 9.66667 13.0101 9.66667 12.8333ZM10.3333 6.83333C10.1565 6.83333 9.98695 6.90357 9.86193 7.0286C9.7369 7.15362 9.66667 7.32319 9.66667 7.5C9.66667 7.67681 9.7369 7.84638 9.86193 7.9714C9.98695 8.09643 10.1565 8.16667 10.3333 8.16667H13.3333C13.5101 8.16667 13.6797 8.09643 13.8047 7.9714C13.9298 7.84638 14 7.67681 14 7.5C14 7.32319 13.9298 7.15362 13.8047 7.0286C13.6797 6.90357 13.5101 6.83333 13.3333 6.83333H10.3333ZM8.13867 11.028C8.20075 11.0899 8.25001 11.1635 8.28362 11.2445C8.31723 11.3255 8.33453 11.4123 8.33453 11.5C8.33453 11.5877 8.31723 11.6745 8.28362 11.7555C8.25001 11.8365 8.20075 11.9101 8.13867 11.972L6.13867 13.972C6.07674 14.0341 6.00317 14.0833 5.92218 14.117C5.84119 14.1506 5.75436 14.1679 5.66667 14.1679C5.57898 14.1679 5.49215 14.1506 5.41116 14.117C5.33016 14.0833 5.25659 14.0341 5.19467 13.972L4.19733 12.9747C4.13535 12.9127 4.08618 12.8391 4.05264 12.7581C4.01909 12.6771 4.00182 12.5903 4.00182 12.5027C4.00182 12.415 4.01909 12.3282 4.05264 12.2472C4.08618 12.1662 4.13535 12.0927 4.19733 12.0307C4.32252 11.9055 4.4923 11.8352 4.66933 11.8352C4.75699 11.8352 4.84379 11.8524 4.92478 11.886C5.00576 11.9195 5.07935 11.9687 5.14133 12.0307L5.66667 12.5573L7.19467 11.028C7.25659 10.9659 7.33016 10.9167 7.41116 10.8831C7.49215 10.8494 7.57898 10.8321 7.66667 10.8321C7.75436 10.8321 7.84119 10.8494 7.92218 10.8831C8.00317 10.9167 8.07674 10.9659 8.13867 11.028ZM8.13867 6.63867C8.20065 6.57668 8.24982 6.5031 8.28336 6.42211C8.31691 6.34113 8.33418 6.25433 8.33418 6.16667C8.33418 6.07901 8.31691 5.99221 8.28336 5.91122C8.24982 5.83024 8.20065 5.75665 8.13867 5.69467C8.07668 5.63268 8.0031 5.58351 7.92211 5.54997C7.84113 5.51642 7.75433 5.49916 7.66667 5.49916C7.57901 5.49916 7.49221 5.51642 7.41122 5.54997C7.33024 5.58351 7.25665 5.63268 7.19467 5.69467L5.66667 7.224L5.14133 6.69733C5.01615 6.57215 4.84637 6.50182 4.66933 6.50182C4.4923 6.50182 4.32252 6.57215 4.19733 6.69733C4.07215 6.82252 4.00182 6.9923 4.00182 7.16933C4.00182 7.34637 4.07215 7.51615 4.19733 7.64133L5.19467 8.63867C5.25659 8.70075 5.33016 8.75001 5.41116 8.78362C5.49215 8.81723 5.57898 8.83453 5.66667 8.83453C5.75436 8.83453 5.84119 8.81723 5.92218 8.78362C6.00317 8.75001 6.07674 8.70075 6.13867 8.63867L8.13867 6.63867Z" fill="#101136"></path>
								</svg>