<svg id="Layer_1" data-name="Layer 1" xmlns="http://www.w3.org/2000/svg" width="98.33" height="100.53" viewBox="0 0 98.33 100.53">
  <defs>
    <style>
      .cls-1 {
        fill: #fff;
      }
    </style>
  </defs>
  <path class="cls-1" d="M283.9,33.94c1.24-7.46,1.54-15.26,4.06-22.26C289.54,7.3,294,3.37,298,.59c7-4.77,14.67-8.5,22.08-12.63,9-5.05,18-4.95,27.06.12C354-8.08,360.72-4.11,367.66-.51c9.54,5,14,13,14.35,23.4.27,7.82.3,15.66,0,23.48-.41,10.19-4.79,18.12-14.13,23C361,73,354.16,76.92,347.37,80.8c-9.36,5.34-18.61,5.25-27.93-.12-6.64-3.81-13.28-7.63-20.06-11.17-9.72-5.08-14.06-13.26-14.37-23.9-.11-3.83,0-7.66,0-11.49Zm44.71,44L330,76.81c0-12.09.08-24.18-.14-36.27,0-1.17-1.81-2.63-3.11-3.39-8.15-4.82-16.39-9.5-24.61-14.19-3.07-1.76-6.19-3.44-9.71-5.39,0,11.7-.41,22.65.26,33.53a13.45,13.45,0,0,0,5.44,9.09C308,66.56,318.42,72.1,328.61,78Zm45.82-60c-13.21,5-13.91,6-14,19.36v1.5c0,2.5-.4,5.21-3.6,4.53-1.34-.28-2.84-2.71-3.14-4.37-.52-2.8-.14-5.76-.14-9.51C348,32.56,343.35,35,339,37.92c-1.19.79-2,3-2,4.58-.17,10.31-.11,20.63-.07,30.94a48.75,48.75,0,0,0,.68,5c10.94-6.29,21.31-11.86,31.2-18.17,2.63-1.68,5.21-5.57,5.38-8.59C374.81,40.46,374.43,29.2,374.43,17.9Zm-24.15,5.45c-12.93-7.5-25-14.52-37.1-21.46a3.53,3.53,0,0,0-2.78-.47c-5,2.73-9.85,5.66-15.74,9.11,13.23,7.67,25,14.55,36.83,21.26a5,5,0,0,0,4.06,0C340.24,29.31,344.76,26.54,350.28,23.35ZM318.6-2.9c12.4,7.11,24.31,14,36.31,20.73a5.1,5.1,0,0,0,4.08.42c4.11-2.1,8-4.59,12.84-7.44a87.57,87.57,0,0,0-7.24-5.2C358.26,2,351.67-1.21,345.45-5,336.14-10.66,327.53-9.52,318.6-2.9Z" transform="translate(-283.9 15.78)"/>
</svg>
