<svg width="18" height="19" viewBox="0 0 18 19" fill="none" xmlns="http://www.w3.org/2000/svg">
											<path d="M2.37775 6.08008L9.00024 9.91257L15.5777 6.10255" stroke="#101136" stroke-width="1.5" stroke-linecap="round" stroke-linejoin="round"></path>
											<path d="M9.00024 16.7078V9.90527" stroke="#101136" stroke-width="1.5" stroke-linecap="round" stroke-linejoin="round"></path>
											<path d="M7.44759 2.36L3.44259 4.58752C2.53509 5.09002 1.7926 6.35001 1.7926 7.38501V11.6225C1.7926 12.6575 2.53509 13.9175 3.44259 14.42L7.44759 16.6475C8.30259 17.12 9.70508 17.12 10.5601 16.6475L14.5651 14.42C15.4726 13.9175 16.2151 12.6575 16.2151 11.6225V7.38501C16.2151 6.35001 15.4726 5.09002 14.5651 4.58752L10.5601 2.36C9.69758 1.88 8.30259 1.88 7.44759 2.36Z" stroke="#101136" stroke-width="1.5" stroke-linecap="round" stroke-linejoin="round"></path>
											<path d="M12.75 10.4302V7.68523L5.63251 3.5752" stroke="#101136" stroke-width="1.5" stroke-linecap="round" stroke-linejoin="round"></path>
										</svg>