<svg width="18" height="18" viewBox="0 0 18 18" fill="none" xmlns="http://www.w3.org/2000/svg">
                                                <path d="M6.50391 10.7469C6.50391 11.7144 7.24641 12.4944 8.16891 12.4944H10.0514C10.8539 12.4944 11.5064 11.8119 11.5064 10.9719C11.5064 10.0569 11.1089 9.73439 10.5164 9.52439L7.49391 8.47439C6.90141 8.26439 6.50391 7.94189 6.50391 7.02689C6.50391 6.18689 7.15641 5.50439 7.95891 5.50439H9.84141C10.7639 5.50439 11.5064 6.28439 11.5064 7.25189" stroke="#101136" stroke-width="1.5" stroke-linecap="round" stroke-linejoin="round"></path>
                                                <path d="M9 4.5V13.5" stroke="#101136" stroke-width="1.5" stroke-linecap="round" stroke-linejoin="round"></path>
                                                <path d="M9 16.5005C13.1421 16.5005 16.5 13.1426 16.5 9.00049C16.5 4.85835 13.1421 1.50049 9 1.50049C4.85786 1.50049 1.5 4.85835 1.5 9.00049C1.5 13.1426 4.85786 16.5005 9 16.5005Z" stroke="#101136" stroke-width="1.5" stroke-linecap="round" stroke-linejoin="round"></path>
                                            </svg>