<svg width="18" height="19" viewBox="0 0 18 19" fill="none" xmlns="http://www.w3.org/2000/svg">
											<path d="M9.12032 8.6525C9.04532 8.645 8.95532 8.645 8.87282 8.6525C7.08782 8.5925 5.67032 7.13 5.67032 5.33C5.67032 3.4925 7.15532 2 9.00032 2C10.8378 2 12.3303 3.4925 12.3303 5.33C12.3228 7.13 10.9053 8.5925 9.12032 8.6525Z" stroke="#101136" stroke-width="1.5" stroke-linecap="round" stroke-linejoin="round"></path>
											<path d="M5.37022 11.42C3.55522 12.635 3.55522 14.615 5.37022 15.8225C7.43272 17.2025 10.8152 17.2025 12.8777 15.8225C14.6927 14.6075 14.6927 12.6275 12.8777 11.42C10.8227 10.0475 7.44022 10.0475 5.37022 11.42Z" stroke="#101136" stroke-width="1.5" stroke-linecap="round" stroke-linejoin="round"></path>
										</svg>