<svg id="Layer_1" data-name="Layer 1" xmlns="http://www.w3.org/2000/svg" width="512.34" height="512.87" viewBox="0 0 512.34 512.87">
  <g>
    <path d="M281.1,643c-31.65,0-63.34.88-95-.25-32-1.14-63-8-91.09-24.42-33.41-19.57-52.33-49.71-62-86.36-5.83-22.17-8.19-44.81-8.18-67.7,0-54.33-.36-108.67.33-163,.37-29.42,5.2-58.31,17.55-85.4,18.46-40.5,50.53-64.47,92.84-75.85,25.93-7,52.46-8.77,79.13-8.83,47.5-.11,95-.25,142.49.2,29.38.28,58.41,3.62,86.21,14.12,40.8,15.41,67.74,44,81.55,85.21,9.75,29.09,12.19,59.17,12.13,89.6-.1,49.66.24,99.33-.28,149-.3,28.06-4.21,55.71-14.46,82.12-16.76,43.18-48.36,69.72-92.32,82.47-25,7.25-50.61,9.67-76.47,9.93-24.16.23-48.33,0-72.49,0Zm160-69.75a71.07,71.07,0,0,0,25.86-25.88c13.54-23.11,17.53-48.78,17.89-74.86.72-52.31.37-104.64.43-157,0-20.87-1.73-41.53-7.27-61.76-9-32.71-29.4-53.92-62.35-63a215.14,215.14,0,0,0-56.22-7.51c-51.49-.34-103-.51-154.48.09a284.77,284.77,0,0,0-47.56,4.9c-39.86,7.27-65.49,30.19-74.78,70.46-4.56,19.78-6,39.79-6.09,59.94-.15,38.66-.32,77.32.07,116,.21,21,.71,42,2.64,62.8,1.94,21,7.94,41.14,21.31,58.2,5.62,7.17,12.17,13.42,20.56,17.66.69-1.4,1.18-2.27,1.56-3.18C133.47,544.28,151,524,174,508.5,216.31,480.15,263,470.41,312.94,479,370.84,489,415.59,517.64,441.08,573.23Zm-50.5,15.65c-1.36-2.69-2.43-5.11-3.75-7.38-10-17-24.2-29.5-41.55-38.45-25.57-13.19-52.81-17.31-81.27-14.12s-53.68,13.39-74.34,33.65c-7.72,7.58-14.17,16.1-18.3,26.27C184.16,593.22,375.08,593.35,390.58,588.88Z" transform="translate(-24.81 -131.07)"/>
    <path d="M280.62,463.25c-60.46-.2-108-48.46-107.87-109.42.18-59.41,48.63-107.35,108.53-107.37,59.63,0,108.31,48.92,108,108.54C388.87,415.54,340.8,463.45,280.62,463.25ZM337.46,356.7c1.88-30.22-22.64-57-54.49-58.37C252.65,297,225.61,320,224.43,353.14a56.2,56.2,0,0,0,55,58.45C310.74,412.62,336.4,388.06,337.46,356.7Z" transform="translate(-24.81 -131.07)"/>
  </g>
</svg>
