<svg width="18" height="19" viewBox="0 0 18 19" fill="none" xmlns="http://www.w3.org/2000/svg">
                                                <path d="M9.69 2.19488L14.5725 4.82738C15.1425 5.13488 15.1425 6.01238 14.5725 6.31988L9.69 8.95238C9.255 9.18488 8.745 9.18488 8.31 8.95238L3.4275 6.31988C2.8575 6.01238 2.8575 5.13488 3.4275 4.82738L8.31 2.19488C8.745 1.96238 9.255 1.96238 9.69 2.19488Z" stroke="#101136" stroke-width="1.5" stroke-linecap="round" stroke-linejoin="round"></path>
                                                <path d="M2.7075 8.09824L7.245 10.3707C7.8075 10.6557 8.1675 11.2332 8.1675 11.8632V16.1532C8.1675 16.7757 7.515 17.1732 6.96 16.8957L2.4225 14.6232C1.86 14.3382 1.5 13.7607 1.5 13.1307V8.84074C1.5 8.21824 2.1525 7.82074 2.7075 8.09824Z" stroke="#101136" stroke-width="1.5" stroke-linecap="round" stroke-linejoin="round"></path>
                                                <path d="M15.2925 8.09824L10.755 10.3707C10.1925 10.6557 9.83252 11.2332 9.83252 11.8632V16.1532C9.83252 16.7757 10.485 17.1732 11.04 16.8957L15.5775 14.6232C16.14 14.3382 16.5 13.7607 16.5 13.1307V8.84074C16.5 8.21824 15.8475 7.82074 15.2925 8.09824Z" stroke="#101136" stroke-width="1.5" stroke-linecap="round" stroke-linejoin="round"></path>
                                            </svg>