<svg id="Layer_1" data-name="Layer 1" xmlns="http://www.w3.org/2000/svg" width="164.72" height="164.62" viewBox="0 0 164.72 164.62">
  <g>
    <path d="M958.8,544.61c-44.29,0-81-35.89-81.81-80.51A82.12,82.12,0,0,1,959.33,380c45.46-.13,82.55,37.25,82.37,82.66A82.18,82.18,0,0,1,958.8,544.61Zm.2-150.28c-35.12-.25-67.54,27.87-67.85,68-.3,37.81,31,68.55,68.73,68.17,36.14-.36,67.72-28.67,67.57-68.32C1027.29,420.66,993.23,393.81,959,394.33Z" transform="translate(-876.98 -379.99)"/>
    <path d="M951.67,481.1c-.3-10.61,4.32-18.17,14-22.5,8-3.57,11.8-10.08,9.86-17.31s-11-12.75-18.94-11.5c-6,1-10.84,3.86-13.94,9.39-2.85,5.07-6.57,6.45-10.56,4.26s-4.54-6.34-1.79-11.29c6.31-11.39,18.87-18.2,31.72-16.49,13,1.74,22.67,8.29,26.89,21.3a27.63,27.63,0,0,1-15.78,33.8c-5.38,2.28-7.73,5.64-7.53,11.4.22,6.61-2.33,9.92-7,10-4.51.05-6.92-3.43-6.93-10Z" transform="translate(-876.98 -379.99)"/>
    <path d="M967.9,505.24a9.09,9.09,0,0,1-9.4,9.42,9.43,9.43,0,0,1-9.64-9.31,9.75,9.75,0,0,1,9.56-9.53A9.21,9.21,0,0,1,967.9,505.24Z" transform="translate(-876.98 -379.99)"/>
  </g>
</svg>
