<svg width="16" height="17" viewBox="0 0 16 17" fill="none" xmlns="http://www.w3.org/2000/svg">
									<path d="M1.33337 8.49999C1.33337 5.35733 1.33337 3.78599 2.30937 2.80933C3.28671 1.83333 4.85737 1.83333 8.00004 1.83333C11.1427 1.83333 12.714 1.83333 13.69 2.80933C14.6667 3.78666 14.6667 5.35733 14.6667 8.49999C14.6667 11.6427 14.6667 13.214 13.69 14.19C12.7147 15.1667 11.1427 15.1667 8.00004 15.1667C4.85737 15.1667 3.28604 15.1667 2.30937 14.19C1.33337 13.2147 1.33337 11.6427 1.33337 8.49999Z" stroke="black" stroke-width="1.5"></path>
									<path d="M6.75 6.41666C6.75003 6.19775 6.80755 5.98269 6.91679 5.79299C7.02604 5.6033 7.18319 5.44562 7.37252 5.33573C7.56185 5.22584 7.77671 5.1676 7.99562 5.16683C8.21452 5.16606 8.42979 5.2228 8.61988 5.33136C8.80998 5.43991 8.96823 5.59649 9.0788 5.78541C9.18938 5.97434 9.2484 6.18899 9.24997 6.40789C9.25153 6.62679 9.19558 6.84227 9.08772 7.03275C8.97985 7.22324 8.82386 7.38206 8.63533 7.49332C8.31867 7.68066 8 7.96532 8 8.33332V9.16666" stroke="black" stroke-width="1.5" stroke-linecap="round"></path>
									<path d="M8.00004 11.8333C8.36823 11.8333 8.66671 11.5349 8.66671 11.1667C8.66671 10.7985 8.36823 10.5 8.00004 10.5C7.63185 10.5 7.33337 10.7985 7.33337 11.1667C7.33337 11.5349 7.63185 11.8333 8.00004 11.8333Z" fill="black"></path>
								</svg>