<svg width="16" height="17" viewBox="0 0 16 17" fill="none" xmlns="http://www.w3.org/2000/svg">
									<path d="M6.43335 9.69999L7.50668 10.5333C7.64668 10.6733 7.96002 10.74 8.16669 10.74H9.48668C9.90002 10.74 10.3534 10.4266 10.46 10.0133L11.2934 7.48661C11.4667 6.99995 11.1534 6.58663 10.6334 6.58663H9.24668C9.04002 6.58663 8.86669 6.4133 8.90002 6.1733L9.07335 5.06661C9.14002 4.75328 8.93335 4.4066 8.62002 4.3066C8.34002 4.19993 7.99335 4.33992 7.86002 4.54659L6.44002 6.65995" stroke="black" stroke-width="1.2" stroke-miterlimit="10"></path>
									<path d="M4.66663 9.70002V6.30663C4.66663 5.81996 4.87329 5.64664 5.35995 5.64664H5.70662C6.19329 5.64664 6.39996 5.81996 6.39996 6.30663V9.70002C6.39996 10.1867 6.19329 10.36 5.70662 10.36H5.35995C4.87329 10.36 4.66663 10.1867 4.66663 9.70002Z" stroke="black" stroke-width="1.2" stroke-linecap="round" stroke-linejoin="round"></path>
									<path d="M12.6667 13.6454H12.0756C11.4533 13.6454 10.8622 13.878 10.4267 14.2983L9.09667 15.5666C8.49 16.1445 7.50222 16.1445 6.89556 15.5666L5.56555 14.2983C5.13 13.878 4.53111 13.6454 3.91667 13.6454H3.33333C2.04222 13.6454 1 12.6473 1 11.4165V3.22887C1 1.9981 2.04222 1 3.33333 1H12.6667C13.9578 1 15 1.9981 15 3.22887V11.4165C15 12.6398 13.9578 13.6454 12.6667 13.6454Z" stroke="black" stroke-width="1.5" stroke-miterlimit="10" stroke-linecap="round" stroke-linejoin="round"></path>
								</svg>