<svg id="Layer_1" data-name="Layer 1" xmlns="http://www.w3.org/2000/svg" width="292.2" height="292.15" viewBox="0 0 292.2 292.15">
  <path d="M410.9,311c0-3,0-4.74,0-6.47.1-9.33-.34-18.7.48-28,.89-10.06,9.17-15.9,19.86-15.2a17.46,17.46,0,0,1,16.18,17.22q.18,46.5,0,93c-.05,10.26-7.95,17.22-19.22,17.32-14.5.14-29,.08-43.49.08-15.33,0-30.66-.07-46,0-7.68,0-13.67-3-17.11-9.94s-2.69-13.62,2-19.72c3.69-4.83,8.79-6.81,14.85-6.78,17.16.07,34.33,0,51.49,0h7.31c-5.7-7.43-10.11-14.23-15.54-20.1-41.88-45.29-114.89-46.39-157.79-3-56.81,57.42-35.56,154.4,40.61,181.25,50,17.61,105.57-1.88,132.72-50,5.85-10.39,14.91-14.33,24.94-10.86s14.49,14.18,9.52,23.47C408.28,517,372.52,544,323.2,551.63c-61.32,9.52-119.65-19-150-73-15.37-27.31-20.17-56.82-16.93-87.71,5.46-52,33-89.2,78-114.08C255.32,265.2,278.5,261,302.52,261.3c38.52.47,71.68,14.08,99.62,40.5C404.87,304.38,407.32,307.25,410.9,311Z" transform="translate(-155.33 -261.29)"/>
</svg>
