<svg width="17" height="17" viewBox="0 0 17 17" fill="none" xmlns="http://www.w3.org/2000/svg">
										<path d="M6.49992 15.1666H10.4999C13.8333 15.1666 15.1666 13.8333 15.1666 10.5V6.49998C15.1666 3.16665 13.8333 1.83331 10.4999 1.83331H6.49992C3.16659 1.83331 1.83325 3.16665 1.83325 6.49998V10.5C1.83325 13.8333 3.16659 15.1666 6.49992 15.1666Z" stroke="black" stroke-width="1.5" stroke-linejoin="round"></path>
										<path d="M10.8799 12.8333V10.2333" stroke="black" stroke-width="1.5" stroke-miterlimit="10" stroke-linecap="round" stroke-linejoin="round"></path>
										<path d="M10.8799 5.46669V4.16669" stroke="black" stroke-width="1.5" stroke-miterlimit="10" stroke-linecap="round" stroke-linejoin="round"></path>
										<path d="M10.8801 8.93334C11.8374 8.93334 12.6134 8.1573 12.6134 7.20001C12.6134 6.24271 11.8374 5.46667 10.8801 5.46667C9.92277 5.46667 9.14673 6.24271 9.14673 7.20001C9.14673 8.1573 9.92277 8.93334 10.8801 8.93334Z" stroke="black" stroke-width="1.5" stroke-miterlimit="10" stroke-linejoin="round"></path>
										<path d="M6.12012 12.8333V11.5333" stroke="black" stroke-width="1.5" stroke-miterlimit="10" stroke-linecap="round" stroke-linejoin="round"></path>
										<path d="M6.12012 6.76669V4.16669" stroke="black" stroke-width="1.5" stroke-miterlimit="10" stroke-linecap="round" stroke-linejoin="round"></path>
										<path d="M6.12005 11.5333C7.07735 11.5333 7.85338 10.7573 7.85338 9.79998C7.85338 8.84269 7.07735 8.06665 6.12005 8.06665C5.16276 8.06665 4.38672 8.84269 4.38672 9.79998C4.38672 10.7573 5.16276 11.5333 6.12005 11.5333Z" stroke="black" stroke-width="1.5" stroke-miterlimit="10" stroke-linejoin="round"></path>
									</svg>