<svg width="18" height="19" viewBox="0 0 18 19" fill="none" xmlns="http://www.w3.org/2000/svg">
											<path d="M14.25 14C15.3105 14 15.8407 14 16.17 13.67C16.5 13.3407 16.5 12.8105 16.5 11.75C16.5 10.6895 16.5 10.1592 16.17 9.83C15.8415 9.5 15.3112 9.5 14.25 9.5M3.75 14C2.6895 14 2.15925 14 1.83 13.67C1.5 13.3415 1.5 12.8112 1.5 11.75C1.5 10.6887 1.5 10.1592 1.83 9.83C2.1585 9.5 2.68875 9.5 3.75 9.5M9 4.25C9.29837 4.25 9.58452 4.13147 9.79549 3.92049C10.0065 3.70952 10.125 3.42337 10.125 3.125C10.125 2.82663 10.0065 2.54048 9.79549 2.3295C9.58452 2.11853 9.29837 2 9 2C8.70163 2 8.41548 2.11853 8.2045 2.3295C7.99353 2.54048 7.875 2.82663 7.875 3.125C7.875 3.42337 7.99353 3.70952 8.2045 3.92049C8.41548 4.13147 8.70163 4.25 9 4.25ZM9 4.25V6.5M6.75 10.25V11M11.25 10.25V11M14.25 12.5V11C14.25 8.879 14.25 7.81775 13.5907 7.15925C12.9322 6.5 11.871 6.5 9.75 6.5H8.25C6.129 6.5 5.06775 6.5 4.40925 7.15925C3.75 7.81775 3.75 8.879 3.75 11V12.5C3.75 14.621 3.75 15.6822 4.40925 16.3407C5.06775 17 6.129 17 8.25 17H9.75C11.871 17 12.9322 17 13.5907 16.3407C14.25 15.6822 14.25 14.621 14.25 12.5Z" stroke="#101136" stroke-width="1.5" stroke-linecap="round" stroke-linejoin="round"></path>
											<path d="M7.5 13.625C7.5 13.625 8.00025 14 9 14C9.99975 14 10.5 13.625 10.5 13.625" stroke="#101136" stroke-width="1.5" stroke-linecap="round" stroke-linejoin="round"></path>
										</svg>