<svg width="24" height="24" viewBox="0 0 24 24" fill="none" xmlns="http://www.w3.org/2000/svg">
							<path d="M14.706 4.313H9.29401C8.63978 4.31273 7.9919 4.44139 7.3874 4.6916C6.78291 4.94181 6.23363 5.30868 5.77097 5.77125C5.30831 6.23382 4.94133 6.78302 4.691 7.38746C4.44066 7.99191 4.31188 8.63976 4.31201 9.294V14.706C4.31175 15.3603 4.44043 16.0083 4.69071 16.6128C4.94098 17.2174 5.30795 17.7667 5.77062 18.2294C6.23329 18.6921 6.78261 19.059 7.38717 19.3093C7.99174 19.5596 8.63969 19.6883 9.29401 19.688H14.706C15.3603 19.6883 16.0083 19.5596 16.6129 19.3093C17.2174 19.059 17.7667 18.6921 18.2294 18.2294C18.6921 17.7667 19.059 17.2174 19.3093 16.6128C19.5596 16.0083 19.6883 15.3603 19.688 14.706V9.294C19.6883 8.63968 19.5596 7.99172 19.3093 7.38716C19.059 6.78259 18.6921 6.23328 18.2294 5.7706C17.7667 5.30793 17.2174 4.94097 16.6129 4.69069C16.0083 4.44042 15.3603 4.31173 14.706 4.312V4.313Z" stroke="black" stroke-width="1.5"></path>
							<path d="M19.606 15.588H21.225C21.4968 15.588 21.7576 15.48 21.9498 15.2878C22.142 15.0956 22.25 14.8348 22.25 14.563V9.43799C22.25 9.16615 22.142 8.90543 21.9498 8.71321C21.7576 8.52099 21.4968 8.41299 21.225 8.41299H19.605M4.395 15.588H2.775C2.6404 15.588 2.50711 15.5615 2.38275 15.51C2.25839 15.4585 2.1454 15.383 2.05022 15.2878C1.95504 15.1926 1.87953 15.0796 1.82802 14.9552C1.77651 14.8309 1.75 14.6976 1.75 14.563V9.43799C1.75 9.16615 1.85799 8.90543 2.05022 8.71321C2.24244 8.52099 2.50315 8.41299 2.775 8.41299H4.395" stroke="black" stroke-width="1.5"></path>
							<path d="M2.76501 8.413V4.313M21.225 8.413L21.215 4.313M8.91501 8.763V11.461M15.065 8.763V11.461M9.94001 15.588H14.04" stroke="black" stroke-width="1.5" stroke-linecap="round" stroke-linejoin="round"></path>
						</svg>