<svg id="Layer_1" data-name="Layer 1" xmlns="http://www.w3.org/2000/svg" width="350.35" height="385.15" viewBox="0 0 350.35 385.15">
  <defs>
    <style>
      .cls-1 {
        fill: #fff;
      }
    </style>
  </defs>
  <g>
    <path class="cls-1" d="M307.14,210.47q0-68.75,0-137.49c0-31,23.71-54.72,54.62-54.71,46.66,0,93.32.11,140,0a54,54,0,0,1,39.52,16.16q20.28,20,40.3,40.29c8.78,8.87,9,20.9.87,28.89-8,7.82-19.69,7.35-28.53-1.39Q534.16,82.71,514.68,63a18.11,18.11,0,0,0-13.74-5.77c-46,.11-92,.05-138,.08-11.11,0-16.84,5.74-16.85,16.94q0,136.25,0,272.48c0,12.1,5.67,17.7,17.73,17.7q101.49,0,203,0c10.84,0,16.64-5.55,17.31-16.33A19.43,19.43,0,0,1,604,329.68a19.94,19.94,0,0,1,19.08,20.88c-1.21,29.9-25,52.82-54.86,52.83q-103,0-206,0c-31.27,0-55-23.76-55.06-54.94Q307.12,279.45,307.14,210.47Z" transform="translate(-307.14 -18.26)"/>
    <path class="cls-1" d="M657.49,195.92a54.89,54.89,0,0,1-16.74,39.78q-35.52,35.54-71.17,70.94c-7.17,7.09-16.36,10.6-25.9,13.3-14.69,4.17-29.37,8.44-44,12.71-10.64,3.1-20.17,1.1-28.16-6.55-8.19-7.86-10.35-17.61-7.32-28.4q6.94-24.7,14.24-49.3a55.05,55.05,0,0,1,14.26-23.7c22.89-22.84,45.59-45.87,68.66-68.52,16.39-16.08,36-21,57.89-13.75,21.48,7.18,33.68,22.88,37.8,45C657.54,190.15,657.35,193,657.49,195.92ZM506.87,290.09c11.77-3.54,22.4-6.7,33-10a8.7,8.7,0,0,0,3.33-2.14c23.83-23.79,47.69-47.53,71.34-71.49,4.74-4.8,5.19-11.13,2.73-17.27-4.9-12.24-19.27-14.65-29.08-4.9Q554.34,218,520.71,251.87a19.66,19.66,0,0,0-4.69,7.48C512.86,269.11,510.13,279,506.87,290.09Z" transform="translate(-307.14 -18.26)"/>
    <path class="cls-1" d="M404.49,295.27h8c11,0,19.38,7.56,19.92,18,.58,11.14-7,19.93-18.34,20.73a141.85,141.85,0,0,1-19.45,0,19.54,19.54,0,0,1-18.35-20.4c.55-10.43,8.9-18.21,19.76-18.36C398.83,295.24,401.66,295.28,404.49,295.27Z" transform="translate(-307.14 -18.26)"/>
  </g>
</svg>
