<svg id="Layer_1" data-name="Layer 1" xmlns="http://www.w3.org/2000/svg" width="474" height="520.65" viewBox="0 0 474 520.65">
  <g>
    <path d="M54.58,656.12c-3.47,0-6.46,0-9.44,0C29.66,656,18.39,645,18.35,630s11.21-26.17,26.73-26.22c31.66-.09,63.33-.15,95,.11,4.71,0,6.63-1.71,8.42-5.65,5.77-12.69,11.6-25.36,18-37.74,12.66-24.48,33.41-37.18,60.59-38.15,21.1-.75,42.32-.51,63.4.8,22.38,1.4,39.85,12.8,51.24,32,8.55,14.4,15.62,29.69,23.07,44.72,1.49,3,3.09,4,6.38,4q47-.2,94-.05c14.34.05,24.3,8.56,26.82,22.53,2.56,14.12-9.13,29-23.45,29.7-4.13.21-8.27,0-12.82,0-.71,9.89-1.47,19.3-2,28.72-2.14,35.41-4.16,70.83-6.33,106.24-2.27,36.9-4.36,73.81-7.09,110.68-1.69,22.86-3,46-11.74,67.55-15,37-42.09,61-81.46,68.35-20,3.75-40.7,4.22-61.11,4.68-28.47.63-57,.18-85.46-.4-20.16-.41-40.43-2-59.06-10.47-35.86-16.34-58.89-43.74-65.63-82.84-3.87-22.39-5.46-45.23-7.2-67.93-2.37-30.88-3.93-61.83-5.79-92.75q-3.75-62.6-7.45-125.19C55.24,660.71,54.9,658.75,54.58,656.12Zm53.17.26c0,1.79-.06,3,0,4.1q1.88,31.42,3.78,62.84,1.65,27.18,3.34,54.35c1.86,30.25,3.48,60.52,5.67,90.75,1.61,22.23,3.54,44.45,6.08,66.59,2.27,19.71,12.46,34.81,29.52,45,11.68,7,24.9,8.41,38,8.76,30.48.81,61,1.2,91.46,1a358.18,358.18,0,0,0,47.79-3c23.82-3.37,40.6-17.14,47.05-40.41,4.09-14.75,5.38-30.38,6.93-45.72,1.73-17.22,2.35-34.55,3.43-51.84q2.88-46.12,5.75-92.24,2.29-36.4,4.63-72.8c.56-9.06,1-18.13,1.5-27.37Zm200.88-52.89c-4.81-8.34-8.54-16.14-13.59-23-2.13-2.88-7-5.13-10.68-5.23-19.09-.51-38.21-.43-57.32,0-3.33.07-7.92,1.66-9.69,4.15-5.19,7.28-9.24,15.37-14.3,24.09Z" transform="translate(-18.35 -521.93)"/>
    <path d="M287.48,817.1c0-23.48-.07-47,0-70.45a26.11,26.11,0,0,1,21.7-25.57c13.41-2.08,25.75,5.35,29.56,18.11a37,37,0,0,1,1.4,10.32q.13,67.69,0,135.39c0,15.34-7.92,25.5-21.47,28.33-15.7,3.28-31-8.68-31.17-24.69-.19-23.81-.05-47.63-.05-71.44Z" transform="translate(-18.35 -521.93)"/>
    <path d="M170.47,817q0-34.47,0-68.94c0-15.8,11-27.2,26.22-27.23s26.23,11.42,26.31,27.23c.05,11.49,0,23,0,34.48q0,51.95-.06,103.91c0,15.51-11.47,27.47-26.3,27.46s-26.19-11.84-26.21-27.46Q170.44,851.75,170.47,817Z" transform="translate(-18.35 -521.93)"/>
  </g>
</svg>
