<svg id="Layer_1" data-name="Layer 1" xmlns="http://www.w3.org/2000/svg" width="387.62" height="387.63" viewBox="0 0 387.62 387.63">
  <g>
    <path d="M714,586.44c0,22.67-.72,45.36.29,68a156.51,156.51,0,0,0,6.42,36.69c7.37,25.21,25.95,38.81,50.86,43.82a196,196,0,0,0,36.12,4c39.49.49,79,.6,118.49-.05a189.76,189.76,0,0,0,39-5.07c26.29-6,42.34-23.05,48.92-49.11,3.85-15.27,5.08-30.84,5.08-46.53,0-11.17,0-22.34,0-33.51,0-11.38,7.46-19.65,18.32-20.48,10-.75,20,7.11,20.19,18,.67,31.94,1.93,64-7,95.28-12,42-40.21,66.85-82.48,75.44a258.94,258.94,0,0,1-46.56,5c-38,.67-76,.46-114,0-22.89-.25-45.52-3.14-66.85-12.15-33.47-14.15-53-40.13-60.31-75a257.18,257.18,0,0,1-5.3-48.49c-.69-40.5-.5-81,.05-121.53.29-21,3.93-41.69,12.41-61.21,13.78-31.71,38.54-50.05,71.31-58.54,17.18-4.45,34.72-6.07,52.43-6.1,12.17,0,24.34,0,36.5,0,11.75,0,20.23,7.83,20.44,18.67.21,11.4-7.7,19.7-19.67,20-10.65.29-21.33.07-32,.05-16.69,0-33.22.94-49.5,5.2-27,7.07-42.83,24.58-49.15,51.43-3.85,16.35-4.48,32.94-4.49,49.6q0,23.27,0,46.51Z" transform="translate(-674.69 -390.67)"/>
    <path d="M981,390.68c11.35-.22,23.79,4.58,35.21,12.22a118,118,0,0,1,35,35.81c16.37,26.31,15,54.11-5.64,79.06-12,14.6-26,27.67-39.37,41.13Q953.25,612.06,900.1,665c-11.29,11.29-25.1,17-40.74,19.08-15.17,2-30.3,4.17-45.45,6.31-31.91,4.51-55.52-18.35-51.7-50.54,2.11-17.83,5-35.59,7.74-53.34a58.56,58.56,0,0,1,16.74-32.79Q857,483.25,927.59,413.16C941.43,399.49,958,390.62,981,390.68Zm-71.4,95.13c-1.07.94-1.84,1.54-2.53,2.23-30.66,30.64-61.42,61.16-91.79,92.07a29,29,0,0,0-7.12,14.35c-2.94,16-4.93,32.21-7.15,48.35-1.18,8.61.52,10.32,8.93,9.16,14.33-2,28.62-4.22,43-6.06,8.53-1.1,15.84-4,22-10.32,16.76-17.18,33.87-34,50.84-51l41.36-41.36C942.33,529.46,923.2,510.52,909.55,485.81ZM1024,474.3c-1.19-3.75-1.92-7.73-3.66-11.21-6-12.1-15.5-21.16-26.56-28.6s-22.12-7-32.37,1.11c-7.43,5.85-14.13,12.65-21,19.22a4.81,4.81,0,0,0-.65,4.3c10.93,24.86,28.93,42.75,53.72,53.74a5.14,5.14,0,0,0,4.59-.78c5.59-5.47,11.18-11,16.25-16.93S1023.39,482.76,1024,474.3Z" transform="translate(-674.69 -390.67)"/>
  </g>
</svg>
