<svg id="Layer_1" data-name="Layer 1" xmlns="http://www.w3.org/2000/svg" width="473.07" height="388.68" viewBox="0 0 473.07 388.68">
  <g>
    <path d="M177.19-351c56.9.9,107,19.86,151.16,55.25,27,21.66,49.45,47.49,68.64,76.19,9.9,14.8,14.81,31.28,16.09,49,1.15,15.88.77,31.64-2.82,47.19S398.74-94.55,389.38-81.9C372.78-59.43,354.47-38.55,333-20.63c-32.54,27.1-69.12,46-110.9,54.08a237.91,237.91,0,0,1-69.81,2.92C103.89,31.43,61.59,12.25,24.15-18.18-2.45-39.8-24.63-65.48-43.48-94-55.28-111.88-59.3-132-59.41-153.08c-.08-15.25.85-30.33,5.88-44.91,4.63-13.44,12.5-25,20.9-36.22,20.74-27.78,44.43-52.56,73-72.46C71.62-328.5,105.91-343,143.9-347.91,155-349.35,166.09-350,177.19-351Zm.26,341.54c11.17-1.22,22.45-1.86,33.5-3.79,29.9-5.22,56.67-17.82,81-35.87C315-66.26,334-87.33,351-110.39c5.94-8.08,11.5-16.36,13.31-26.47,1.87-10.42,1.86-20.89,1-31.43a55.14,55.14,0,0,0-10.17-28c-16.11-22.85-34.1-44-56-61.6-42.28-34-90.22-49.38-144.44-43.29-31.29,3.51-59.69,15-85.59,32.76C45-251.85,24.75-231.18,7.42-207.68,2-200.28-3.39-192.61-7.34-184.37c-5.32,11.1-4.3,23.4-4.08,35.41A57.32,57.32,0,0,0-.75-115.89C15.44-93.22,33.32-72.12,55.14-54.61,90.85-26,131.21-10.09,177.45-9.46Z" transform="translate(59.42 351)"/>
    <path d="M177.13-244a87.7,87.7,0,0,1,87.7,87.76c0,48.36-39.71,88.07-88.28,87.59-50.69-.5-87.8-42-87.21-89.27S129.19-244,177.13-244Zm-39.92,87.65a40,40,0,0,0,39.85,39.93c21.94-.07,40-18.16,40-40s-18-39.84-39.64-39.82C155-196.13,137.15-178.46,137.21-156.31Z" transform="translate(59.42 351)"/>
  </g>
</svg>
