<svg id="Layer_1" data-name="Layer 1" xmlns="http://www.w3.org/2000/svg" width="382.99" height="331.28" viewBox="0 0 382.99 331.28">
  <g>
    <path d="M-351,193c31.82,0,63.66-.59,95.46.19,24.34.6,46.77,7.86,65.3,24.63,16.11,14.57,24.79,33.13,28.1,54.22a188.52,188.52,0,0,1,2.25,28.78c.14,42.48.63,85-.43,127.44-.77,30.49-11.35,57.3-36.84,76.27A91.17,91.17,0,0,1-247,522.78c-22.09,1.24-44.27,1.08-66.41,1.15-43,.15-86,.27-129-.07-20.06-.16-39.34-4.49-56.66-15.15-25.23-15.51-38.5-39.06-41.6-67.7-2.18-20.1-1.57-40.53-1.75-60.82q-.36-43.23,0-86.46c.21-22.4,5.31-43.57,18.41-62.16,16.33-23.17,39.78-34,67.14-37.46a219.38,219.38,0,0,1,25.91-1.17c26.66-.14,53.32-.05,80-.05Zm0,38.95v-.5c-16.16,0-32.32-.07-48.48,0-16.33.08-32.67-.1-49,.58-31.31,1.31-52.19,21.17-54.45,52.18-1.14,15.75-1.06,31.61-1.07,47.43,0,32-.06,64,.56,95.95.28,14.36,4.09,28,13.94,39.18,11.52,13,27,17.39,43.48,18,18.3.73,36.65.29,55,.28,44.65,0,89.3.19,134-.24,14.7-.15,28.75-4,40.11-14.13,14-12.5,18-29.18,18.11-46.95.26-43.82.14-87.64.06-131.46,0-12.3-2.45-24.21-8.69-34.92-10.33-17.74-27.4-24.68-46.58-25.21C-286.32,231.32-318.66,232-351,232Z" transform="translate(542.61 -192.81)"/>
    <path d="M-351.8,379.84c-15.69-.43-31.1-4.76-44.37-15.41q-26.07-20.94-52.18-41.84c-9.1-7.3-10.83-19.4-4-27.83,7.06-8.69,18.82-9.83,28-2.53q25.38,20.22,50.65,40.59c13.66,10.94,30.86,11.13,44.47.33q24.4-19.36,48.65-39c5.06-4.09,10.33-7.51,17.11-6.69,8.07,1,14,5.15,16.54,13.13s.75,15.3-5.75,20.72c-11,9.15-22.28,17.93-33.44,26.87-6.09,4.88-12.29,9.64-18.27,14.66C-317.83,374.14-333.43,379.34-351.8,379.84Z" transform="translate(542.61 -192.81)"/>
  </g>
</svg>
