<svg id="Layer_1" data-name="Layer 1" xmlns="http://www.w3.org/2000/svg" width="131.52" height="131.51" viewBox="0 0 131.52 131.51">
  <path d="M278.55,215.54c8.85,8.87,17.37,17.42,25.67,25.76a11.22,11.22,0,0,0,1.75-.91c12.28-11.18,17.11-11.49,30.51-1.91,4.46,3.19,8.73,6.71,13.45,9.47,12.12,7.09,12.26,20.26,4.24,30.48-10.23,13.06-23.95,16-39.42,12.21-16.39-4.05-30-13.32-42.49-24.21-17.78-15.46-33.18-32.9-41-55.59-5.54-16.15-4.4-31.44,9.19-44,8.1-7.46,23.4-10,31.44,3,3.74,6.07,8.3,11.64,12.39,17.51,5.91,8.47,5.54,15.29-1.16,23.07C282,211.84,280.71,213.16,278.55,215.54ZM326.19,279c7.93-.38,14.67-3.28,18.84-10.7,2-3.53,1.76-6.46-2-8.92-5-3.27-9.78-6.9-14.68-10.34-7-4.94-7-4.93-13.05,1.11s-10.12,6.82-17.15,2A116.81,116.81,0,0,1,267.47,221c-3.65-5.4-3-10,1.49-14.89a42.19,42.19,0,0,1,3.47-3.6c3-2.6,2.88-5.12.53-8.21-4.11-5.43-7.91-11.1-11.88-16.63-3.16-4.39-6.49-4.91-10.87-1.55a21.09,21.09,0,0,0-8.6,16.18c-.48,8.24,2,15.79,5.8,22.91,12.41,23.34,30.38,41.39,52.86,55.08C308.17,275.11,316.61,278.42,326.19,279Z" transform="translate(-228.17 -160.67)"/>
</svg>
