<svg id="Layer_1" data-name="Layer 1" xmlns="http://www.w3.org/2000/svg" width="748.22" height="688.22" viewBox="0 0 748.22 688.22">
  <g>
    <path d="M62.43,20c-.4-5.45-.8-10.56-1.16-15.67C58.07-41.61,67.94-84,96-121.21c24.7-32.75,57.77-53.9,96.57-65.89,58.71-18.16,116.9-16.47,173.67,7.82,34.14,14.61,61.71,37.32,79.52,70.55a148.61,148.61,0,0,1,9.52,22.43c2.55,7.51,4,15.38,6.08,23.55,8.24-.57,16.81-1.54,25.38-1.67,48.58-.7,90.48,14.9,123.3,51.69,21.09,23.65,34,51.6,40.22,82.42C661,122.92,654.79,174.12,628.56,222c-26.83,48.94-67.91,78.89-123.32,88.1a168.64,168.64,0,0,1-54.73.34c-15.3-2.47-26.16-16.91-24.87-32.53a30,30,0,0,1,29.65-27.55c10.15,0,20.34,1.06,30.44.43,38.93-2.43,68.58-21,87.35-54.81,26.49-47.67,29.46-97.32,5.49-146.82C559.12,9,522.49-6.13,482.29-3c-14.47,1.14-28.87,4.55-43,8-21,5.15-40.49-10.2-38.84-31.75.88-11.52,1.36-22.93-1.32-34.26-6.34-26.9-23.87-44.76-47.28-57.53-25.39-13.85-52.92-19.34-81.65-19.45-31.86-.13-62.19,6.28-89.92,22.47q-51.85,30.28-57.91,90.3c-2.28,22.89,1,45.12,6.79,67.14,6.27,24-10.83,42.8-35.42,39.92-32.68-3.83-63.8.43-90.93,21.16-30.06,23-42.32,63.66-28.87,97.25,8.73,21.79,25.53,35.2,47.06,43.26,22.36,8.36,45.54,8.78,69,7.45,6.58-.38,13.56-.89,19.76.82,14,3.84,22.28,17.73,20.76,32.52-1.44,14-12.5,25-28.13,26.64-34.28,3.55-68.24,2.28-101-9.73-40.54-14.87-70.82-41.13-85.47-82.41-16.71-47.08-9.27-91.68,19.22-132.24,26.07-37.11,63.13-57,107.41-64.34,3.28-.54,6.58-1,9.88-1.37C55.5,20.55,58.64,20.33,62.43,20Z" transform="translate(92.94 199.31)"/>
    <path d="M247.6,140.76c-15.52,12.42-30,24.05-44.6,35.68-11.18,8.94-22.26,18-33.6,26.77a30.28,30.28,0,0,1-39.38-2.1c-10.64-10-13.16-26.84-4.29-38.66,5.08-6.77,12.28-12.07,19-17.47Q200.88,99.8,257.27,54.89c13.37-10.71,28-11,41.48-.2q63.08,50.36,126,100.89c12.58,10.11,14.59,29.58,4.58,42.19-10.45,13.15-29.4,15.82-42.37,5.56-24.65-19.49-49.12-39.2-73.67-58.81-1.25-1-2.57-1.91-4.72-3.48v6.68q0,154.49,0,309c0,16.71-10.06,29.36-25.16,31.77-19.37,3.1-35.8-10.9-35.81-30.6q0-67,0-134V140.76Z" transform="translate(92.94 199.31)"/>
  </g>
</svg>
