<svg width="18" height="19" viewBox="0 0 18 19" fill="none" xmlns="http://www.w3.org/2000/svg">
								<path d="M9.37504 17.0003H3.06004C2.19004 17.0003 1.47754 16.3028 1.47754 15.4478V4.31776C1.47754 2.35276 2.94004 1.46026 4.73254 2.33776L8.06254 3.97276C8.78254 4.32526 9.37504 5.26276 9.37504 6.05776V17.0003Z" stroke="#101136" stroke-width="1.5" stroke-linecap="round" stroke-linejoin="round"></path>
								<path d="M16.4775 11.7954V14.6304C16.4775 16.2504 15.7275 17.0004 14.1075 17.0004H9.375V8.31543L9.7275 8.39043L13.1025 9.14793L14.625 9.48543C15.615 9.70293 16.425 10.2129 16.47 11.6529C16.4775 11.6979 16.4775 11.7429 16.4775 11.7954Z" stroke="#101136" stroke-width="1.5" stroke-linecap="round" stroke-linejoin="round"></path>
								<path d="M4.125 7.25H6.7275" stroke="#101136" stroke-width="1.5" stroke-linecap="round" stroke-linejoin="round"></path>
								<path d="M4.125 10.25H6.7275" stroke="#101136" stroke-width="1.5" stroke-linecap="round" stroke-linejoin="round"></path>
								<path d="M13.1025 9.14715V11.5621C13.1025 12.4921 12.345 13.2496 11.415 13.2496C10.485 13.2496 9.72754 12.4921 9.72754 11.5621V8.38965L13.1025 9.14715Z" stroke="#101136" stroke-width="1.5" stroke-linecap="round" stroke-linejoin="round"></path>
								<path d="M16.47 11.6525C16.425 12.5375 15.69 13.25 14.79 13.25C13.86 13.25 13.1025 12.4925 13.1025 11.5625V9.14746L14.625 9.48496C15.615 9.70246 16.425 10.2125 16.47 11.6525Z" stroke="#101136" stroke-width="1.5" stroke-linecap="round" stroke-linejoin="round"></path>
							</svg>