<svg id="Layer_1" data-name="Layer 1" xmlns="http://www.w3.org/2000/svg" width="66.36" height="75.38" viewBox="0 0 66.36 75.38">
  <g>
    <path d="M185.35-3.15c-6.73-.37-13.06-.56-19.35-1.12-9-.79-15-6.58-14-15.44a243.35,243.35,0,0,1,6.67-35.63c.88-3.36,5.91-5.63,9-8.42,1.45-1.29,3.54-2.36,4.19-4,3-7.52,6.77-10.78,13.31-10.77,6.18,0,10.52,3.81,13.09,11.07.46,1.31,1.75,3,2.93,3.27C208-62.77,211.71-58,213-52a262.2,262.2,0,0,1,5.14,32c.8,9.09-4.73,14.77-13.76,15.67C197.94-3.72,191.44-3.52,185.35-3.15Zm-.42-6.33c6.58-.48,12.91-.71,19.17-1.46,5.56-.66,8.33-3.51,7.68-9.08-1.2-10.37-3.09-20.67-5-30.94a7.78,7.78,0,0,0-7.7-6.71c-9.12-.25-18.25-.19-27.38-.18a8,8,0,0,0-8.25,6.67c-2.06,10.41-3.87,20.89-5.11,31.42-.61,5.24,2.18,8.12,7.48,8.77C172.21-10.2,178.7-9.95,184.93-9.48Zm-.09-54.16,6.33-3.79c-2-1.5-4-4.25-5.89-4.16-2.21.1-4.29,2.7-6.42,4.22Z" transform="translate(-151.86 78.52)"/>
    <path d="M201.53-24.31l-2.84,3.4c-1.13-1-3-1.87-3.27-3.08-1.37-6.45-2.51-13-3.28-19.53C192-44.7,194-46.14,195-47.45c1.11,1.05,2.94,2,3.2,3.18C199.46-38,200.35-31.57,201.53-24.31Z" transform="translate(-151.86 78.52)"/>
    <path d="M168.84-26.34c1.15-6.82,1.81-12.12,3-17.28.35-1.46,2.39-2.52,3.65-3.77.81,1.62,2.4,3.31,2.28,4.85a92.25,92.25,0,0,1-2.42,15.25c-.6,2.32-2.75,4.24-4.2,6.34C170.25-23.13,169.3-25.3,168.84-26.34Z" transform="translate(-151.86 78.52)"/>
  </g>
</svg>
