<svg id="Layer_1" data-name="Layer 1" xmlns="http://www.w3.org/2000/svg" width="66.36" height="75.38" viewBox="0 0 66.36 75.38">
  <defs>
    <style>
      .cls-1 {
        fill: #fff;
      }
    </style>
  </defs>
  <g>
    <path class="cls-1" d="M283.05,3.51c-6.73-.38-13.06-.57-19.36-1.12-9-.8-15-6.59-14-15.45a245.21,245.21,0,0,1,6.68-35.63c.88-3.36,5.91-5.63,9-8.41,1.45-1.3,3.54-2.36,4.19-4,3-7.52,6.77-10.79,13.31-10.78C289-71.86,293.38-68,296-60.8c.46,1.31,1.75,3,2.93,3.27,6.81,1.41,10.53,6.15,11.83,12.2a262.35,262.35,0,0,1,5.14,31.95c.8,9.1-4.73,14.77-13.76,15.67C295.64,2.94,289.14,3.13,283.05,3.51Zm-.42-6.33c6.58-.48,12.9-.72,19.17-1.47,5.56-.66,8.33-3.51,7.68-9.08-1.21-10.37-3.09-20.67-5-30.93a7.78,7.78,0,0,0-7.7-6.72c-9.12-.25-18.25-.18-27.38-.18a8,8,0,0,0-8.25,6.68c-2.07,10.4-3.88,20.89-5.11,31.42-.61,5.24,2.18,8.11,7.48,8.77C269.91-3.54,276.39-3.29,282.63-2.82ZM282.54-57l6.33-3.8c-2-1.5-4-4.25-5.9-4.16-2.2.11-4.28,2.71-6.41,4.22Z" transform="translate(-249.56 71.87)"/>
    <path class="cls-1" d="M299.23-17.66l-2.84,3.4c-1.14-1-3-1.87-3.27-3.07-1.37-6.46-2.51-13-3.28-19.53-.14-1.19,1.83-2.62,2.82-3.94,1.11,1,2.94,2,3.2,3.19C297.16-31.3,298.05-24.91,299.23-17.66Z" transform="translate(-249.56 71.87)"/>
    <path class="cls-1" d="M266.54-19.69c1.15-6.82,1.81-12.12,3-17.28.35-1.46,2.39-2.52,3.65-3.76.81,1.62,2.4,3.3,2.28,4.84a92.08,92.08,0,0,1-2.42,15.25c-.6,2.32-2.75,4.24-4.2,6.34C268-16.47,267-18.65,266.54-19.69Z" transform="translate(-249.56 71.87)"/>
  </g>
</svg>
