<svg width="17" height="17" viewBox="0 0 17 17" fill="none" xmlns="http://www.w3.org/2000/svg">
										<path d="M8.5 10.4999C9.60457 10.4999 10.5 9.60445 10.5 8.49988C10.5 7.39531 9.60457 6.49988 8.5 6.49988C7.39543 6.49988 6.5 7.39531 6.5 8.49988C6.5 9.60445 7.39543 10.4999 8.5 10.4999Z" stroke="black" stroke-width="1.5" stroke-miterlimit="10" stroke-linecap="round" stroke-linejoin="round"></path>
										<path d="M1.83337 9.08654V7.91321C1.83337 7.21988 2.40004 6.64654 3.10004 6.64654C4.30671 6.64654 4.80004 5.79321 4.19337 4.74654C3.84671 4.14654 4.05337 3.36654 4.66004 3.01988L5.81337 2.35988C6.34004 2.04654 7.02004 2.23321 7.33337 2.75988L7.40671 2.88654C8.00671 3.93321 8.99337 3.93321 9.60004 2.88654L9.67337 2.75988C9.98671 2.23321 10.6667 2.04654 11.1934 2.35988L12.3467 3.01988C12.9534 3.36654 13.16 4.14654 12.8134 4.74654C12.2067 5.79321 12.7 6.64654 13.9067 6.64654C14.6 6.64654 15.1734 7.21321 15.1734 7.91321V9.08654C15.1734 9.77988 14.6067 10.3532 13.9067 10.3532C12.7 10.3532 12.2067 11.2065 12.8134 12.2532C13.16 12.8599 12.9534 13.6332 12.3467 13.9799L11.1934 14.6399C10.6667 14.9532 9.98671 14.7665 9.67337 14.2399L9.60004 14.1132C9.00004 13.0665 8.01337 13.0665 7.40671 14.1132L7.33337 14.2399C7.02004 14.7665 6.34004 14.9532 5.81337 14.6399L4.66004 13.9799C4.05337 13.6332 3.84671 12.8532 4.19337 12.2532C4.80004 11.2065 4.30671 10.3532 3.10004 10.3532C2.40004 10.3532 1.83337 9.77988 1.83337 9.08654Z" stroke="black" stroke-width="1.5" stroke-miterlimit="10" stroke-linecap="round" stroke-linejoin="round"></path>
									</svg>