<svg id="Layer_1" data-name="Layer 1" xmlns="http://www.w3.org/2000/svg" width="108.67" height="101.76" viewBox="0 0 108.67 101.76">
  <g>
    <path d="M-286.28,75.27c1.43-3.9,2.36-6.52,3.35-9.11,1.61-4.23.45-6.32-3.95-7-13.79-2.17-20.44-17.08-13-29.09,2.69-4.32,6.68-6.21,11.66-6.6,6.05-.49,7.16-2.53,4.75-8.2C-287.11,6.58-285.19.88-277-4c1.43-.84,2.86-1.7,4.3-2.53,9.12-5.24,13.67-4.25,19.86,4.3,3.31,4.58,6,4.6,9.33.08,6.5-8.75,10.84-9.64,20.28-4.18,1.73,1,3.47,2,5.17,3,6.69,4.16,8.69,10.37,5.7,17.58s-2.32,8.34,5.21,9.24,12.35,6,12.74,13.56c.13,2.49.09,5,0,7.49-.25,8.42-4.59,13.21-13,14.35-7.24,1-8.05,2.42-5.14,9,3.18,7.11,1.27,13.53-5.33,17.65-2.67,1.67-5.41,3.28-8.21,4.72-6.62,3.39-12.25,1.92-16.51-4.16-4.63-6.62-6.59-6.63-11.19,0-4.21,6-9.92,7.58-16.5,4.21-3.25-1.67-6.79-3.19-9.36-5.65C-282.35,82-284.19,78.27-286.28,75.27ZM-274.48,19c-.51,6.83-4.7,11-12.87,11.81-4.89.5-7.29,2.73-7,7.69.05.83,0,1.67,0,2.5,0,9.19.15,9.51,9.07,11,4.9.82,8.78,3.14,9.78,8,.63,3-.09,6.6-1.12,9.62-2,5.73-1.62,7.5,3.61,10.65,1.14.69,2.3,1.34,3.46,2,6.38,3.63,6.88,3.52,11.31-2.45,5.52-7.44,14.19-7.79,19.82-.78,5.51,6.85,5.51,6.85,13.16,2.46,1-.58,2-1.23,3-1.73,4.15-2,4.68-5.1,3.07-9.13-4.51-11.27-1.44-16.87,10.65-18.9,4.87-.82,7-3.18,6.72-8-.12-1.82-.06-3.66,0-5.49.1-4.42-2-6.67-6.42-7.25-12.11-1.57-15.55-7.64-10.86-19.15,1.62-4,.57-6.76-2.94-8.86-1.57-.94-3.16-1.84-4.75-2.75-6.15-3.5-6.77-3.37-11,2.28-6.17,8.32-14.53,8.36-20.62.09-4.19-5.69-5-5.86-10.92-2.44-1.73,1-3.49,2-5.17,3-3.28,2.07-4.29,4.83-2.67,8.54C-276.09,14-275.36,16.55-274.48,19Z" transform="translate(302.96 9.71)"/>
    <path d="M-229.47,41.32c0,9.88-8.47,18.46-18.43,18.61a19,19,0,0,1-18.91-18.62,18.78,18.78,0,0,1,18.68-18.79A18.77,18.77,0,0,1-229.47,41.32Zm-7.47-.14a10.87,10.87,0,0,0-11-11.14,10.9,10.9,0,0,0-11.41,11.21,10.87,10.87,0,0,0,11,11.15A10.89,10.89,0,0,0-236.94,41.18Z" transform="translate(302.96 9.71)"/>
  </g>
</svg>
