<svg width="15" height="15" viewBox="0 0 15 15" fill="none" xmlns="http://www.w3.org/2000/svg">
										<path d="M7.50005 7.5C9.22594 7.5 10.625 6.10089 10.625 4.375C10.625 2.64911 9.22594 1.25 7.50005 1.25C5.77416 1.25 4.37505 2.64911 4.37505 4.375C4.37505 6.10089 5.77416 7.5 7.50005 7.5Z" stroke="white" stroke-linecap="round" stroke-linejoin="round"></path>
										<path d="M2.13122 13.75C2.13122 11.3313 4.53747 9.375 7.49997 9.375C8.09997 9.375 8.68122 9.45625 9.22497 9.60625" stroke="white" stroke-linecap="round" stroke-linejoin="round"></path>
										<path d="M13.75 11.25C13.75 11.45 13.725 11.6437 13.675 11.8312C13.6187 12.0812 13.5187 12.325 13.3875 12.5375C12.9562 13.2625 12.1625 13.75 11.25 13.75C10.6062 13.75 10.025 13.5062 9.58745 13.1062C9.39995 12.9437 9.23745 12.75 9.11245 12.5375C8.8812 12.1625 8.74995 11.7188 8.74995 11.25C8.74995 10.575 9.01871 9.95626 9.45621 9.50626C9.91246 9.03751 10.55 8.75 11.25 8.75C11.9875 8.75 12.6562 9.06876 13.1062 9.58126C13.5062 10.025 13.75 10.6125 13.75 11.25Z" stroke="white" stroke-miterlimit="10" stroke-linecap="round" stroke-linejoin="round"></path>
										<path d="M12.1813 11.2374H10.3188" stroke="white" stroke-miterlimit="10" stroke-linecap="round" stroke-linejoin="round"></path>
										<path d="M11.2501 10.325V12.1937" stroke="white" stroke-miterlimit="10" stroke-linecap="round" stroke-linejoin="round"></path>
									</svg>