<svg id="Layer_1" data-name="Layer 1" xmlns="http://www.w3.org/2000/svg" width="157.79" height="158.2" viewBox="0 0 157.79 158.2">
  <defs>
    <style>
      .cls-1 {
        fill: #141b32;
      }
    </style>
  </defs>
  <g>
    <path class="cls-1" d="M513.73,276.05c0-13.1,4.79-24,15.52-31.84,9.36-6.86,19.14-5.3,25.86,4,5.74,8,11.5,15.89,17.09,23.95s5,13.43-1.57,20.52c-.46.49-.94.95-1.41,1.42-8.43,8.46-8.65,9.33-1.18,18.52,5,6.18,10.61,11.93,16,17.82,4.48,4.9,4.53,8.14-.1,12.88-4.42,4.53-8.86,9-13.41,13.44-3.44,3.33-7.38,3.75-10.68.52-19.8-19.39-37.23-40.4-44.62-68a57.4,57.4,0,0,1-1.44-7.83A43.52,43.52,0,0,1,513.73,276.05Z" transform="translate(-513.67 -239.97)"/>
    <path class="cls-1" d="M574.21,370.23l25.88-25.54c.55.35,1.62,1.08,2.72,1.76,5.33,3.29,7.17,3.06,11.7-1.4,12.46-12.26,15-12.49,29.21-2.5q10.2,7.17,20.35,14.39c7.39,5.25,9.15,11.46,5.67,19.91-6.28,15.3-23.16,23.75-41.75,20.71C607.26,394.18,590.52,382.94,574.21,370.23Z" transform="translate(-513.67 -239.97)"/>
  </g>
</svg>
