<svg id="Layer_1" data-name="Layer 1" xmlns="http://www.w3.org/2000/svg" width="143.89" height="161.97" viewBox="0 0 143.89 161.97">
  <defs>
    <style>
      .cls-1 {
        fill: #141b32;
      }
    </style>
  </defs>
  <g>
    <path class="cls-1" d="M383,394.06q-32.46,0-64.92,0c-6.3,0-7.55-1.48-6.77-7.78,3-23.9,17.39-38.85,38.36-48.36,31.59-14.33,71.4-6,92.72,19.1a52.87,52.87,0,0,1,12.43,29.37c.68,6.48-.44,7.68-6.89,7.69Q415.42,394.09,383,394.06Z" transform="translate(-311.06 -232.1)"/>
    <path class="cls-1" d="M343.66,270.92a39.33,39.33,0,0,1,40.39-38.82c20.94.31,38.58,18.39,38.46,39.4-.14,22.7-18.13,39.9-41.29,39.49C360.38,310.61,343.28,292.37,343.66,270.92Z" transform="translate(-311.06 -232.1)"/>
  </g>
</svg>
