<svg id="Layer_1" data-name="Layer 1" xmlns="http://www.w3.org/2000/svg" width="122.71" height="122.76" viewBox="0 0 122.71 122.76">
  <defs>
    <style>
      .cls-1 {
        fill: #141b32;
      }
    </style>
  </defs>
  <g>
    <path class="cls-1" d="M105.19,336.29c2,.41,3.72.76,5.47,1.15,9.13,2.07,14.25,8,16.13,16.94,1.51,7.23,1.39,14.57,1.22,21.88a122.56,122.56,0,0,1-1.28,17.68c-1.81,10.62-7.87,16.39-18.61,17.78a160.92,160.92,0,0,1-19.64,1c-17.62.13-35.25.14-52.87-.07a63.36,63.36,0,0,1-13.77-1.77c-8.69-2-13.37-8.09-15.11-16.62C4.84,385,5.48,375.55,5.58,366.15a62.58,62.58,0,0,1,1.19-11.58c2.07-10.46,8-16,18.61-17.71.91-.15,1.82-.33,3-.54,0-3.37,0-6.73,0-10.09.1-6.86,1.1-13.54,4.28-19.72,3.85-7.49,10.12-12.07,18.09-14.19,11.61-3.08,23.27-3.11,34.67.88,9.66,3.37,15.53,10.41,18.12,20.27,1.59,6,1.75,12.17,1.67,18.34C105.17,333.25,105.19,334.7,105.19,336.29Zm-68.41-.51c1.27.07,2.37.18,3.46.18H95c.87,0,1.82.15,1.73-1.25-.35-5.79-.25-11.65-1.11-17.36-1.3-8.53-6.35-14.39-14.75-16.78a51.08,51.08,0,0,0-28.22,0c-7.86,2.22-12.69,7.55-14.6,15.55C36.54,322.53,36.77,329,36.78,335.78ZM48.22,374.3a18.54,18.54,0,1,0,18.51-18.55A18.65,18.65,0,0,0,48.22,374.3Z" transform="translate(-5.4 -290.1)"/>
    <path class="cls-1" d="M66.67,384.25a9.94,9.94,0,1,1,10-9.9A9.93,9.93,0,0,1,66.67,384.25Z" transform="translate(-5.4 -290.1)"/>
  </g>
</svg>
