<svg id="Layer_1" data-name="Layer 1" xmlns="http://www.w3.org/2000/svg" width="155.41" height="132.34" viewBox="0 0 155.41 132.34">
  <defs>
    <style>
      .cls-1 {
        fill: #141b32;
      }
    </style>
  </defs>
  <path class="cls-1" d="M231.3,439.64c-13.49,0-27,.05-40.48,0-23.63-.1-37.14-13.51-37.32-37.25q-.23-29,0-58c.17-22.41,13-36.18,35.39-36.64q42-.86,83.95,0c22.62.42,35.38,13.63,35.74,36.23q.48,30.24,0,60.48c-.37,21.47-13.78,34.71-35.26,35.1-14,.26-28,.05-42,.05Zm-2.07-59c9.05,0,15.31-2.3,20.83-6.68,7.42-5.89,14.76-11.88,22.22-17.72,3.34-2.62,4.79-5.62,2.31-9.43-2.1-3.24-5.89-3.11-10,.13Q254.49,355,244.4,363.15c-9.28,7.47-17.3,7.52-26.54.13q-10.1-8.08-20.21-16.18c-4.15-3.32-7.68-3.48-10.05-.52s-1.4,6.65,2.5,9.77c7.26,5.81,14.57,11.56,21.78,17.43C217.53,378.38,223.93,380.66,229.23,380.63Z" transform="translate(-153.39 -307.35)"/>
</svg>
