<svg width="16" height="17" viewBox="0 0 16 17" fill="none" xmlns="http://www.w3.org/2000/svg">
									<path d="M6.00004 15.1666H10C13.3334 15.1666 14.6667 13.8333 14.6667 10.5V6.49998C14.6667 3.16665 13.3334 1.83331 10 1.83331H6.00004C2.66671 1.83331 1.33337 3.16665 1.33337 6.49998V10.5C1.33337 13.8333 2.66671 15.1666 6.00004 15.1666Z" stroke="black" stroke-width="1.5" stroke-linecap="round" stroke-linejoin="round"></path>
									<path d="M10.3333 12.8334C11.0667 12.8334 11.6667 12.2334 11.6667 11.5V5.50002C11.6667 4.76669 11.0667 4.16669 10.3333 4.16669C9.6 4.16669 9 4.76669 9 5.50002V11.5C9 12.2334 9.59333 12.8334 10.3333 12.8334Z" stroke="black" stroke-width="1.5" stroke-linecap="round" stroke-linejoin="round"></path>
									<path d="M5.66671 12.8333C6.40004 12.8333 7.00004 12.2333 7.00004 11.5V9.16665C7.00004 8.43331 6.40004 7.83331 5.66671 7.83331C4.93337 7.83331 4.33337 8.43331 4.33337 9.16665V11.5C4.33337 12.2333 4.92671 12.8333 5.66671 12.8333Z" stroke="black" stroke-width="1.5" stroke-linecap="round" stroke-linejoin="round"></path>
								</svg>