<svg id="Layer_1" data-name="Layer 1" xmlns="http://www.w3.org/2000/svg" width="487.93" height="487.39" viewBox="0 0 487.93 487.39">
  <g>
    <path d="M286.13,600.42c-66.5-.49-122.64-24.93-167.11-74.74-30.81-34.51-48.93-75.1-54.23-121-10.53-91,33.78-176.89,113.12-221.16,37.25-20.79,77.39-29.71,119.92-27.68a212.84,212.84,0,0,1,51.48,8.84c3.31,1,4.84.52,6.74-2.42,18.09-27.93,43.82-44.55,76.73-48.35,35.22-4.07,65.83,6.92,90.08,33.15,22,23.77,31.44,52.33,27.42,84.41-4.1,32.6-20.39,58.33-48,76.43-3,1.93-3.89,3.3-2.87,7,19,68.48,9.48,132.74-31.2,191.15C432,558,381.68,588.69,319,598.57a132.63,132.63,0,0,1-13.86,1.78C298.79,600.65,292.46,600.42,286.13,600.42Zm53-395.19c-73.75-24.59-173.22,4.14-216.84,95.24-39.79,83.1-6.52,169.49,37.89,207.27,8.57-21.56,22.78-38.59,42-51.38,33.75-22.53,70.93-29.38,110.58-22.43,26.41,4.62,50,15.7,69.87,34.05a106.63,106.63,0,0,1,28.3,42.27c6.1-6.89,12-12.94,17.24-19.55q36.3-46.09,38.91-104.8a178.53,178.53,0,0,0-7.31-59.14c-.74-2.51-1.82-2.69-4.21-2.75-10.27-.25-20.72.17-30.74-1.66-42.1-7.65-76.42-42.82-83.29-85.1C339.81,226.86,339.89,216.17,339.14,205.23ZM283.21,559.62c32.94.09,61.12-7.12,87.71-20.94,2.91-1.51,3.56-3,2.89-6.21a62.37,62.37,0,0,0-25.59-39.18c-36.19-25.68-74.67-27.22-113.94-8.05-18.28,8.92-31.37,23.34-37,43.56-1.89,6.81-1.79,7.12,4.42,10.3C228.22,552.68,256.28,559.82,283.21,559.62Zm98-341.24c-.23,35.35,28.72,65.32,64,64.84,38.35-.52,63.78-30,64.31-63.53a64.17,64.17,0,1,0-128.33-1.31Z" transform="translate(-63.25 -113.11)"/>
    <path d="M285.37,264.42a80.48,80.48,0,0,1-.58,161c-43.93-.12-80.33-36.71-80.24-80.68A80.34,80.34,0,0,1,285.37,264.42Zm-39.14,80.36a38.75,38.75,0,0,0,38.43,39c21.78.15,39.65-17.5,39.58-39.08-.07-21.13-17.63-38.85-38.69-39A38.83,38.83,0,0,0,246.23,344.78Z" transform="translate(-63.25 -113.11)"/>
    <path d="M424.79,197.64c0-4.85-.54-9.08.1-13.12,1.79-11.09,11.24-18.61,21.77-17.87,10.95.77,19.09,9.44,19.55,20.89.12,3.14,0,6.28,0,10.09,3.3,0,6.24,0,9.18,0,12.62.09,21.79,8.16,22.19,19.5.44,12.64-7.82,21.37-21.12,22.18-3.14.2-6.3,0-10.25,0,0,3.54,0,6.79,0,10-.19,13.17-8.92,22.33-21.15,22.22-11.9-.11-20.41-9.37-20.53-22.33,0-3.13,0-6.26,0-9.56-4.87-.32-9.35-.29-13.72-1-11.23-1.77-18.5-10.84-17.71-21.65s9.23-19,20.38-19.43C417,197.52,420.43,197.64,424.79,197.64Z" transform="translate(-63.25 -113.11)"/>
  </g>
</svg>
