<svg id="Layer_1" data-name="Layer 1" xmlns="http://www.w3.org/2000/svg" width="260.57" height="250.55" viewBox="0 0 260.57 250.55">
  <g>
    <path d="M326.12,294.93c-6.34-2.06-12.54-3.5-18.25-6-23.47-10.41-37.68-28.93-39.19-54.11a855.36,855.36,0,0,1-.18-91.85c1.54-32.38,27.6-58.25,60-60.37,24.23-1.58,48.61-.91,72.92-1.08,18.33-.14,36.67-.34,55,0,27.12.58,49.18,10.7,62.81,35.37,6.17,11.16,8.6,23.34,8.63,36q.11,35.49,0,71c-.08,41.8-29.1,71-71,71.37-13.16.12-26.33-.11-39.49.12a15.56,15.56,0,0,0-7.79,2.37c-14.94,9.69-29.72,19.63-44.54,29.5-8.37,5.57-17.17,6.12-26,1.5s-12.86-12.18-13-22C326.08,302.77,326.12,298.78,326.12,294.93Zm26.1,9.51c15.9-10.61,30.92-20.42,45.7-30.6a26.49,26.49,0,0,1,16.29-5c14.66.25,29.33.19,44,.05,25-.23,42.52-16.68,43.14-41.53.63-25.14.3-50.31.29-75.47,0-8.79-1.88-17.22-6.6-24.74-9.34-14.85-23.77-19.47-40.29-19.49q-56.74-.09-113.49,0a66.72,66.72,0,0,0-13.41,1.11c-21.86,4.53-34.08,20.29-34.29,44.42-.2,23.49-.26,47,0,70.49.33,27.79,16.89,44.44,44.41,45.21,9.05.26,14.2,5.48,14.22,14.45C352.23,290.05,352.22,296.69,352.22,304.44Z" transform="translate(-267.36 -81.31)"/>
    <path d="M397.6,133.45a32.4,32.4,0,0,1,31,22.42c4.48,13.62.28,26.11-12.1,34.91-3.62,2.57-5.79,5.24-6,10-.35,6.86-6,11.47-12.72,11.49a13,13,0,0,1-13-11.95c-.92-10.66,2.71-19.59,11-26.51,1.65-1.39,3.72-2.38,5.09-4s3.2-4.06,2.73-5.42c-.68-1.94-3.14-4.27-5.07-4.49s-4.39,1.64-6.12,3.15c-.89.77-.81,2.76-1,4.22-.91,7-7,12.25-13.78,11.81-7-.44-12.13-6.05-12.25-13.29C365,148.32,379.87,133.41,397.6,133.45Z" transform="translate(-267.36 -81.31)"/>
    <path d="M397.68,214.35a13,13,0,0,1,13.15,12.8,13.14,13.14,0,0,1-12.92,13.13,13.33,13.33,0,0,1-13.46-13.17C384.57,219.81,390.22,214.36,397.68,214.35Z" transform="translate(-267.36 -81.31)"/>
  </g>
</svg>
