<svg id="Layer_1" data-name="Layer 1" xmlns="http://www.w3.org/2000/svg" width="413.07" height="357.13" viewBox="0 0 413.07 357.13">
  <g>
    <path d="M191.07,451.67c-34.16,0-68.32.43-102.47-.15-20.91-.35-40.79-5.76-58.59-17.21C6.19,419-7,396.53-12,369.21a196.6,196.6,0,0,1-3-33.74c-.34-42.15-.19-84.31-.11-126.46,0-19.11,2.58-37.85,10.44-55.46,13.39-30,36.91-47.83,68.57-54.65A179.3,179.3,0,0,1,100.48,95c61.31-.38,122.62-.29,183.94-.12,21.85.06,43.09,3.59,62.51,14.36,27,15,42.09,38.62,47.65,68.43a188.66,188.66,0,0,1,3,33.23q.47,66-.05,132c-.16,18.23-3.41,36-11.35,52.73-15.09,31.7-41.18,48.3-74.85,54A194.11,194.11,0,0,1,281,451.71c-30,.27-60,.1-90,.1ZM191,410.22c21.67,0,43.33.19,65-.06,16-.19,32.05.08,47.87-1.72,18.85-2.15,34.55-10.83,43.64-28.55,5.87-11.46,8.2-23.89,8.25-36.66q.21-63.75,0-127.49a186.57,186.57,0,0,0-2.08-29.81c-4-23.88-17.67-39.89-41.5-45.78A116.48,116.48,0,0,0,285,136.82q-92.49-.42-185-.06a142,142,0,0,0-23.83,2C58.3,141.9,43.63,150.31,35,167c-5.88,11.45-8.19,23.89-8.23,36.66q-.19,64,0,128c.05,9.95.4,20,2.13,29.8,4.17,23.6,17.7,39.55,41.46,45.17A133.51,133.51,0,0,0,99,410.07C129.68,410.49,160.35,410.22,191,410.22Z" transform="translate(15.24 -94.73)"/>
    <path d="M190.6,296.59c-18.19-.59-34.87-5.89-49.39-17.82-17.6-14.47-35.45-28.65-53.37-42.73-7.6-6-11.82-13.23-9.58-22.91a20.64,20.64,0,0,1,33.08-11.66c19.39,15.15,38.43,30.73,57.71,46,12.43,9.87,32.1,9.72,44.55-.15,5-3.92,9.89-7.88,14.83-11.82,14.17-11.31,28.19-22.82,42.56-33.87,12.63-9.72,29.94-3.6,33.35,11.67,2.12,9.5-2,16.68-9.39,22.53-17.9,14.1-35.79,28.23-53.42,42.67C226.73,290.66,209.76,296.12,190.6,296.59Z" transform="translate(15.24 -94.73)"/>
  </g>
</svg>
