<svg id="Layer_1" data-name="Layer 1" xmlns="http://www.w3.org/2000/svg" width="364.85" height="379.85" viewBox="0 0 364.85 379.85">
  <path d="M514.56,377.36c-3.46,0-6.12,0-8.77,0-9-.08-13.77-4.81-13.79-13.92-.06-20.66,0-41.33,0-62q0-24.75,0-49.49c0-10,4.57-14.58,14.7-14.79,3.12-.07,6.24,0,9.75,0-.16-27.38,2.91-54.36-10.93-79.21-17.28-31-43.25-49.33-78.71-52.56-52.63-4.79-97.19,29-107,80.35a69.12,69.12,0,0,0-1.46,11.88c-.18,12.82-.06,25.64-.06,39.54,3.28,0,6.34,0,9.39,0,10.75.14,15.2,4.61,15.2,15.24q0,55,0,110c0,10.34-4.59,15-14.84,15q-19.49,0-39,0c-25.45,0-48.37-17.82-52.23-42.85-2.9-18.87-3.24-38.28.63-57.16,4.43-21.58,25.06-38.34,47.12-39.76,2.79-.17,5.57-.49,8.76-.77,0-10.44,0-20.57,0-30.71q.09-56.23,41.41-94.41c44-40.51,115.14-42.1,160.86-3.59q45.53,38.35,45.64,97.89c0,10.13,0,20.27,0,30.84,2.72.24,5,.49,7.29.64,27.82,1.79,49.36,23.09,50.52,51.1.6,14.61.67,29.41-.95,43.9-2.83,25.17-26.2,45-51.51,44.74-5.13-.05-6.86,1.59-8.34,6.38-7.23,23.42-24,38.2-46.2,46.33-12.05,4.4-25.09,6.23-37.8,8.61-4,.76-6.68,1.58-8.92,5.46-9.18,16-30.26,20.86-45.65,11-15.71-10-20-30.17-9.85-46,9.68-15,31-19.51,45.72-9,4.18,3,7,7.81,10.65,11.66,1.1,1.17,2.73,2.82,4,2.72,19.24-1.52,37.49-6.06,52.59-19A38.75,38.75,0,0,0,514.56,377.36Z" transform="translate(-234.58 -80.2)"/>
</svg>
