<svg id="Layer_1" data-name="Layer 1" xmlns="http://www.w3.org/2000/svg" width="418.5" height="421.2" viewBox="0 0 418.5 421.2">
  <g>
    <path d="M242,367.14c-9.82,10.34-19.18,20-28.28,30-1,1.07-.85,3.61-.55,5.35,1.87,10.8,3.84,21.59,6,32.35.58,2.9-.58,4.23-2.9,5.48-30.57,16.34-62.79,27-97.64,29.18-48,3-92.28-8.63-133.51-32.93-2.36-1.39-3.22-2.73-2.59-5.56,2.23-10.05,4.22-20.15,6.14-30.25.28-1.45.29-3.6-.55-4.5-9.07-9.69-18.34-19.2-27.9-29.12l-16.32,31.44c-2.61,5-5.27,10-7.8,15.07a9.68,9.68,0,0,1-9.22,5.7c-8.34.07-16.67.14-25,0-6-.11-10-4.12-9.86-9.65s4.07-9.08,10.3-9.17c4.84-.07,9.68-.22,14.5.06,3.6.22,5.58-.87,7.29-4.28,8-15.92,16.31-31.65,24.52-47.44,4.38-8.42,10.84-9.5,17.42-2.74,9,9.19,17.78,18.5,26.68,27.74,1.23,1.28,2.58,2.44,4,3.74l14.51-25.42c59.53,21.27,118.54,24.7,178.27-1l15.29,26.55c4.74-4.46,9.79-8.95,14.55-13.73,5.87-5.9,11.47-12.08,17.25-18.08,6-6.27,12.91-5.34,17,2.39q12.72,24.33,25.2,48.77c1.31,2.58,2.76,3.65,5.67,3.53,5.33-.23,10.67-.15,16,0,5.73.12,9.89,3.93,10.08,9,.19,5.36-3.91,9.69-9.78,9.82-8.33.18-16.66,0-25,0-5.17,0-8.1-3-10.31-7.31-6.85-13.5-13.87-26.91-20.83-40.35C243.81,370.38,243.06,369.11,242,367.14ZM39,409.79A14.28,14.28,0,0,0,25.24,395a14.61,14.61,0,0,0-15.11,14.11c-.29,7.78,6.49,14.77,14.43,14.88A14.41,14.41,0,0,0,39,409.79Zm47.79,14.12a14.4,14.4,0,0,0,14.59,14.41A14.78,14.78,0,0,0,115.72,424a15,15,0,0,0-14.53-14.7A14.49,14.49,0,0,0,86.79,423.91Zm79.85-14.81A14.57,14.57,0,0,0,180.93,424a14.77,14.77,0,0,0,14.57-14.2A14.51,14.51,0,0,0,181.12,395,14.36,14.36,0,0,0,166.64,409.1Z" transform="translate(108.04 -185.4)"/>
    <path d="M-40.56,488.23c-2.93,5.64-6.38,12.24-9.81,18.84-4.21,8.12-8.55,16.17-12.55,24.39-2.55,5.25-6.27,7.8-12.2,7.6-7.33-.24-14.67,0-22-.08-6.9-.07-11-3.76-10.9-9.62.09-5.54,4.21-9,10.82-9.12,6.28-.13,13.78,1.71,18.51-1.09,4.53-2.68,6.25-10.19,9.1-15.63,6.08-11.64,12.08-23.33,18.14-35C-47,460-40.78,459.07-34,465.76c5.41,5.38,11,10.65,16.91,16.44-.45-5.58-1-10.88-1.29-16.19s-.5-10.8-.78-17.08c79.46,42.39,158.74,45.19,238.9,4.19,0,5.58.23,10.54-.07,15.46s-1.12,9.9-1.72,14.87c5.45-5.17,10.79-10.23,16.1-15.31.84-.81,1.53-1.76,2.34-2.6,6.17-6.29,12.9-5.51,17,2.25q12.55,23.83,24.72,47.88c1.73,3.45,3.67,5,7.63,4.67a138.79,138.79,0,0,1,15-.05c5.86.17,9.74,3.92,9.78,9.2.05,5.12-4,9.33-9.62,9.45-8.49.19-17,.1-25.49,0-4.91,0-7.75-2.85-9.9-7.09-7.51-14.84-15.25-29.55-23.12-44.72-1.16,1-2.2,1.69-3.07,2.59-7.16,7.45-14,15.21-21.5,22.31a63.94,63.94,0,0,0-16.24,23.54,9.44,9.44,0,0,1-5.06,4.8c-62.92,22.89-126,23-189.11.8C3.09,539.71-.4,537.69-1.71,533c-3.88-14-15.5-22.09-24.58-32.07C-30.52,496.26-35.7,492.49-40.56,488.23ZM39,510.47a14.18,14.18,0,0,0-14-14.46,14.59,14.59,0,0,0-14.81,14.42A14.85,14.85,0,0,0,24.39,525,14.49,14.49,0,0,0,39,510.47Zm62-.1a14.44,14.44,0,0,0,.37,28.88,14.44,14.44,0,1,0-.37-28.88ZM181.05,496a14.17,14.17,0,0,0-14.35,14.16A14.41,14.41,0,0,0,181,525a14.73,14.73,0,0,0,14.55-14.74A14.54,14.54,0,0,0,181.05,496Z" transform="translate(108.04 -185.4)"/>
    <path d="M76.11,256.87H118.9c.84-6.24,1.14-12.41,2.56-18.31,6.71-27.79,31.1-49.06,59.59-52.22A138.06,138.06,0,0,1,195,185.4c4.59-.05,7,2.47,7,6.65,0,4.69-3,5.75-7,5.76-17.43.05-33.23,4.86-46.26,16.8-12.11,11.1-17.57,25.13-17.19,41.51.06,2.57,1.09,3.67,3.67,4.38,10.83,3,21.11,7.29,29.42,15.12,13,12.31,13,26.16.12,38.56-2,1.94-4.29,3.64-6.41,5.43l23.16,21c-54.35,22.1-107.3,18.83-162.28.72l23.67-21.73c-1.48-1.23-3.18-2.68-4.91-4.09-14.26-11.61-15-28.53-.74-40.08,6.71-5.43,15-9.06,22.83-12.88,2.86-1.39,3.86-2.61,4-5.71,1.36-32.23-23.15-55.54-55.84-58.57-2.48-.23-5-.16-7.49-.17-3.92,0-7-1.11-7.12-5.76-.13-4.26,2.52-7.24,7.34-6.8,8.41.76,17,1.3,25.07,3.66,31,9.11,49,33.29,50,65.65C76,255.62,76.07,256.43,76.11,256.87Z" transform="translate(108.04 -185.4)"/>
    <path d="M188.51,557.53c-20.74,27.54-46.18,46-80.64,48.76C65,609.72,31.33,584.13,13.39,557.71,107.91,577,111,573.48,188.51,557.53Z" transform="translate(108.04 -185.4)"/>
  </g>
</svg>
