<svg id="Layer_1" data-name="Layer 1" xmlns="http://www.w3.org/2000/svg" width="344.9" height="345.53" viewBox="0 0 344.9 345.53">
  <g>
    <path d="M-388.54,66.88c8.14,0,15.61,0,23.08,0,10.66.09,21.36-.31,32,.55,11.65,1,20,7.57,25.26,18,5.78,11.44,11.52,22.9,17.13,34.42,3.11,6.39,8,9.41,15.1,9.36,17-.13,34-.1,51,0,6.87,0,11.66-2.75,14.69-9.06,5.48-11.38,11.24-22.62,16.89-33.92,6.44-12.89,17-19.22,31.28-19.3s28.67,0,43,0h5.9a143.41,143.41,0,0,0-3.87-38.38c-2.38-9.81-6.07-19-12.5-26.92C-139.86-11.06-154-16.36-169.3-19.55c-2.28-.47-4.61-.7-6.89-1.13a17.55,17.55,0,0,1-14.1-19.89,17.27,17.27,0,0,1,19.65-14.32c21.8,3.13,42.11,9.92,58.84,24.94C-94.16-14.11-85.16,6.42-81.57,29.31a263.42,263.42,0,0,1,3.1,38.25c.2,24.32.44,48.71-1.19,72.95-1.88,27.84-10.29,53.59-31.75,73.27-14.16,13-31.19,20.53-49.86,23.47a343.73,343.73,0,0,1-46.65,4c-31.17.6-62.35.37-93.53.11-17.68-.15-35.24-2-52.22-7.32-32.53-10.25-53.35-31.92-62.9-64.64-4.7-16.13-6.48-32.67-6.59-49.33-.16-23.82-.1-47.66.87-71.45.83-20.11,5.38-39.55,15.54-57.24,15.05-26.19,39-39.13,67.62-44.88,3.9-.78,7.91-1.67,11.84-1.52a17.07,17.07,0,0,1,16.4,16.91c.25,8.76-6.31,15.78-15.22,17.63a167.29,167.29,0,0,0-25.35,7c-12.83,4.9-22,14.27-27.61,26.76C-386.66,30.07-388.11,47.91-388.54,66.88ZM-113,101.79c-16.19,0-31.67-.09-47.13.16-1.38,0-3.21,2-4,3.58-5.51,10.63-10.61,21.47-16.21,32.06-8.13,15.39-21,24.79-38.38,25.7-19.11,1-38.31.48-57.47.48-21.22,0-36.5-9.67-46-28.58-4.92-9.82-9.92-19.59-14.65-29.5-1.42-3-3.17-4-6.5-4-12.5.21-25,.07-37.5.06h-7.57c-.3,20.78-.2,40.72,5.84,60.1,5.84,18.75,17.53,32.23,36.55,37.8,10.92,3.19,22.38,5.89,33.67,6.23,30.64.94,61.32.53,92,.62,17.47.05,35,.59,52.24-3C-146.38,199-129,188.85-120.62,167-112.62,146.12-112.86,124.34-113,101.79Z" transform="translate(423.23 103.89)"/>
    <path d="M-233.43-43.84c0,22.28,0,43.42,0,64.57,0,11-6.9,18.63-16.93,18.81-10.22.2-17.72-7.44-17.8-18.64-.15-19.65,0-39.3,0-58.95v-5.69c-7.08,5.9-14.15,7.68-21.77,3.69-9.71-5.1-12.4-18.42-4.87-26.43,10.6-11.28,21.62-22.19,32.84-32.86,6.58-6.26,16.5-6,23.12.39q16.17,15.6,31.8,31.77A17.18,17.18,0,0,1-206.53-44c-5.89,6.77-15.31,8-23,2.94C-230.58-41.74-231.59-42.52-233.43-43.84Z" transform="translate(423.23 103.89)"/>
  </g>
</svg>
