<svg width="18" height="18" viewBox="0 0 18 18" fill="none" xmlns="http://www.w3.org/2000/svg">
									<g clip-path="url(#clip0_2_8049)">
									<path d="M15.129 5.06285H13.7332L10.3087 8.48585C10.4267 8.78644 10.4375 9.11848 10.3395 9.42613C10.2414 9.73378 10.0404 9.99828 9.7702 10.1751C9.50004 10.352 9.17722 10.4305 8.85602 10.3973C8.53482 10.3641 8.23484 10.2214 8.00651 9.99307C7.77818 9.76475 7.63544 9.46476 7.60228 9.14356C7.56912 8.82237 7.64757 8.49955 7.82444 8.22939C8.00131 7.95923 8.2658 7.75821 8.57345 7.66013C8.8811 7.56206 9.21314 7.5729 9.51373 7.69085L12.9375 4.2671V2.87135C12.9376 2.68458 13.0117 2.50548 13.1437 2.37335L14.4412 1.07585C14.4652 1.05168 14.4954 1.03452 14.5284 1.02619C14.5615 1.01787 14.5961 1.0187 14.6287 1.0286C14.6955 1.0481 14.745 1.1036 14.7585 1.17185L15.1035 2.8976L16.8285 3.2426C16.896 3.2561 16.9515 3.3056 16.971 3.37235C16.9808 3.40478 16.9817 3.43926 16.9735 3.47215C16.9653 3.50503 16.9484 3.53508 16.9245 3.5591L15.6262 4.8566C15.4943 4.98842 15.3155 5.06258 15.129 5.06285Z" fill="#101136"></path>
									<path d="M1.96875 9C1.96875 10.8648 2.70954 12.6532 4.02816 13.9718C5.34677 15.2905 7.1352 16.0313 9 16.0313C9.92336 16.0313 10.8377 15.8494 11.6907 15.496C12.5438 15.1427 13.3189 14.6248 13.9718 13.9718C14.6248 13.3189 15.1427 12.5438 15.496 11.6907C15.8494 10.8377 16.0312 9.92336 16.0312 9C16.0312 8.3265 15.9368 7.6755 15.7605 7.05975C15.7255 6.91837 15.7466 6.76891 15.8196 6.64283C15.8925 6.51674 16.0115 6.42386 16.1515 6.38373C16.2915 6.3436 16.4417 6.35935 16.5703 6.42766C16.6989 6.49598 16.7961 6.61153 16.8412 6.75C17.0467 7.4655 17.1562 8.22001 17.1562 9C17.1562 13.5045 13.5045 17.1563 9 17.1563C4.4955 17.1563 0.84375 13.5045 0.84375 9C0.84375 4.4955 4.4955 0.843754 9 0.843754C9.76125 0.843004 10.518 0.948754 11.25 1.158C11.3214 1.17802 11.3881 1.21195 11.4463 1.25784C11.5045 1.30373 11.5531 1.36068 11.5892 1.4254C11.6254 1.49012 11.6483 1.56135 11.6569 1.63499C11.6654 1.70862 11.6592 1.78321 11.6388 1.85448C11.6184 1.92574 11.5841 1.99226 11.5379 2.05023C11.4917 2.10819 11.4345 2.15645 11.3696 2.19223C11.3047 2.22801 11.2333 2.25061 11.1596 2.25872C11.086 2.26683 11.0114 2.2603 10.9403 2.2395C10.3093 2.0594 9.6562 1.96827 9 1.96875C7.1352 1.96875 5.34677 2.70954 4.02816 4.02816C2.70954 5.34678 1.96875 7.1352 1.96875 9Z" fill="#101136"></path>
									<path d="M5.3438 8.99984C5.34589 9.49659 5.44921 9.98769 5.64744 10.4432C5.84566 10.8987 6.13465 11.309 6.49674 11.649C6.85883 11.9891 7.28643 12.2518 7.75344 12.4211C8.22045 12.5904 8.71706 12.6627 9.21296 12.6337C9.70886 12.6046 10.1936 12.4748 10.6377 12.2522C11.0817 12.0296 11.4758 11.7187 11.7957 11.3387C12.1156 10.9587 12.3547 10.5175 12.4984 10.042C12.6422 9.56649 12.6874 9.06669 12.6315 8.57309C12.6158 8.47313 12.6274 8.37076 12.6651 8.27685C12.7028 8.18293 12.7652 8.10096 12.8456 8.03961C12.9261 7.97827 13.0217 7.93983 13.1223 7.92839C13.2228 7.91694 13.3246 7.93291 13.4168 7.97459C13.6051 8.05859 13.7318 8.23784 13.7483 8.44334C13.8648 9.42978 13.671 10.428 13.194 11.2992C12.7169 12.1705 11.9803 12.8714 11.0865 13.3047C10.1927 13.738 9.18615 13.8821 8.20669 13.7169C7.22724 13.5517 6.32357 13.0855 5.6213 12.3831C4.91922 11.6814 4.4529 10.7786 4.287 9.8C4.12109 8.82135 4.26384 7.81534 4.69544 6.92147C5.12704 6.02761 5.8261 5.29021 6.69567 4.81153C7.56523 4.33286 8.5622 4.13664 9.5483 4.25009C9.62285 4.25701 9.69526 4.27874 9.7613 4.314C9.82734 4.34927 9.88568 4.39737 9.93289 4.45547C9.9801 4.51357 10.0152 4.58052 10.0362 4.65238C10.0572 4.72424 10.0637 4.79957 10.0552 4.87395C10.0467 4.94834 10.0235 5.02028 9.98682 5.08556C9.95017 5.15084 9.90085 5.20815 9.84177 5.25413C9.78268 5.3001 9.71501 5.33382 9.64272 5.3533C9.57044 5.37279 9.49499 5.37765 9.4208 5.36759C8.90857 5.30837 8.38961 5.35815 7.89797 5.51365C7.40634 5.66915 6.95314 5.92686 6.56814 6.26986C6.18313 6.61287 5.87501 7.03342 5.66401 7.50392C5.453 7.97441 5.34388 8.4842 5.3438 8.99984Z" fill="#101136"></path>
									</g>
									<defs>
									<clipPath id="clip0_2_8049">
									<rect width="18" height="18" fill="white"></rect>
									</clipPath>
									</defs>
								</svg>