<svg id="Layer_1" data-name="Layer 1" xmlns="http://www.w3.org/2000/svg" width="130.39" height="130.36" viewBox="0 0 130.39 130.36">
  <g>
    <path d="M239.51,376c-.5,10.46-.16,21-1.67,31.36C235,426.73,226.68,436,207.42,439.12a219.17,219.17,0,0,1-66.72.05C119.39,436,110.87,422,109.84,402.72c-1-17.93-.71-36-.08-53.94.79-22.13,13.4-35.57,35.56-36.73a581.18,581.18,0,0,1,59.91.14c19.75,1,32.44,15.66,33.44,36.8.42,9,.84,18,.84,27Zm-9.72-.19h0c0-9,.4-18-.08-27-.91-16.81-9-26.5-25.62-27.75a422.4,422.4,0,0,0-56.92-.55c-18.82,1.15-27.75,10.46-28.41,27.83-.71,18.29-.64,36.64,0,54.94.52,15.61,8.07,25.61,23.56,26.87,21.15,1.72,42.59,1.24,63.82.12,13.35-.7,21.34-9.74,22.86-23.11C230.14,396.8,229.24,386.26,229.79,375.8Z" transform="translate(-109.2 -311.34)"/>
    <path d="M167.44,349.3c3,1,6.17,1.53,8.86,3a221.1,221.1,0,0,1,19.27,11.5c8.81,6,8.92,18,.09,24a185.3,185.3,0,0,1-22.45,12.94,14,14,0,0,1-20.44-11.78A197,197,0,0,1,152.7,363C153.18,354.63,159.27,349.57,167.44,349.3Zm-6.66,26.28c.23,4,.19,8,.75,11.93.78,5.35,4.1,7.36,8.92,4.93a197.25,197.25,0,0,0,19.36-11.23c4.63-3,4.68-7.4,0-10.47a201.9,201.9,0,0,0-19.79-11.47c-4.46-2.25-7.83-.13-8.55,4.9C161,367.93,161,371.77,160.78,375.58Z" transform="translate(-109.2 -311.34)"/>
  </g>
</svg>
