<svg id="Layer_1" data-name="Layer 1" xmlns="http://www.w3.org/2000/svg" width="290.02" height="247.79" viewBox="0 0 290.02 247.79">
  <g>
    <path d="M177.81,387.7c-.11,2.47-.24,4.07-.24,5.66,0,22.65,0,45.31,0,68,0,5.4-3.05,9.27-7.66,10.29-5,1.11-9.66-.93-11.64-5.44a14.83,14.83,0,0,1-1.12-5.8c.06-29.31.52-58.62.12-87.93-.11-7.48,2.67-11.48,8.56-15.22,35.67-22.64,71-45.73,106.76-68.29,19.15-12.09,39.1-12.46,58.36-.31,36.57,23.05,72.85,46.56,109.19,70,9.38,6,9.36,13.8,0,19.92-36,23.61-72,47.3-108.19,70.65-19.65,12.68-39.92,12.67-59.63.14C249,434.48,226.07,419.12,203,404,194.81,398.69,186.62,393.42,177.81,387.7Z" transform="translate(-157.11 -279.68)"/>
    <path d="M205.78,430.91c6.55,4.26,12.64,8.19,18.71,12.16,12.52,8.2,24.77,16.87,37.61,24.53,27.62,16.48,55.24,15.83,82.32-1.56,16.51-10.61,32.88-21.46,49.31-32.19,1.23-.8,2.51-1.52,4.27-2.58.19,1.65.45,2.87.46,4.09,0,15.16.23,30.33-.15,45.48a16.62,16.62,0,0,1-3.7,9.81c-15.2,17.16-34.74,27.23-56.74,32.32-37.56,8.68-73.81,5.41-107.32-14.87-7.86-4.76-14.62-11.46-21.4-17.77a12.88,12.88,0,0,1-3.48-8.37c-.33-16-.16-32-.15-48C205.52,433.19,205.65,432.4,205.78,430.91Z" transform="translate(-157.11 -279.68)"/>
  </g>
</svg>
