<svg id="Layer_1" data-name="Layer 1" xmlns="http://www.w3.org/2000/svg" width="69.96" height="70.02" viewBox="0 0 69.96 70.02">
  <path d="M309,361.32c5.83,0,11.68-.29,17.48.06,9.9.6,16.65,6.93,17.05,16.76.5,12,.51,24,0,35.95-.39,9.53-6,16-15.5,16.56a315.53,315.53,0,0,1-38.41,0c-8.85-.52-14.64-6.42-15.13-15.21a346.41,346.41,0,0,1-.07-38.4c.52-9.23,7.27-15,16.57-15.6,6-.39,12-.07,18-.07Zm.71,23.81A7.18,7.18,0,0,0,300,386.7a4.09,4.09,0,0,0-.8,1.76,61.2,61.2,0,0,0-.1,15.36c.51,4.47,3.92,6.43,8,4.53a65,65,0,0,0,13.38-8.41c1.34-1.08,2-5.64,1.15-6.34C318,390.62,314,388,309.68,385.13Z" transform="translate(-273.92 -361.21)"/>
</svg>
