<svg id="Layer_1" data-name="Layer 1" xmlns="http://www.w3.org/2000/svg" width="107.29" height="81.12" viewBox="0 0 107.29 81.12">
  <defs>
    <style>
      .cls-1 {
        fill: #fff;
      }
    </style>
  </defs>
  <path class="cls-1" d="M-438,82.47V59h15l-19-22.89L-460.8,58.72H-446V82.16c-12.39-1-25.19,2.79-36.76-5-10-6.73-14.18-16.44-12.65-28.06,1.59-12,8.76-20.11,20.44-23.42,3.55-1,5.06-2.62,6.28-5.86A28.31,28.31,0,0,1-442.11,1.35a28,28,0,0,1,26.65,18.4c1.32,3.51,3.14,5.06,6.76,6,12.5,3.34,20.64,15.29,20.25,28.85-.36,12.59-9.47,24.3-22,26.33C-419.36,82.41-428.58,82-438,82.47Z" transform="translate(495.73 -1.35)"/>
</svg>
