<svg width="20" height="21" viewBox="0 0 20 21" fill="none" xmlns="http://www.w3.org/2000/svg">
										<path d="M7.63338 9.55829C7.55005 9.54996 7.45005 9.54996 7.35838 9.55829C5.37505 9.49163 3.80005 7.86663 3.80005 5.86663C3.80005 3.82496 5.45005 2.16663 7.50005 2.16663C9.54172 2.16663 11.2 3.82496 11.2 5.86663C11.1917 7.86663 9.61672 9.49163 7.63338 9.55829Z" stroke="#101136" stroke-width="1.5" stroke-linecap="round" stroke-linejoin="round"></path>
										<path d="M13.675 3.83337C15.2916 3.83337 16.5917 5.14171 16.5917 6.75004C16.5917 8.32504 15.3417 9.60837 13.7833 9.66671C13.7167 9.65837 13.6417 9.65837 13.5667 9.66671" stroke="#101136" stroke-width="1.5" stroke-linecap="round" stroke-linejoin="round"></path>
										<path d="M3.4666 12.6334C1.44993 13.9834 1.44993 16.1834 3.4666 17.525C5.75827 19.0584 9.5166 19.0584 11.8083 17.525C13.8249 16.175 13.8249 13.975 11.8083 12.6334C9.52493 11.1084 5.7666 11.1084 3.4666 12.6334Z" stroke="#101136" stroke-width="1.5" stroke-linecap="round" stroke-linejoin="round"></path>
										<path d="M15.2834 17.1666C15.8834 17.0416 16.4501 16.8 16.9167 16.4416C18.2167 15.4666 18.2167 13.8583 16.9167 12.8833C16.4584 12.5333 15.9001 12.3 15.3084 12.1666" stroke="#101136" stroke-width="1.5" stroke-linecap="round" stroke-linejoin="round"></path>
									</svg>