<svg width="18" height="19" viewBox="0 0 18 19" fill="none" xmlns="http://www.w3.org/2000/svg">
								<path d="M13.4996 5.87C13.4546 5.8625 13.4021 5.8625 13.3571 5.87C12.3221 5.8325 11.4971 4.985 11.4971 3.935C11.4971 2.8625 12.3596 2 13.4321 2C14.5046 2 15.3671 2.87 15.3671 3.935C15.3596 4.985 14.5346 5.8325 13.4996 5.87Z" stroke="#575A7B" stroke-width="1.5" stroke-linecap="round" stroke-linejoin="round"></path>
								<path d="M12.7284 11.33C13.7559 11.5025 14.8884 11.3225 15.6834 10.79C16.7409 10.085 16.7409 8.93 15.6834 8.225C14.8809 7.6925 13.7334 7.51249 12.7059 7.69249" stroke="#575A7B" stroke-width="1.5" stroke-linecap="round" stroke-linejoin="round"></path>
								<path d="M4.47736 5.87C4.52236 5.8625 4.57486 5.8625 4.61986 5.87C5.65486 5.8325 6.47986 4.985 6.47986 3.935C6.47986 2.8625 5.61736 2 4.54486 2C3.47236 2 2.60986 2.87 2.60986 3.935C2.61736 4.985 3.44236 5.8325 4.47736 5.87Z" stroke="#575A7B" stroke-width="1.5" stroke-linecap="round" stroke-linejoin="round"></path>
								<path d="M5.25008 11.33C4.22258 11.5025 3.09008 11.3225 2.29508 10.79C1.23758 10.085 1.23758 8.93 2.29508 8.225C3.09758 7.6925 4.24508 7.51249 5.27258 7.69249" stroke="#575A7B" stroke-width="1.5" stroke-linecap="round" stroke-linejoin="round"></path>
								<path d="M8.99969 11.4725C8.95469 11.465 8.90219 11.465 8.85719 11.4725C7.82219 11.435 6.99719 10.5875 6.99719 9.53754C6.99719 8.46504 7.85969 7.60254 8.93219 7.60254C10.0047 7.60254 10.8672 8.47254 10.8672 9.53754C10.8597 10.5875 10.0347 11.4425 8.99969 11.4725Z" stroke="#575A7B" stroke-width="1.5" stroke-linecap="round" stroke-linejoin="round"></path>
								<path d="M6.81681 13.835C5.75931 14.54 5.75931 15.695 6.81681 16.4C8.01681 17.2025 9.98181 17.2025 11.1818 16.4C12.2393 15.695 12.2393 14.54 11.1818 13.835C9.98931 13.04 8.01681 13.04 6.81681 13.835Z" stroke="#575A7B" stroke-width="1.5" stroke-linecap="round" stroke-linejoin="round"></path>
							</svg>