<svg xmlns="http://www.w3.org/2000/svg" width="16" height="17" viewBox="0 0 16 17" fill="none">
                                        <path d="M8.10683 7.74666C8.04016 7.73999 7.96016 7.73999 7.88683 7.74666C6.30016 7.69333 5.04016 6.39333 5.04016 4.79333C5.04016 3.15999 6.36016 1.83333 8.00016 1.83333C9.63349 1.83333 10.9602 3.15999 10.9602 4.79333C10.9535 6.39333 9.69349 7.69333 8.10683 7.74666Z" stroke="black" stroke-width="1.5" stroke-linecap="round" stroke-linejoin="round"></path>
                                        <path d="M4.7736 10.2067C3.16027 11.2867 3.16027 13.0467 4.7736 14.12C6.60693 15.3467 9.6136 15.3467 11.4469 14.12C13.0603 13.04 13.0603 11.28 11.4469 10.2067C9.62027 8.98667 6.6136 8.98667 4.7736 10.2067Z" stroke="black" stroke-width="1.5" stroke-linecap="round" stroke-linejoin="round"></path>
                                    </svg>